<svg xmlns="http://www.w3.org/2000/svg" xmlns:xlink="http://www.w3.org/1999/xlink" width="200" zoomAndPan="magnify" viewBox="0 0 150 37.5" height="50" preserveAspectRatio="xMidYMid meet" version="1.0"><defs><g/></defs><g fill="#483d43" fill-opacity="1"><g transform="translate(1.918537, 24.800425)"><g><path d="M 0.53125 0 L 7.484375 0 C 12.109375 0 14.28125 -2.328125 14.28125 -4.578125 C 14.265625 -6.984375 11.21875 -8.734375 9.03125 -8.703125 C 11.21875 -9.359375 12.8125 -10.78125 12.8125 -12.1875 C 12.828125 -14.90625 9.5 -15.53125 7.5 -15.53125 L 0.53125 -15.53125 C 1.59375 -10.765625 1.59375 -4.765625 0.53125 0 Z M 4.671875 -8.1875 C 8.28125 -8.484375 11.59375 -6.5625 10.015625 -3.171875 C 9.375 -1.8125 8.328125 -0.578125 6.984375 -0.578125 C 6.109375 -0.578125 4.703125 -0.796875 4.671875 -3.28125 Z M 7.46875 -15 C 8.96875 -14.984375 9.625 -13.09375 9.5625 -11.921875 C 9.46875 -9.859375 7.609375 -8.84375 4.671875 -8.703125 L 4.671875 -9.359375 C 4.640625 -13.8125 6.765625 -15 7.46875 -15 Z M 7.46875 -15 "/></g></g></g><g fill="#483d43" fill-opacity="1"><g transform="translate(17.503473, 24.800425)"><g><path d="M 8.109375 0.34375 C 12.609375 0.34375 15.703125 -3.28125 15.703125 -7.765625 C 15.703125 -12.25 12.609375 -15.890625 8.109375 -15.890625 C 3.625 -15.890625 0.53125 -12.25 0.53125 -7.765625 C 0.53125 -3.28125 3.625 0.34375 8.109375 0.34375 Z M 4.8125 -8.03125 C 5.75 -12.984375 7.609375 -15.21875 9.125 -15.21875 C 10.859375 -15.21875 12.171875 -12.390625 11.234375 -7.390625 C 10.59375 -3.78125 8.8125 -0.3125 6.375 -0.3125 C 4.40625 -0.3125 4.109375 -4.21875 4.8125 -8.03125 Z M 4.8125 -8.03125 "/></g></g></g><g fill="#483d43" fill-opacity="1"><g transform="translate(35.147965, 24.800425)"><g><path d="M 8.109375 0.34375 C 12.609375 0.34375 15.703125 -3.28125 15.703125 -7.765625 C 15.703125 -12.25 12.609375 -15.890625 8.109375 -15.890625 C 3.625 -15.890625 0.53125 -12.25 0.53125 -7.765625 C 0.53125 -3.28125 3.625 0.34375 8.109375 0.34375 Z M 4.8125 -8.03125 C 5.75 -12.984375 7.609375 -15.21875 9.125 -15.21875 C 10.859375 -15.21875 12.171875 -12.390625 11.234375 -7.390625 C 10.59375 -3.78125 8.8125 -0.3125 6.375 -0.3125 C 4.40625 -0.3125 4.109375 -4.21875 4.8125 -8.03125 Z M 4.8125 -8.03125 "/></g></g></g><g fill="#483d43" fill-opacity="1"><g transform="translate(52.792454, 24.800425)"><g><path d="M 5.46875 0 C 5.03125 -2.03125 4.765625 -4.28125 4.703125 -7.125 C 6.46875 -5.875 8.59375 -2.53125 8.671875 0 L 14.625 0 C 13.421875 -1.15625 10.125 -5.515625 8.78125 -8.9375 C 8.25 -8.734375 7.421875 -8.546875 6.71875 -8.546875 C 6.46875 -8.546875 6.25 -8.578125 6.0625 -8.625 C 5.703125 -8.46875 11.703125 -14.484375 12.953125 -15.53125 L 8.140625 -15.53125 C 8.578125 -13.703125 7.25 -10.15625 4.671875 -8.0625 C 4.640625 -10.125 4.90625 -13 5.46875 -15.53125 L 0.53125 -15.53125 C 1.59375 -10.765625 1.59375 -4.765625 0.53125 0 Z M 5.46875 0 "/></g></g></g><g fill="#483d43" fill-opacity="1"><g transform="translate(68.831193, 24.800425)"><g/></g></g><g fill="#878d5d" fill-opacity="1"><g transform="translate(74.78704, 24.800425)"><g><path d="M 5.1875 -6.5625 C 5.875 -6.21875 6.9375 -5.75 7.828125 -5.125 C 10.609375 -3.21875 9.03125 -0.1875 6.53125 -0.1875 C 4.859375 -0.1875 2.25 -1.515625 1.078125 -5.34375 C 0.921875 -2.9375 0.625 -1.234375 0.34375 0 C 0.859375 -0.234375 1.359375 -0.28125 1.84375 -0.25 C 3.0625 -0.15625 4.921875 0.34375 6.5625 0.34375 C 8.03125 0.34375 9.484375 0.046875 10.609375 -0.53125 C 12.21875 -1.328125 13.421875 -2.8125 13.421875 -4.65625 C 13.40625 -7.703125 9.734375 -8.828125 6.890625 -10.09375 C 2.484375 -12.03125 5 -15.328125 6.828125 -15.328125 C 8.5 -15.328125 10.4375 -14.015625 11.609375 -10.1875 C 11.75 -12.609375 12.046875 -14.296875 12.328125 -15.53125 C 11.8125 -15.3125 11.328125 -15.25 10.828125 -15.296875 C 9.640625 -15.375 8.1875 -15.875 6.546875 -15.875 C 3.609375 -15.890625 0.34375 -14.46875 0.34375 -11.703125 C 0.34375 -9.09375 2.828125 -7.703125 5.1875 -6.5625 Z M 5.1875 -6.5625 "/></g></g></g><g fill="#878d5d" fill-opacity="1"><g transform="translate(89.62146, 24.800425)"><g><path d="M 0.53125 0 L 5.46875 0 C 4.953125 -2.296875 4.703125 -4.90625 4.671875 -7.53125 L 10.671875 -7.53125 C 10.640625 -4.90625 10.390625 -2.296875 9.859375 0 L 14.796875 0 C 13.75 -4.765625 13.75 -10.765625 14.796875 -15.53125 L 9.859375 -15.53125 C 10.375 -13.234375 10.640625 -10.640625 10.671875 -8.046875 L 4.671875 -8.046875 C 4.703125 -10.640625 4.953125 -13.234375 5.46875 -15.53125 L 0.53125 -15.53125 C 1.59375 -10.765625 1.59375 -4.765625 0.53125 0 Z M 0.53125 0 "/></g></g></g><g fill="#878d5d" fill-opacity="1"><g transform="translate(106.358351, 24.800425)"><g><path d="M 0.53125 0 L 13.171875 0 C 12.78125 -1.8125 12.578125 -3.25 12.46875 -5.34375 C 11.46875 -2.0625 8.53125 -0.53125 5.359375 -0.53125 C 4.90625 -2.796875 4.671875 -5.265625 4.671875 -7.25 C 4.671875 -7.40625 4.78125 -7.5 4.953125 -7.5 L 6.25 -7.5 C 7.828125 -7.5 9.03125 -7 10.375 -5.078125 C 10.21875 -7.1875 10.21875 -8.359375 10.375 -10.453125 C 8.984375 -8.5 7.84375 -8.03125 6.25 -8.03125 L 4.953125 -8.03125 C 4.796875 -8.03125 4.703125 -8.15625 4.703125 -8.3125 C 4.75 -11.03125 4.96875 -13.109375 5.359375 -15.015625 C 8.546875 -15.015625 11.46875 -13.5 12.46875 -10.1875 C 12.578125 -12.296875 12.78125 -13.71875 13.171875 -15.53125 L 0.53125 -15.53125 C 1.59375 -10.765625 1.59375 -4.765625 0.53125 0 Z M 0.53125 0 "/></g></g></g><g fill="#878d5d" fill-opacity="1"><g transform="translate(121.297494, 24.800425)"><g><path d="M 0.53125 -15.53125 C 1.59375 -10.765625 1.59375 -4.765625 0.53125 0 L 12.109375 0 C 11.71875 -2.203125 11.5625 -2.953125 11.375 -5.34375 C 10.5625 -2.640625 7.53125 -0.53125 5.765625 -0.53125 L 5.359375 -0.53125 C 4.40625 -5.296875 4.4375 -10.875 5.46875 -15.53125 Z M 0.53125 -15.53125 "/></g></g></g><g fill="#878d5d" fill-opacity="1"><g transform="translate(134.718152, 24.800425)"><g><path d="M 0.53125 0 L 5.46875 0 C 4.9375 -2.40625 4.671875 -5.109375 4.671875 -7.25 C 4.671875 -7.40625 4.78125 -7.5 4.953125 -7.5 L 6.25 -7.5 C 7.828125 -7.5 9.03125 -7 10.375 -5.078125 C 10.21875 -7.1875 10.21875 -8.359375 10.375 -10.453125 C 8.984375 -8.5 7.84375 -8.03125 6.25 -8.03125 L 4.953125 -8.03125 C 4.796875 -8.03125 4.703125 -8.15625 4.703125 -8.3125 C 4.75 -11.03125 4.96875 -13.109375 5.359375 -15.015625 C 8.546875 -15.015625 11.46875 -13.5 12.46875 -10.1875 C 12.578125 -12.296875 12.78125 -13.71875 13.171875 -15.53125 L 0.53125 -15.53125 C 1.59375 -10.765625 1.59375 -4.765625 0.53125 0 Z M 0.53125 0 "/></g></g></g></svg>