<svg xmlns="http://www.w3.org/2000/svg" xmlns:xlink="http://www.w3.org/1999/xlink" width="700" zoomAndPan="magnify" viewBox="0 0 525 525.000007" height="700" preserveAspectRatio="xMidYMid meet" version="1.0"><defs><g/><clipPath id="b54f34683a"><path d="M 52.898438 25.128906 L 472.101562 25.128906 L 472.101562 444.328125 L 52.898438 444.328125 Z M 52.898438 25.128906 " clip-rule="nonzero"/></clipPath></defs><g fill="#483d43" fill-opacity="1"><g transform="translate(59.186343, 509.538496)"><g><path d="M 1.171875 0 L 12.171875 0 C 11 -5.375 10.421875 -11.390625 10.421875 -16.140625 C 10.421875 -16.484375 10.65625 -16.71875 11.046875 -16.71875 L 13.921875 -16.71875 C 17.421875 -16.71875 20.109375 -15.59375 23.109375 -11.3125 C 22.75 -16.03125 22.75 -18.625 23.109375 -23.296875 C 20.03125 -18.9375 17.46875 -17.890625 13.921875 -17.890625 L 11.046875 -17.890625 C 10.703125 -17.890625 10.46875 -18.15625 10.46875 -18.515625 C 10.578125 -24.578125 11.078125 -29.203125 11.9375 -33.453125 C 19.0625 -33.453125 25.546875 -30.0625 27.765625 -22.71875 C 28.046875 -27.375 28.46875 -30.578125 29.359375 -34.609375 L 1.171875 -34.609375 C 3.546875 -24 3.546875 -10.625 1.171875 0 Z M 1.171875 0 "/></g></g></g><g fill="#483d43" fill-opacity="1"><g transform="translate(92.086396, 509.538496)"><g><path d="M 0 0 L 11.46875 0 C 8.015625 -2.765625 7 -6.140625 8.125 -11.59375 L 21.515625 -11.59375 C 22.640625 -7.078125 23.109375 -2.765625 22.28125 0 L 36.171875 0 C 28.4375 -12.796875 22.40625 -33.0625 22.40625 -35.390625 L 15.59375 -34.609375 L 9.6875 -19.984375 C 5.171875 -8.75 3.15625 -4.125 0 0 Z M 8.40625 -12.796875 C 8.953125 -14.96875 9.84375 -17.46875 11 -20.375 L 14.234375 -28.4375 C 16.6875 -25.328125 19.484375 -18.984375 21.203125 -12.796875 Z M 8.40625 -12.796875 "/></g></g></g><g fill="#483d43" fill-opacity="1"><g transform="translate(130.314797, 509.538496)"><g><path d="M 11.546875 -14.625 C 13.109375 -13.84375 15.4375 -12.796875 17.421875 -11.4375 C 23.640625 -7.15625 20.109375 -0.421875 14.546875 -0.421875 C 10.8125 -0.421875 5.015625 -3.390625 2.40625 -11.90625 C 2.0625 -6.53125 1.40625 -2.765625 0.78125 0 C 1.90625 -0.5 3.03125 -0.625 4.125 -0.546875 C 6.8125 -0.34375 10.96875 0.78125 14.625 0.78125 C 17.890625 0.78125 21.125 0.109375 23.640625 -1.171875 C 27.21875 -2.953125 29.90625 -6.265625 29.90625 -10.390625 C 29.875 -17.15625 21.703125 -19.6875 15.359375 -22.484375 C 5.515625 -26.796875 11.125 -34.15625 15.203125 -34.15625 C 18.9375 -34.15625 23.265625 -31.234375 25.859375 -22.71875 C 26.171875 -28.078125 26.84375 -31.859375 27.453125 -34.609375 C 26.328125 -34.109375 25.25 -34 24.109375 -34.078125 C 21.46875 -34.265625 18.234375 -35.359375 14.578125 -35.359375 C 8.046875 -35.390625 0.78125 -32.25 0.78125 -26.0625 C 0.78125 -20.265625 6.296875 -17.15625 11.546875 -14.625 Z M 11.546875 -14.625 "/></g></g></g><g fill="#483d43" fill-opacity="1"><g transform="translate(163.370417, 509.538496)"><g><path d="M 0 -34.609375 C 1.015625 -30.109375 1.40625 -26.6875 1.671875 -21.078125 C 2.953125 -26.71875 4.90625 -33.453125 10.578125 -33.453125 C 11.4375 -29.203125 11.9375 -24.578125 12.09375 -18.515625 C 12.171875 -12.09375 11.515625 -5.671875 10.234375 0 L 21.234375 0 C 19.953125 -5.796875 19.375 -12.171875 19.453125 -18.515625 C 19.5625 -24.578125 20.0625 -29.203125 20.921875 -33.453125 C 26.765625 -33.453125 28.546875 -26.6875 29.828125 -21 C 30.109375 -26.640625 30.53125 -30.109375 31.546875 -34.609375 Z M 0 -34.609375 "/></g></g></g><g fill="#483d43" fill-opacity="1"><g transform="translate(198.059545, 509.538496)"><g/></g></g><g fill="#483d43" fill-opacity="1"><g transform="translate(211.318614, 509.538496)"><g><path d="M 17.1875 0 C 38.265625 0.03125 38.546875 -34.578125 17.46875 -34.609375 L 1.171875 -34.609375 C 3.546875 -24 3.546875 -10.625 1.171875 0 Z M 10.421875 -7.3125 L 10.421875 -18.203125 C 10.421875 -26.375 13.8125 -33.296875 18.78125 -33.296875 C 19.21875 -33.296875 19.640625 -33.25 20.0625 -33.140625 C 23.453125 -32.359375 26.09375 -27.109375 24.9375 -17.1875 C 23.765625 -7.3125 18.125 -1.28125 14.234375 -1.28125 C 12.0625 -1.28125 10.421875 -3.15625 10.421875 -7.3125 Z M 10.421875 -7.3125 "/></g></g></g><g fill="#483d43" fill-opacity="1"><g transform="translate(248.76916, 509.538496)"><g><path d="M 1.171875 0 L 29.359375 0 C 28.46875 -4.046875 28.046875 -7.234375 27.765625 -11.90625 C 25.546875 -4.59375 19.015625 -1.171875 11.9375 -1.171875 C 10.921875 -6.21875 10.421875 -11.75 10.421875 -16.140625 C 10.421875 -16.484375 10.65625 -16.71875 11.046875 -16.71875 L 13.921875 -16.71875 C 17.421875 -16.71875 20.109375 -15.59375 23.109375 -11.3125 C 22.75 -16.03125 22.75 -18.625 23.109375 -23.296875 C 20.03125 -18.9375 17.46875 -17.890625 13.921875 -17.890625 L 11.046875 -17.890625 C 10.703125 -17.890625 10.46875 -18.15625 10.46875 -18.515625 C 10.578125 -24.578125 11.078125 -29.203125 11.9375 -33.453125 C 19.0625 -33.453125 25.546875 -30.0625 27.765625 -22.71875 C 28.046875 -27.375 28.46875 -30.578125 29.359375 -34.609375 L 1.171875 -34.609375 C 3.546875 -24 3.546875 -10.625 1.171875 0 Z M 1.171875 0 "/></g></g></g><g fill="#483d43" fill-opacity="1"><g transform="translate(282.058138, 509.538496)"><g><path d="M 1.171875 -34.609375 C 3.546875 -24 3.546875 -10.625 1.171875 0 L 27 0 C 26.09375 -4.90625 25.75 -6.578125 25.359375 -11.90625 C 23.53125 -5.875 16.765625 -1.171875 12.828125 -1.171875 L 11.9375 -1.171875 C 9.796875 -11.78125 9.875 -24.234375 12.171875 -34.609375 Z M 1.171875 -34.609375 "/></g></g></g><g fill="#483d43" fill-opacity="1"><g transform="translate(311.963432, 509.538496)"><g><path d="M 12.171875 0 C 9.84375 -10.625 9.84375 -24 12.171875 -34.609375 L 1.171875 -34.609375 C 3.546875 -24 3.546875 -10.625 1.171875 0 Z M 12.171875 0 "/></g></g></g><g fill="#483d43" fill-opacity="1"><g transform="translate(328.450613, 509.538496)"><g><path d="M 13.296875 0.78125 L 20.140625 0 L 26.015625 -14.625 C 30.578125 -25.859375 32.59375 -30.5 35.703125 -34.609375 L 24.234375 -34.609375 C 29.25 -30.65625 29.171875 -25.28125 24.734375 -14.234375 L 20.921875 -4.859375 C 20.921875 -6.53125 10.703125 -25.46875 13.421875 -34.609375 L -0.421875 -34.609375 C 7.3125 -21.8125 13.296875 -1.5625 13.296875 0.78125 Z M 13.296875 0.78125 "/></g></g></g><g fill="#483d43" fill-opacity="1"><g transform="translate(366.951259, 509.538496)"><g><path d="M 1.171875 0 L 29.359375 0 C 28.46875 -4.046875 28.046875 -7.234375 27.765625 -11.90625 C 25.546875 -4.59375 19.015625 -1.171875 11.9375 -1.171875 C 10.921875 -6.21875 10.421875 -11.75 10.421875 -16.140625 C 10.421875 -16.484375 10.65625 -16.71875 11.046875 -16.71875 L 13.921875 -16.71875 C 17.421875 -16.71875 20.109375 -15.59375 23.109375 -11.3125 C 22.75 -16.03125 22.75 -18.625 23.109375 -23.296875 C 20.03125 -18.9375 17.46875 -17.890625 13.921875 -17.890625 L 11.046875 -17.890625 C 10.703125 -17.890625 10.46875 -18.15625 10.46875 -18.515625 C 10.578125 -24.578125 11.078125 -29.203125 11.9375 -33.453125 C 19.0625 -33.453125 25.546875 -30.0625 27.765625 -22.71875 C 28.046875 -27.375 28.46875 -30.578125 29.359375 -34.609375 L 1.171875 -34.609375 C 3.546875 -24 3.546875 -10.625 1.171875 0 Z M 1.171875 0 "/></g></g></g><g fill="#483d43" fill-opacity="1"><g transform="translate(400.240237, 509.538496)"><g><path d="M 12.171875 0 C 11.359375 -3.765625 10.5 -9.765625 10.46875 -15.203125 L 14.28125 -15.203125 C 17.546875 -9.5625 18.78125 -3.578125 18.46875 0 L 32.171875 0 C 29.015625 -3.03125 24.546875 -10.265625 21.59375 -15.984375 C 35.859375 -19.53125 34.109375 -34.578125 15.046875 -34.609375 L 1.203125 -34.609375 C 3.546875 -24 3.546875 -10.625 1.171875 0 Z M 10.421875 -16.609375 C 10.421875 -24.78125 11.59375 -33.296875 16.453125 -33.296875 C 19.953125 -33.296875 21.703125 -29.75 22.328125 -26.796875 C 23.5 -21.046875 20.453125 -16.609375 14.15625 -16.609375 Z M 10.421875 -16.609375 "/></g></g></g><g fill="#483d43" fill-opacity="1"><g transform="translate(435.318296, 509.538496)"><g><path d="M -1.9375 -34.609375 C 1.28125 -32.859375 10.734375 -15.71875 12.015625 -10.890625 C 11.828125 -6.734375 11.234375 -3.96875 10.390625 0 L 21.390625 0 C 20.375 -4.625 19.796875 -8.171875 19.640625 -13.0625 C 22.28125 -20.0625 27.21875 -30.265625 32.4375 -34.609375 L 21 -34.609375 C 24.1875 -30.265625 22.328125 -22.40625 18.9375 -14.625 C 15.953125 -19.84375 11.390625 -27.84375 11.90625 -34.609375 Z M -1.9375 -34.609375 "/></g></g></g><g clip-path="url(#b54f34683a)"><path fill="#878d5d" d="M 472.097656 234.730469 C 472.097656 350.488281 378.261719 444.328125 262.5 444.328125 C 146.742188 444.328125 52.898438 350.488281 52.898438 234.730469 C 52.898438 118.972656 146.742188 25.128906 262.5 25.128906 C 378.261719 25.128906 472.097656 118.972656 472.097656 234.730469 " fill-opacity="1" fill-rule="nonzero"/></g><path fill="#ffffff" d="M 175.726562 279.945312 C 175.632812 279.945312 175.539062 279.941406 175.441406 279.933594 C 173.667969 279.777344 172.359375 278.214844 172.511719 276.441406 L 175.191406 245.730469 C 175.347656 243.960938 176.910156 242.648438 178.683594 242.800781 C 180.457031 242.957031 181.769531 244.519531 181.613281 246.292969 L 178.933594 277.003906 C 178.785156 278.679688 177.378906 279.945312 175.726562 279.945312 " fill-opacity="1" fill-rule="nonzero"/><path fill="#ffffff" d="M 310.1875 198.738281 C 310.09375 198.738281 310 198.734375 309.902344 198.726562 C 308.128906 198.570312 306.820312 197.007812 306.972656 195.234375 L 309.152344 170.292969 L 188.246094 170.292969 L 186.773438 187.175781 C 186.617188 188.949219 185.054688 190.261719 183.28125 190.105469 C 181.511719 189.949219 180.199219 188.386719 180.351562 186.613281 L 182.082031 166.789062 C 182.230469 165.125 183.621094 163.847656 185.292969 163.847656 L 312.664062 163.847656 C 313.570312 163.847656 314.433594 164.226562 315.042969 164.890625 C 315.652344 165.558594 315.953125 166.453125 315.875 167.351562 L 313.394531 195.796875 C 313.246094 197.476562 311.839844 198.738281 310.1875 198.738281 " fill-opacity="1" fill-rule="nonzero"/><path fill="#ffffff" d="M 368.445312 279.945312 C 368.351562 279.945312 368.257812 279.941406 368.164062 279.933594 C 366.390625 279.777344 365.078125 278.214844 365.234375 276.441406 L 368.152344 243.019531 C 369.1875 231.132812 365.542969 219.984375 357.878906 211.625 C 350.265625 203.3125 339.5625 198.738281 327.75 198.738281 L 313.136719 198.738281 L 306.304688 277.003906 C 306.152344 278.777344 304.585938 280.089844 302.816406 279.933594 C 301.042969 279.777344 299.730469 278.214844 299.886719 276.441406 L 306.972656 195.234375 C 307.121094 193.570312 308.515625 192.292969 310.183594 192.292969 L 327.75 192.292969 C 334.632812 192.292969 341.199219 193.644531 347.269531 196.304688 C 353.15625 198.878906 358.324219 202.566406 362.628906 207.269531 C 366.960938 211.992188 370.203125 217.496094 372.269531 223.628906 C 374.398438 229.957031 375.175781 236.667969 374.570312 243.582031 L 371.652344 277.003906 C 371.507812 278.679688 370.101562 279.945312 368.445312 279.945312 " fill-opacity="1" fill-rule="nonzero"/><path fill="#ffffff" d="M 324.742188 211.449219 L 322.21875 240.351562 L 355.558594 240.101562 C 355.539062 232.746094 352.960938 225.933594 348.160156 220.671875 C 342.734375 214.726562 335.089844 211.449219 326.640625 211.449219 Z M 318.699219 246.824219 C 317.800781 246.824219 316.945312 246.449219 316.332031 245.789062 C 315.71875 245.121094 315.410156 244.226562 315.488281 243.324219 L 318.578125 207.949219 C 318.722656 206.285156 320.117188 205.007812 321.789062 205.007812 L 326.640625 205.007812 C 336.921875 205.007812 346.257812 209.027344 352.917969 216.328125 C 359.582031 223.625 362.753906 233.304688 361.855469 243.582031 C 361.710938 245.234375 360.332031 246.507812 358.671875 246.519531 L 318.726562 246.824219 C 318.71875 246.824219 318.710938 246.824219 318.699219 246.824219 " fill-opacity="1" fill-rule="nonzero"/><path fill="#ffffff" d="M 370.324219 291.546875 L 353.761719 291.546875 C 351.984375 291.546875 350.539062 290.105469 350.539062 288.324219 C 350.539062 286.542969 351.984375 285.101562 353.761719 285.101562 L 370.324219 285.101562 C 371.066406 285.101562 371.796875 284.800781 372.390625 284.253906 C 372.992188 283.703125 373.355469 282.988281 373.421875 282.242188 C 373.476562 281.601562 373.296875 281.011719 372.910156 280.589844 C 372.636719 280.296875 372.148438 279.945312 371.335938 279.945312 L 354.773438 279.945312 C 352.996094 279.945312 351.554688 278.503906 351.554688 276.722656 C 351.554688 274.941406 352.996094 273.5 354.773438 273.5 L 371.335938 273.5 C 373.796875 273.5 376.042969 274.472656 377.660156 276.238281 C 379.28125 278.007812 380.054688 280.339844 379.839844 282.804688 C 379.636719 285.152344 378.542969 287.351562 376.757812 288.996094 C 374.972656 290.640625 372.6875 291.546875 370.324219 291.546875 " fill-opacity="1" fill-rule="nonzero"/><path fill="#ffffff" d="M 315.753906 291.546875 L 235.46875 291.546875 C 233.6875 291.546875 232.246094 290.105469 232.246094 288.324219 C 232.246094 286.542969 233.6875 285.101562 235.46875 285.101562 L 315.753906 285.101562 C 317.53125 285.101562 318.976562 286.542969 318.976562 288.324219 C 318.976562 290.105469 317.53125 291.546875 315.753906 291.546875 " fill-opacity="1" fill-rule="nonzero"/><path fill="#ffffff" d="M 316.765625 279.945312 L 236.480469 279.945312 C 234.703125 279.945312 233.257812 278.503906 233.257812 276.722656 C 233.257812 274.941406 234.703125 273.5 236.480469 273.5 L 316.765625 273.5 C 318.546875 273.5 319.988281 274.941406 319.988281 276.722656 C 319.988281 278.503906 318.546875 279.945312 316.765625 279.945312 " fill-opacity="1" fill-rule="nonzero"/><path fill="#ffffff" d="M 197.460938 291.546875 L 171.816406 291.546875 C 169.355469 291.546875 167.109375 290.574219 165.492188 288.808594 C 163.871094 287.039062 163.097656 284.707031 163.3125 282.242188 C 163.515625 279.894531 164.613281 277.691406 166.394531 276.050781 C 168.183594 274.40625 170.464844 273.5 172.828125 273.5 L 198.472656 273.5 C 200.25 273.5 201.695312 274.941406 201.695312 276.722656 C 201.695312 278.503906 200.25 279.945312 198.472656 279.945312 L 172.828125 279.945312 C 172.089844 279.945312 171.355469 280.246094 170.761719 280.792969 C 170.164062 281.34375 169.796875 282.058594 169.730469 282.804688 C 169.675781 283.445312 169.859375 284.035156 170.246094 284.453125 C 170.515625 284.75 171.007812 285.101562 171.816406 285.101562 L 197.460938 285.101562 C 199.238281 285.101562 200.679688 286.542969 200.679688 288.324219 C 200.679688 290.105469 199.238281 291.546875 197.460938 291.546875 " fill-opacity="1" fill-rule="nonzero"/><path fill="#ffffff" d="M 218.703125 265.878906 C 209.378906 265.878906 201.128906 273.472656 200.316406 282.804688 C 199.929688 287.210938 201.273438 291.335938 204.097656 294.417969 C 206.902344 297.480469 210.859375 299.167969 215.234375 299.167969 C 224.5625 299.167969 232.808594 291.574219 233.625 282.242188 C 234.007812 277.832031 232.667969 273.707031 229.84375 270.628906 C 227.039062 267.566406 223.082031 265.878906 218.703125 265.878906 Z M 215.234375 305.609375 C 209.03125 305.609375 203.386719 303.183594 199.347656 298.773438 C 195.289062 294.34375 193.351562 288.476562 193.894531 282.242188 C 194.429688 276.132812 197.296875 270.402344 201.96875 266.105469 C 206.644531 261.804688 212.585938 259.4375 218.703125 259.4375 C 224.910156 259.4375 230.550781 261.863281 234.59375 266.273438 C 238.652344 270.703125 240.589844 276.570312 240.042969 282.804688 C 239.511719 288.914062 236.644531 294.644531 231.972656 298.941406 C 227.296875 303.242188 221.351562 305.609375 215.234375 305.609375 " fill-opacity="1" fill-rule="nonzero"/><path fill="#ffffff" d="M 223.484375 282.523438 L 223.488281 282.523438 Z M 217.539062 279.230469 C 215.609375 279.230469 213.832031 280.867188 213.664062 282.804688 C 213.589844 283.636719 213.832031 284.40625 214.34375 284.960938 C 214.847656 285.511719 215.578125 285.816406 216.402344 285.816406 C 218.332031 285.816406 220.105469 284.179688 220.273438 282.242188 C 220.347656 281.410156 220.105469 280.640625 219.59375 280.085938 C 219.089844 279.535156 218.359375 279.230469 217.539062 279.230469 Z M 216.402344 292.261719 C 213.75 292.261719 211.332031 291.214844 209.59375 289.316406 C 207.847656 287.410156 207.011719 284.898438 207.246094 282.242188 C 207.464844 279.699219 208.652344 277.320312 210.582031 275.542969 C 212.519531 273.765625 214.988281 272.785156 217.539062 272.785156 C 220.1875 272.785156 222.605469 273.832031 224.347656 275.730469 C 226.09375 277.636719 226.925781 280.148438 226.695312 282.804688 C 226.472656 285.347656 225.289062 287.726562 223.355469 289.5 C 221.421875 291.28125 218.953125 292.261719 216.402344 292.261719 " fill-opacity="1" fill-rule="nonzero"/><path fill="#ffffff" d="M 335.832031 279.230469 C 333.898438 279.230469 332.128906 280.867188 331.957031 282.804688 C 331.886719 283.636719 332.128906 284.40625 332.636719 284.960938 C 333.144531 285.511719 333.875 285.816406 334.695312 285.816406 C 336.625 285.816406 338.402344 284.179688 338.570312 282.242188 C 338.640625 281.410156 338.402344 280.640625 337.890625 280.085938 C 337.382812 279.535156 336.65625 279.230469 335.832031 279.230469 Z M 334.695312 292.261719 C 332.046875 292.261719 329.628906 291.214844 327.886719 289.316406 C 326.140625 287.410156 325.304688 284.898438 325.539062 282.242188 C 325.757812 279.699219 326.945312 277.320312 328.878906 275.542969 C 330.8125 273.765625 333.28125 272.785156 335.832031 272.785156 C 338.484375 272.785156 340.898438 273.832031 342.640625 275.730469 C 344.386719 277.636719 345.222656 280.148438 344.988281 282.804688 C 344.769531 285.347656 343.582031 287.726562 341.648438 289.5 C 339.714844 291.28125 337.246094 292.261719 334.695312 292.261719 " fill-opacity="1" fill-rule="nonzero"/><path fill="#ffffff" d="M 337 265.878906 C 327.671875 265.878906 319.421875 273.472656 318.609375 282.804688 C 318.222656 287.210938 319.566406 291.335938 322.390625 294.417969 C 325.195312 297.480469 329.152344 299.167969 333.527344 299.167969 C 342.855469 299.167969 351.105469 291.574219 351.917969 282.242188 C 352.304688 277.832031 350.960938 273.707031 348.136719 270.628906 C 345.328125 267.566406 341.375 265.878906 337 265.878906 Z M 333.527344 305.609375 C 327.324219 305.609375 321.679688 303.183594 317.640625 298.773438 C 313.582031 294.34375 311.644531 288.476562 312.191406 282.242188 C 312.722656 276.132812 315.589844 270.402344 320.261719 266.105469 C 324.9375 261.804688 330.882812 259.4375 337 259.4375 C 343.203125 259.4375 348.847656 261.863281 352.886719 266.273438 C 356.945312 270.703125 358.882812 276.570312 358.335938 282.804688 C 357.804688 288.914062 354.9375 294.644531 350.265625 298.941406 C 345.589844 303.242188 339.644531 305.609375 333.527344 305.609375 " fill-opacity="1" fill-rule="nonzero"/><path fill="#ffffff" d="M 206.3125 190.117188 L 151.785156 190.117188 C 150.007812 190.117188 148.5625 188.675781 148.5625 186.894531 C 148.5625 185.117188 150.007812 183.671875 151.785156 183.671875 L 206.3125 183.671875 C 208.089844 183.671875 209.535156 185.117188 209.535156 186.894531 C 209.535156 188.675781 208.089844 190.117188 206.3125 190.117188 " fill-opacity="1" fill-rule="nonzero"/><path fill="#ffffff" d="M 235.058594 190.117188 L 218.890625 190.117188 C 217.109375 190.117188 215.667969 188.675781 215.667969 186.894531 C 215.667969 185.117188 217.109375 183.671875 218.890625 183.671875 L 235.058594 183.671875 C 236.835938 183.671875 238.28125 185.117188 238.28125 186.894531 C 238.28125 188.675781 236.835938 190.117188 235.058594 190.117188 " fill-opacity="1" fill-rule="nonzero"/><path fill="#ffffff" d="M 180.25 209.824219 L 161.191406 209.824219 C 159.410156 209.824219 157.96875 208.378906 157.96875 206.601562 C 157.96875 204.820312 159.410156 203.378906 161.191406 203.378906 L 180.25 203.378906 C 182.03125 203.378906 183.472656 204.820312 183.472656 206.601562 C 183.472656 208.378906 182.03125 209.824219 180.25 209.824219 " fill-opacity="1" fill-rule="nonzero"/><path fill="#ffffff" d="M 244.460938 209.824219 L 192.828125 209.824219 C 191.050781 209.824219 189.605469 208.378906 189.605469 206.601562 C 189.605469 204.820312 191.050781 203.378906 192.828125 203.378906 L 244.460938 203.378906 C 246.242188 203.378906 247.683594 204.820312 247.683594 206.601562 C 247.683594 208.378906 246.242188 209.824219 244.460938 209.824219 " fill-opacity="1" fill-rule="nonzero"/><path fill="#ffffff" d="M 162.710938 229.527344 L 148.347656 229.527344 C 146.566406 229.527344 145.125 228.085938 145.125 226.308594 C 145.125 224.527344 146.566406 223.082031 148.347656 223.082031 L 162.710938 223.082031 C 164.492188 223.082031 165.933594 224.527344 165.933594 226.308594 C 165.933594 228.085938 164.492188 229.527344 162.710938 229.527344 " fill-opacity="1" fill-rule="nonzero"/><path fill="#ffffff" d="M 231.617188 229.527344 L 175.289062 229.527344 C 173.507812 229.527344 172.066406 228.085938 172.066406 226.308594 C 172.066406 224.527344 173.507812 223.082031 175.289062 223.082031 L 231.617188 223.082031 C 233.398438 223.082031 234.839844 224.527344 234.839844 226.308594 C 234.839844 228.085938 233.398438 229.527344 231.617188 229.527344 " fill-opacity="1" fill-rule="nonzero"/><path fill="#ffffff" d="M 199.253906 249.234375 L 156.480469 249.234375 C 154.699219 249.234375 153.257812 247.792969 153.257812 246.011719 C 153.257812 244.230469 154.699219 242.789062 156.480469 242.789062 L 199.253906 242.789062 C 201.035156 242.789062 202.476562 244.230469 202.476562 246.011719 C 202.476562 247.792969 201.035156 249.234375 199.253906 249.234375 " fill-opacity="1" fill-rule="nonzero"/><path fill="#ffffff" d="M 239.75 249.234375 L 211.832031 249.234375 C 210.054688 249.234375 208.609375 247.792969 208.609375 246.011719 C 208.609375 244.230469 210.054688 242.789062 211.832031 242.789062 L 239.75 242.789062 C 241.53125 242.789062 242.972656 244.230469 242.972656 246.011719 C 242.972656 247.792969 241.53125 249.234375 239.75 249.234375 " fill-opacity="1" fill-rule="nonzero"/></svg>