<svg xmlns="http://www.w3.org/2000/svg" xmlns:xlink="http://www.w3.org/1999/xlink" width="450" zoomAndPan="magnify" viewBox="0 0 337.5 37.5" height="50" preserveAspectRatio="xMidYMid meet" version="1.0"><defs><g/></defs><g fill="#483d43" fill-opacity="1"><g transform="translate(2.357753, 26.011352)"><g><path d="M 0.65625 0 L 6.78125 0 C 6.328125 -2.109375 6.03125 -4.375 5.890625 -6.71875 L 8.390625 -6.71875 C 19.78125 -6.734375 20.390625 -19.265625 8.390625 -19.28125 L 0.671875 -19.28125 C 1.96875 -13.375 1.96875 -5.921875 0.65625 0 Z M 5.828125 -10.796875 C 5.828125 -13.109375 5.9375 -18.5625 9.0625 -18.5625 C 10.71875 -18.5625 11.671875 -17.328125 12.171875 -15.84375 C 13.671875 -11.46875 10.8125 -7.5 7.953125 -7.5 L 5.84375 -7.5 C 5.8125 -8.96875 5.828125 -9.515625 5.828125 -10.796875 Z M 5.828125 -10.796875 "/></g></g></g><g fill="#483d43" fill-opacity="1"><g transform="translate(21.287314, 26.011352)"><g><path d="M 6.78125 0 C 5.484375 -5.921875 5.484375 -13.375 6.78125 -19.28125 L 0.65625 -19.28125 C 1.96875 -13.375 1.96875 -5.921875 0.65625 0 Z M 6.78125 0 "/></g></g></g><g fill="#483d43" fill-opacity="1"><g transform="translate(30.469444, 26.011352)"><g><path d="M 7.75 0.09375 C 8.796875 0.34375 9.578125 0.453125 10.265625 0.453125 C 11.5 0.453125 12.484375 0.125 14.21875 -0.1875 C 14.609375 -0.265625 15.0625 -0.296875 15.515625 -0.296875 C 16.1875 -0.296875 16.90625 -0.21875 17.546875 -0.0625 L 17.765625 0 C 17.421875 -1.6875 17.203125 -3.125 17.046875 -4.890625 C 16.203125 -2.453125 13.5 -0.296875 11 -0.296875 C 8.515625 -0.296875 6.21875 -2.46875 6.21875 -8.6875 C 6.21875 -14.640625 9.453125 -18.8125 12.390625 -18.8125 C 14.359375 -18.8125 16.234375 -16.921875 16.859375 -12.421875 C 17.015625 -14.84375 17.3125 -17.140625 17.765625 -19.28125 L 17.546875 -19.21875 C 17.046875 -19.109375 16.515625 -19.046875 15.953125 -19.046875 C 15.140625 -19.046875 14.34375 -19.15625 13.671875 -19.375 C 13.015625 -19.59375 12.15625 -19.71875 10.703125 -19.71875 C 4.71875 -19.703125 0.65625 -14.90625 0.65625 -9.34375 C 0.65625 -5.171875 3.421875 -0.96875 7.75 0.09375 Z M 7.75 0.09375 "/></g></g></g><g fill="#483d43" fill-opacity="1"><g transform="translate(50.308762, 26.011352)"><g><path d="M 6.78125 0 C 6.234375 -2.515625 5.921875 -5.3125 5.828125 -8.84375 C 8.03125 -7.296875 10.65625 -3.140625 10.765625 0 L 18.15625 0 C 16.65625 -1.4375 12.5625 -6.84375 10.90625 -11.09375 C 10.25 -10.828125 9.203125 -10.609375 8.34375 -10.609375 C 8.03125 -10.609375 7.75 -10.640625 7.515625 -10.703125 C 7.078125 -10.515625 14.515625 -17.984375 16.078125 -19.28125 L 10.09375 -19.28125 C 10.640625 -17.015625 8.984375 -12.609375 5.8125 -10.015625 C 5.765625 -12.5625 6.09375 -16.140625 6.78125 -19.28125 L 0.65625 -19.28125 C 1.96875 -13.375 1.96875 -5.921875 0.65625 0 Z M 6.78125 0 "/></g></g></g><g fill="#483d43" fill-opacity="1"><g transform="translate(70.213069, 26.011352)"><g><path d="M 6.4375 -8.140625 C 7.296875 -7.71875 8.609375 -7.125 9.703125 -6.375 C 13.171875 -3.984375 11.203125 -0.234375 8.109375 -0.234375 C 6.03125 -0.234375 2.796875 -1.890625 1.34375 -6.625 C 1.140625 -3.640625 0.78125 -1.53125 0.4375 0 C 1.0625 -0.28125 1.6875 -0.34375 2.296875 -0.296875 C 3.796875 -0.1875 6.109375 0.4375 8.140625 0.4375 C 9.96875 0.4375 11.765625 0.0625 13.171875 -0.65625 C 15.171875 -1.640625 16.65625 -3.484375 16.65625 -5.78125 C 16.640625 -9.5625 12.09375 -10.96875 8.5625 -12.53125 C 3.078125 -14.921875 6.203125 -19.03125 8.46875 -19.03125 C 10.546875 -19.03125 12.953125 -17.40625 14.40625 -12.65625 C 14.578125 -15.640625 14.953125 -17.75 15.296875 -19.28125 C 14.671875 -19 14.0625 -18.9375 13.4375 -18.984375 C 11.953125 -19.09375 10.15625 -19.703125 8.125 -19.703125 C 4.484375 -19.71875 0.4375 -17.96875 0.4375 -14.515625 C 0.4375 -11.28125 3.515625 -9.5625 6.4375 -8.140625 Z M 6.4375 -8.140625 "/></g></g></g><g fill="#483d43" fill-opacity="1"><g transform="translate(88.622769, 26.011352)"><g/></g></g><g fill="#483d43" fill-opacity="1"><g transform="translate(96.007037, 26.011352)"><g><path d="M 10.078125 0.4375 C 15.640625 0.4375 19.5 -4.078125 19.5 -9.640625 C 19.5 -15.203125 15.640625 -19.71875 10.078125 -19.71875 C 4.5 -19.71875 0.65625 -15.203125 0.65625 -9.640625 C 0.65625 -4.078125 4.5 0.4375 10.078125 0.4375 Z M 5.984375 -9.96875 C 7.125 -16.125 9.453125 -18.890625 11.328125 -18.890625 C 13.484375 -18.890625 15.109375 -15.390625 13.953125 -9.171875 C 13.15625 -4.703125 10.9375 -0.390625 7.90625 -0.390625 C 5.453125 -0.390625 5.09375 -5.25 5.984375 -9.96875 Z M 5.984375 -9.96875 "/></g></g></g><g fill="#483d43" fill-opacity="1"><g transform="translate(117.904146, 26.011352)"><g><path d="M 0.65625 0 L 6.78125 0 C 6.125 -2.984375 5.8125 -6.34375 5.8125 -8.984375 C 5.8125 -9.1875 5.9375 -9.3125 6.15625 -9.3125 L 7.75 -9.3125 C 9.703125 -9.3125 11.203125 -8.6875 12.875 -6.3125 C 12.671875 -8.921875 12.671875 -10.375 12.875 -12.984375 C 11.15625 -10.546875 9.734375 -9.96875 7.75 -9.96875 L 6.15625 -9.96875 C 5.953125 -9.96875 5.828125 -10.125 5.828125 -10.3125 C 5.890625 -13.6875 6.171875 -16.265625 6.65625 -18.640625 C 10.609375 -18.640625 14.234375 -16.75 15.46875 -12.65625 C 15.625 -15.25 15.859375 -17.03125 16.359375 -19.28125 L 0.65625 -19.28125 C 1.96875 -13.375 1.96875 -5.921875 0.65625 0 Z M 0.65625 0 "/></g></g></g><g fill="#483d43" fill-opacity="1"><g transform="translate(136.227202, 26.011352)"><g/></g></g><g fill="#878d5d" fill-opacity="1"><g transform="translate(143.618811, 26.011352)"><g><path d="M 0 -19.28125 C 0.5625 -16.765625 0.78125 -14.859375 0.9375 -11.75 C 1.640625 -14.890625 2.734375 -18.640625 5.890625 -18.640625 C 6.375 -16.265625 6.65625 -13.6875 6.734375 -10.3125 C 6.78125 -6.734375 6.40625 -3.15625 5.703125 0 L 11.828125 0 C 11.109375 -3.234375 10.796875 -6.78125 10.828125 -10.3125 C 10.90625 -13.6875 11.1875 -16.265625 11.65625 -18.640625 C 14.90625 -18.640625 15.90625 -14.859375 16.625 -11.703125 C 16.765625 -14.84375 17.015625 -16.765625 17.578125 -19.28125 Z M 0 -19.28125 "/></g></g></g><g fill="#878d5d" fill-opacity="1"><g transform="translate(162.938269, 26.011352)"><g><path d="M 0.65625 0 L 6.78125 0 C 6.15625 -2.859375 5.828125 -6.09375 5.8125 -9.34375 L 13.234375 -9.34375 C 13.21875 -6.09375 12.890625 -2.859375 12.234375 0 L 18.375 0 C 17.078125 -5.921875 17.078125 -13.375 18.375 -19.28125 L 12.234375 -19.28125 C 12.875 -16.421875 13.21875 -13.21875 13.234375 -9.984375 L 5.8125 -9.984375 C 5.828125 -13.21875 6.15625 -16.421875 6.78125 -19.28125 L 0.65625 -19.28125 C 1.96875 -13.375 1.96875 -5.921875 0.65625 0 Z M 0.65625 0 "/></g></g></g><g fill="#878d5d" fill-opacity="1"><g transform="translate(183.709011, 26.011352)"><g><path d="M 0.65625 0 L 16.359375 0 C 15.859375 -2.25 15.625 -4.03125 15.46875 -6.625 C 14.234375 -2.5625 10.59375 -0.65625 6.65625 -0.65625 C 6.09375 -3.46875 5.8125 -6.546875 5.8125 -8.984375 C 5.8125 -9.1875 5.9375 -9.3125 6.15625 -9.3125 L 7.75 -9.3125 C 9.703125 -9.3125 11.203125 -8.6875 12.875 -6.3125 C 12.671875 -8.921875 12.671875 -10.375 12.875 -12.984375 C 11.15625 -10.546875 9.734375 -9.96875 7.75 -9.96875 L 6.15625 -9.96875 C 5.953125 -9.96875 5.828125 -10.125 5.828125 -10.3125 C 5.890625 -13.6875 6.171875 -16.265625 6.65625 -18.640625 C 10.609375 -18.640625 14.234375 -16.75 15.46875 -12.65625 C 15.625 -15.25 15.859375 -17.03125 16.359375 -19.28125 L 0.65625 -19.28125 C 1.96875 -13.375 1.96875 -5.921875 0.65625 0 Z M 0.65625 0 "/></g></g></g><g fill="#483d43" fill-opacity="1"><g transform="translate(202.251111, 26.011352)"><g/></g></g><g fill="#483d43" fill-opacity="1"><g transform="translate(209.635381, 26.011352)"><g><path d="M 0.65625 0 L 5.09375 0 C 2.984375 -3.578125 2.1875 -7.015625 2.3125 -11.09375 C 2.359375 -12.5 2.453125 -13.90625 2.59375 -15.28125 C 6.890625 -9.234375 9.625 -2.25 10.25 0 L 16.625 -15.296875 C 17.203125 -10.25 16.984375 -4.640625 15.953125 0 L 22.078125 0 C 20.78125 -5.921875 20.78125 -13.375 22.078125 -19.28125 L 17.59375 -19.28125 L 12.8125 -7.625 C 10.203125 -11.046875 7.78125 -15.5 6.78125 -19.28125 L 0.65625 -19.28125 C 1.96875 -13.375 1.96875 -5.921875 0.65625 0 Z M 0.65625 0 "/></g></g></g><g fill="#483d43" fill-opacity="1"><g transform="translate(234.110147, 26.011352)"><g><path d="M 10.078125 0.4375 C 15.640625 0.4375 19.5 -4.078125 19.5 -9.640625 C 19.5 -15.203125 15.640625 -19.71875 10.078125 -19.71875 C 4.5 -19.71875 0.65625 -15.203125 0.65625 -9.640625 C 0.65625 -4.078125 4.5 0.4375 10.078125 0.4375 Z M 5.984375 -9.96875 C 7.125 -16.125 9.453125 -18.890625 11.328125 -18.890625 C 13.484375 -18.890625 15.109375 -15.390625 13.953125 -9.171875 C 13.15625 -4.703125 10.9375 -0.390625 7.90625 -0.390625 C 5.453125 -0.390625 5.09375 -5.25 5.984375 -9.96875 Z M 5.984375 -9.96875 "/></g></g></g><g fill="#483d43" fill-opacity="1"><g transform="translate(256.007255, 26.011352)"><g><path d="M 1.296875 -7.546875 C 1.296875 -2.40625 5.109375 0.4375 8.796875 0.4375 C 14 0.4375 15.671875 -3.375 15.671875 -7.609375 C 15.671875 -15.984375 16.46875 -17.765625 17.546875 -19.28125 L 11.921875 -19.28125 C 13.875 -17.71875 15.03125 -14.96875 15.03125 -7.609375 C 15.03125 -4.71875 13.953125 -0.625 10.40625 -0.625 C 8.015625 -0.625 5.484375 -2.8125 5.484375 -7.609375 C 5.484375 -13.671875 5.8125 -16.3125 6.453125 -19.28125 L 0.328125 -19.28125 C 1.015625 -16.140625 1.296875 -13.34375 1.296875 -7.546875 Z M 1.296875 -7.546875 "/></g></g></g><g fill="#483d43" fill-opacity="1"><g transform="translate(275.521665, 26.011352)"><g><path d="M 5.09375 0 C 3.640625 -2.484375 2.3125 -6.046875 2.296875 -9.28125 C 2.28125 -11.359375 2.390625 -13.4375 2.625 -15.421875 C 7.34375 -9.84375 13.65625 -2.25 14.28125 0 L 18.375 0 C 17.046875 -5.921875 17.046875 -13.375 18.375 -19.28125 L 13.9375 -19.28125 C 15.40625 -16.921875 16.6875 -13.4375 16.734375 -10.328125 C 16.75 -9.25 16.734375 -8.140625 16.65625 -7.078125 C 14.953125 -8.359375 7.78125 -15.5 6.78125 -19.28125 L 0.65625 -19.28125 C 1.96875 -13.375 1.96875 -5.921875 0.65625 0 Z M 5.09375 0 "/></g></g></g><g fill="#483d43" fill-opacity="1"><g transform="translate(296.292409, 26.011352)"><g><path d="M 0 -19.28125 C 0.5625 -16.765625 0.78125 -14.859375 0.9375 -11.75 C 1.640625 -14.890625 2.734375 -18.640625 5.890625 -18.640625 C 6.375 -16.265625 6.65625 -13.6875 6.734375 -10.3125 C 6.78125 -6.734375 6.40625 -3.15625 5.703125 0 L 11.828125 0 C 11.109375 -3.234375 10.796875 -6.78125 10.828125 -10.3125 C 10.90625 -13.6875 11.1875 -16.265625 11.65625 -18.640625 C 14.90625 -18.640625 15.90625 -14.859375 16.625 -11.703125 C 16.765625 -14.84375 17.015625 -16.765625 17.578125 -19.28125 Z M 0 -19.28125 "/></g></g></g><g fill="#483d43" fill-opacity="1"><g transform="translate(315.61187, 26.011352)"><g><path d="M 0.65625 0 L 6.78125 0 C 6.15625 -2.859375 5.828125 -6.09375 5.8125 -9.34375 L 13.234375 -9.34375 C 13.21875 -6.09375 12.890625 -2.859375 12.234375 0 L 18.375 0 C 17.078125 -5.921875 17.078125 -13.375 18.375 -19.28125 L 12.234375 -19.28125 C 12.875 -16.421875 13.21875 -13.21875 13.234375 -9.984375 L 5.8125 -9.984375 C 5.828125 -13.21875 6.15625 -16.421875 6.78125 -19.28125 L 0.65625 -19.28125 C 1.96875 -13.375 1.96875 -5.921875 0.65625 0 Z M 0.65625 0 "/></g></g></g></svg>