<svg xmlns="http://www.w3.org/2000/svg" xmlns:xlink="http://www.w3.org/1999/xlink" width="200" zoomAndPan="magnify" viewBox="0 0 150 74.999997" height="100" preserveAspectRatio="xMidYMid meet" version="1.0"><defs><g/><clipPath id="7f52d2ec3b"><path d="M 75 0.679688 L 111 0.679688 L 111 56 L 75 56 Z M 75 0.679688 " clip-rule="nonzero"/></clipPath><clipPath id="3e14911fcf"><path d="M 32.691406 1 L 117.441406 1 L 117.441406 59.179688 L 32.691406 59.179688 Z M 32.691406 1 " clip-rule="nonzero"/></clipPath><clipPath id="1392826237"><path d="M 39 0.679688 L 75 0.679688 L 75 56 L 39 56 Z M 39 0.679688 " clip-rule="nonzero"/></clipPath></defs><path fill="#483d43" d="M 104.992188 22.640625 C 104.972656 23.078125 104.648438 23.425781 104.269531 23.390625 C 103.1875 23.328125 102.109375 23.296875 101.058594 23.296875 C 90.136719 23.296875 83.5 26.757812 79.851562 29.65625 C 79.734375 29.753906 79.59375 29.796875 79.460938 29.796875 C 79.242188 29.796875 79.03125 29.679688 78.894531 29.453125 C 78.679688 29.09375 78.753906 28.597656 79.070312 28.34375 C 82.878906 25.316406 89.785156 21.703125 101.058594 21.703125 C 102.128906 21.703125 103.238281 21.738281 104.339844 21.800781 C 104.71875 21.832031 105.011719 22.199219 104.992188 22.640625 " fill-opacity="1" fill-rule="nonzero"/><path fill="#483d43" d="M 105.71875 15.273438 C 105.699219 15.710938 105.363281 16.058594 104.972656 16.03125 C 103.859375 15.964844 102.75 15.929688 101.675781 15.929688 C 90.453125 15.929688 83.628906 19.386719 79.882812 22.296875 C 79.761719 22.386719 79.621094 22.4375 79.480469 22.4375 C 79.253906 22.4375 79.035156 22.316406 78.894531 22.089844 C 78.671875 21.730469 78.753906 21.238281 79.074219 20.984375 C 82.988281 17.957031 90.085938 14.34375 101.675781 14.34375 C 102.769531 14.34375 103.90625 14.371094 105.046875 14.441406 C 105.433594 14.464844 105.734375 14.835938 105.71875 15.273438 " fill-opacity="1" fill-rule="nonzero"/><path fill="#483d43" d="M 105.71875 7.914062 C 105.699219 8.351562 105.363281 8.695312 104.972656 8.667969 C 103.859375 8.605469 102.75 8.570312 101.675781 8.570312 C 90.453125 8.570312 83.628906 12.027344 79.882812 14.929688 C 79.761719 15.027344 79.621094 15.070312 79.480469 15.070312 C 79.253906 15.070312 79.035156 14.949219 78.894531 14.730469 C 78.671875 14.363281 78.753906 13.871094 79.074219 13.625 C 82.988281 10.589844 90.085938 6.976562 101.675781 6.976562 C 102.769531 6.976562 103.90625 7.011719 105.046875 7.074219 C 105.433594 7.09375 105.734375 7.46875 105.71875 7.914062 " fill-opacity="1" fill-rule="nonzero"/><path fill="#483d43" d="M 44.996094 22.640625 C 45.015625 23.078125 45.34375 23.425781 45.722656 23.390625 C 46.804688 23.328125 47.878906 23.296875 48.929688 23.296875 C 59.851562 23.296875 66.488281 26.757812 70.140625 29.65625 C 70.257812 29.753906 70.398438 29.796875 70.53125 29.796875 C 70.75 29.796875 70.960938 29.679688 71.09375 29.453125 C 71.3125 29.09375 71.234375 28.597656 70.921875 28.34375 C 67.109375 25.316406 60.207031 21.703125 48.929688 21.703125 C 47.859375 21.703125 46.753906 21.738281 45.652344 21.800781 C 45.273438 21.832031 44.980469 22.199219 44.996094 22.640625 " fill-opacity="1" fill-rule="nonzero"/><path fill="#483d43" d="M 44.273438 15.273438 C 44.292969 15.710938 44.625 16.058594 45.015625 16.03125 C 46.132812 15.964844 47.238281 15.929688 48.316406 15.929688 C 59.539062 15.929688 66.359375 19.386719 70.109375 22.296875 C 70.230469 22.386719 70.371094 22.4375 70.511719 22.4375 C 70.738281 22.4375 70.953125 22.316406 71.09375 22.089844 C 71.320312 21.730469 71.234375 21.238281 70.914062 20.984375 C 67 17.957031 59.90625 14.34375 48.316406 14.34375 C 47.222656 14.34375 46.085938 14.371094 44.945312 14.441406 C 44.554688 14.464844 44.253906 14.835938 44.273438 15.273438 " fill-opacity="1" fill-rule="nonzero"/><path fill="#483d43" d="M 44.273438 7.914062 C 44.292969 8.351562 44.625 8.695312 45.015625 8.667969 C 46.132812 8.605469 47.238281 8.570312 48.316406 8.570312 C 59.539062 8.570312 66.359375 12.027344 70.109375 14.929688 C 70.230469 15.027344 70.371094 15.070312 70.511719 15.070312 C 70.738281 15.070312 70.953125 14.949219 71.09375 14.730469 C 71.320312 14.363281 71.234375 13.871094 70.914062 13.625 C 67 10.589844 59.90625 6.976562 48.316406 6.976562 C 47.222656 6.976562 46.085938 7.011719 44.945312 7.074219 C 44.554688 7.09375 44.253906 7.46875 44.273438 7.914062 " fill-opacity="1" fill-rule="nonzero"/><g clip-path="url(#7f52d2ec3b)"><path fill="#483d43" d="M 77.199219 9.621094 C 77.714844 9.191406 78.28125 8.761719 78.878906 8.34375 C 83.03125 5.492188 90.582031 2.09375 103.035156 2.09375 C 105.042969 2.09375 107.109375 2.183594 109.203125 2.351562 L 106.246094 46.515625 C 104.09375 46.347656 101.992188 46.253906 99.988281 46.253906 C 91.386719 46.253906 84.355469 47.871094 79.097656 51.070312 C 78.429688 51.46875 77.792969 51.894531 77.199219 52.34375 Z M 79.824219 52.273438 C 83.707031 49.917969 90.03125 47.667969 99.988281 47.667969 C 102.316406 47.667969 104.835938 47.785156 107.558594 48.054688 L 110.636719 2.035156 L 110.699219 1.074219 C 107.96875 0.800781 105.414062 0.679688 103.035156 0.679688 C 90.074219 0.679688 82.246094 4.316406 78.082031 7.179688 C 77.136719 7.835938 76.375 8.449219 75.789062 8.972656 L 75.789062 55.484375 C 76.671875 54.546875 77.96875 53.398438 79.824219 52.273438 " fill-opacity="1" fill-rule="nonzero"/></g><path fill="#483d43" d="M 79.824219 44.386719 C 83.359375 41.484375 89.816406 38.019531 100.417969 38.019531 C 101.4375 38.019531 102.488281 38.054688 103.539062 38.117188 C 103.90625 38.148438 104.21875 37.808594 104.242188 37.363281 C 104.261719 36.925781 103.976562 36.550781 103.609375 36.53125 C 102.53125 36.46875 101.464844 36.433594 100.417969 36.433594 C 89.464844 36.433594 82.757812 40.042969 79.0625 43.074219 C 78.753906 43.320312 78.679688 43.820312 78.890625 44.179688 C 79.019531 44.40625 79.230469 44.527344 79.441406 44.527344 C 79.574219 44.527344 79.703125 44.484375 79.824219 44.386719 " fill-opacity="1" fill-rule="nonzero"/><path fill="#483d43" d="M 79.460938 37.160156 C 79.59375 37.160156 79.734375 37.117188 79.851562 37.023438 C 83.5 34.125 90.136719 30.660156 101.058594 30.660156 C 102.109375 30.660156 103.1875 30.6875 104.269531 30.75 C 104.648438 30.785156 104.972656 30.441406 104.992188 30.003906 C 105.011719 29.566406 104.71875 29.191406 104.339844 29.171875 C 103.238281 29.101562 102.128906 29.0625 101.058594 29.0625 C 89.785156 29.0625 82.878906 32.675781 79.070312 35.710938 C 78.753906 35.957031 78.679688 36.460938 78.894531 36.820312 C 79.03125 37.046875 79.242188 37.160156 79.460938 37.160156 " fill-opacity="1" fill-rule="nonzero"/><g clip-path="url(#3e14911fcf)"><path fill="#483d43" d="M 111.828125 2.132812 L 108.757812 48.140625 L 108.675781 49.367188 L 107.449219 49.246094 C 104.851562 48.988281 102.34375 48.859375 99.988281 48.859375 C 91.78125 48.859375 86.15625 50.40625 82.367188 52.246094 C 79.566406 53.609375 77.773438 55.125 76.671875 56.304688 L 75.789062 57.25 L 74.203125 57.25 L 73.320312 56.304688 C 72.21875 55.125 70.425781 53.609375 67.625 52.246094 C 63.835938 50.40625 58.210938 48.859375 50.003906 48.859375 C 47.644531 48.859375 45.140625 48.988281 42.542969 49.246094 L 41.316406 49.367188 L 41.230469 48.140625 L 38.160156 2.132812 L 32.714844 1.722656 L 36.890625 52.71875 L 73.03125 59.507812 L 76.960938 59.507812 L 113.101562 52.71875 L 117.277344 1.722656 L 111.828125 2.132812 " fill-opacity="1" fill-rule="nonzero"/></g><g clip-path="url(#1392826237)"><path fill="#483d43" d="M 46.953125 2.09375 C 59.410156 2.09375 66.960938 5.492188 71.109375 8.34375 C 71.710938 8.761719 72.277344 9.191406 72.789062 9.621094 L 72.789062 52.34375 C 72.199219 51.894531 71.5625 51.46875 70.890625 51.070312 C 65.632812 47.871094 58.605469 46.253906 50.003906 46.253906 C 48 46.253906 45.894531 46.347656 43.742188 46.515625 L 40.785156 2.351562 C 42.882812 2.183594 44.949219 2.09375 46.953125 2.09375 Z M 42.429688 48.054688 C 45.15625 47.785156 47.675781 47.667969 50.003906 47.667969 C 59.960938 47.667969 66.285156 49.917969 70.164062 52.273438 C 72.019531 53.398438 73.320312 54.546875 74.203125 55.484375 L 74.203125 8.972656 C 73.617188 8.449219 72.855469 7.835938 71.910156 7.179688 C 67.746094 4.316406 59.917969 0.679688 46.953125 0.679688 C 44.578125 0.679688 42.023438 0.800781 39.289062 1.074219 L 39.355469 2.035156 L 42.429688 48.054688 " fill-opacity="1" fill-rule="nonzero"/></g><path fill="#483d43" d="M 49.570312 36.433594 C 48.527344 36.433594 47.457031 36.46875 46.382812 36.53125 C 46.015625 36.550781 45.726562 36.925781 45.746094 37.363281 C 45.773438 37.808594 46.085938 38.148438 46.453125 38.117188 C 47.503906 38.054688 48.554688 38.019531 49.570312 38.019531 C 60.171875 38.019531 66.628906 41.484375 70.167969 44.386719 C 70.289062 44.484375 70.414062 44.527344 70.550781 44.527344 C 70.761719 44.527344 70.972656 44.40625 71.101562 44.179688 C 71.3125 43.820312 71.234375 43.320312 70.929688 43.074219 C 67.230469 40.042969 60.527344 36.433594 49.570312 36.433594 " fill-opacity="1" fill-rule="nonzero"/><path fill="#483d43" d="M 45.722656 30.75 C 46.804688 30.6875 47.878906 30.660156 48.929688 30.660156 C 59.851562 30.660156 66.488281 34.125 70.140625 37.023438 C 70.257812 37.117188 70.398438 37.160156 70.53125 37.160156 C 70.75 37.160156 70.960938 37.046875 71.09375 36.820312 C 71.3125 36.460938 71.234375 35.957031 70.921875 35.710938 C 67.109375 32.675781 60.207031 29.0625 48.929688 29.0625 C 47.859375 29.0625 46.753906 29.101562 45.652344 29.171875 C 45.273438 29.191406 44.980469 29.566406 44.996094 30.003906 C 45.015625 30.441406 45.34375 30.785156 45.722656 30.75 " fill-opacity="1" fill-rule="nonzero"/><g fill="#483d43" fill-opacity="1"><g transform="translate(34.802328, 71.972262)"><g><path d="M 0.296875 0 L 4.234375 0 C 6.84375 0 8.078125 -1.3125 8.078125 -2.59375 C 8.0625 -3.953125 6.34375 -4.9375 5.109375 -4.921875 C 6.34375 -5.296875 7.25 -6.09375 7.25 -6.890625 C 7.25 -8.4375 5.375 -8.78125 4.25 -8.78125 L 0.296875 -8.78125 C 0.890625 -6.09375 0.890625 -2.6875 0.296875 0 Z M 2.640625 -4.625 C 4.671875 -4.796875 6.5625 -3.71875 5.671875 -1.796875 C 5.296875 -1.03125 4.703125 -0.328125 3.953125 -0.328125 C 3.453125 -0.328125 2.65625 -0.453125 2.640625 -1.859375 Z M 4.21875 -8.484375 C 5.078125 -8.46875 5.4375 -7.40625 5.40625 -6.75 C 5.34375 -5.578125 4.296875 -5 2.640625 -4.921875 L 2.640625 -5.296875 C 2.625 -7.8125 3.828125 -8.484375 4.21875 -8.484375 Z M 4.21875 -8.484375 "/></g></g></g><g fill="#483d43" fill-opacity="1"><g transform="translate(43.364818, 71.972262)"><g><path d="M 4.59375 0.203125 C 7.125 0.203125 8.890625 -1.859375 8.890625 -4.390625 C 8.890625 -6.9375 7.125 -8.984375 4.59375 -8.984375 C 2.046875 -8.984375 0.296875 -6.9375 0.296875 -4.390625 C 0.296875 -1.859375 2.046875 0.203125 4.59375 0.203125 Z M 2.71875 -4.546875 C 3.25 -7.34375 4.296875 -8.609375 5.15625 -8.609375 C 6.140625 -8.609375 6.875 -7.015625 6.359375 -4.171875 C 6 -2.140625 4.984375 -0.171875 3.609375 -0.171875 C 2.484375 -0.171875 2.3125 -2.390625 2.71875 -4.546875 Z M 2.71875 -4.546875 "/></g></g></g><g fill="#483d43" fill-opacity="1"><g transform="translate(53.092262, 71.972262)"><g><path d="M 4.59375 0.203125 C 7.125 0.203125 8.890625 -1.859375 8.890625 -4.390625 C 8.890625 -6.9375 7.125 -8.984375 4.59375 -8.984375 C 2.046875 -8.984375 0.296875 -6.9375 0.296875 -4.390625 C 0.296875 -1.859375 2.046875 0.203125 4.59375 0.203125 Z M 2.71875 -4.546875 C 3.25 -7.34375 4.296875 -8.609375 5.15625 -8.609375 C 6.140625 -8.609375 6.875 -7.015625 6.359375 -4.171875 C 6 -2.140625 4.984375 -0.171875 3.609375 -0.171875 C 2.484375 -0.171875 2.3125 -2.390625 2.71875 -4.546875 Z M 2.71875 -4.546875 "/></g></g></g><g fill="#483d43" fill-opacity="1"><g transform="translate(62.819707, 71.972262)"><g><path d="M 3.09375 0 C 2.84375 -1.140625 2.6875 -2.421875 2.65625 -4.03125 C 3.65625 -3.328125 4.859375 -1.4375 4.90625 0 L 8.265625 0 C 7.59375 -0.65625 5.71875 -3.125 4.96875 -5.0625 C 4.671875 -4.9375 4.203125 -4.84375 3.796875 -4.84375 C 3.65625 -4.84375 3.53125 -4.84375 3.421875 -4.875 C 3.234375 -4.78125 6.609375 -8.1875 7.328125 -8.78125 L 4.59375 -8.78125 C 4.84375 -7.75 4.09375 -5.75 2.640625 -4.5625 C 2.625 -5.71875 2.78125 -7.359375 3.09375 -8.78125 L 0.296875 -8.78125 C 0.890625 -6.09375 0.890625 -2.6875 0.296875 0 Z M 3.09375 0 "/></g></g></g><g fill="#483d43" fill-opacity="1"><g transform="translate(71.638882, 71.972262)"><g/></g></g><g fill="#878d5d" fill-opacity="1"><g transform="translate(74.753169, 71.972262)"><g><path d="M 2.9375 -3.71875 C 3.328125 -3.515625 3.921875 -3.25 4.421875 -2.90625 C 6 -1.8125 5.109375 -0.109375 3.6875 -0.109375 C 2.75 -0.109375 1.28125 -0.859375 0.609375 -3.015625 C 0.515625 -1.65625 0.359375 -0.703125 0.203125 0 C 0.484375 -0.125 0.765625 -0.15625 1.046875 -0.140625 C 1.734375 -0.09375 2.78125 0.203125 3.71875 0.203125 C 4.546875 0.203125 5.359375 0.03125 6 -0.296875 C 6.90625 -0.75 7.59375 -1.59375 7.59375 -2.640625 C 7.578125 -4.359375 5.515625 -5 3.90625 -5.703125 C 1.40625 -6.796875 2.828125 -8.671875 3.859375 -8.671875 C 4.8125 -8.671875 5.90625 -7.921875 6.5625 -5.765625 C 6.640625 -7.125 6.8125 -8.078125 6.96875 -8.78125 C 6.6875 -8.65625 6.40625 -8.625 6.125 -8.640625 C 5.453125 -8.703125 4.625 -8.96875 3.703125 -8.96875 C 2.046875 -8.984375 0.203125 -8.1875 0.203125 -6.609375 C 0.203125 -5.140625 1.59375 -4.359375 2.9375 -3.71875 Z M 2.9375 -3.71875 "/></g></g></g><g fill="#878d5d" fill-opacity="1"><g transform="translate(82.891142, 71.972262)"><g><path d="M 0.296875 0 L 3.09375 0 C 2.796875 -1.296875 2.65625 -2.78125 2.640625 -4.25 L 6.03125 -4.25 C 6.015625 -2.78125 5.875 -1.296875 5.578125 0 L 8.375 0 C 7.78125 -2.6875 7.78125 -6.09375 8.375 -8.78125 L 5.578125 -8.78125 C 5.859375 -7.484375 6.015625 -6.015625 6.03125 -4.546875 L 2.640625 -4.546875 C 2.65625 -6.015625 2.796875 -7.484375 3.09375 -8.78125 L 0.296875 -8.78125 C 0.890625 -6.09375 0.890625 -2.6875 0.296875 0 Z M 0.296875 0 "/></g></g></g><g fill="#878d5d" fill-opacity="1"><g transform="translate(92.105216, 71.972262)"><g><path d="M 0.296875 0 L 7.453125 0 C 7.234375 -1.03125 7.125 -1.84375 7.046875 -3.015625 C 6.484375 -1.171875 4.828125 -0.296875 3.03125 -0.296875 C 2.78125 -1.578125 2.640625 -2.984375 2.640625 -4.09375 C 2.640625 -4.1875 2.703125 -4.25 2.796875 -4.25 L 3.53125 -4.25 C 4.421875 -4.25 5.109375 -3.953125 5.859375 -2.875 C 5.78125 -4.0625 5.78125 -4.734375 5.859375 -5.90625 C 5.078125 -4.8125 4.4375 -4.546875 3.53125 -4.546875 L 2.796875 -4.546875 C 2.71875 -4.546875 2.65625 -4.609375 2.65625 -4.703125 C 2.6875 -6.234375 2.8125 -7.421875 3.03125 -8.484375 C 4.84375 -8.484375 6.484375 -7.625 7.046875 -5.765625 C 7.125 -6.953125 7.234375 -7.765625 7.453125 -8.78125 L 0.296875 -8.78125 C 0.890625 -6.09375 0.890625 -2.6875 0.296875 0 Z M 0.296875 0 "/></g></g></g><g fill="#878d5d" fill-opacity="1"><g transform="translate(100.302425, 71.972262)"><g><path d="M 0.296875 -8.78125 C 0.890625 -6.09375 0.890625 -2.6875 0.296875 0 L 6.84375 0 C 6.625 -1.25 6.53125 -1.671875 6.4375 -3.015625 C 5.96875 -1.484375 4.25 -0.296875 3.265625 -0.296875 L 3.03125 -0.296875 C 2.484375 -2.984375 2.5 -6.15625 3.09375 -8.78125 Z M 0.296875 -8.78125 "/></g></g></g><g fill="#878d5d" fill-opacity="1"><g transform="translate(107.640726, 71.972262)"><g><path d="M 0.296875 0 L 3.09375 0 C 2.796875 -1.359375 2.640625 -2.890625 2.640625 -4.09375 C 2.640625 -4.1875 2.703125 -4.25 2.796875 -4.25 L 3.53125 -4.25 C 4.421875 -4.25 5.109375 -3.953125 5.859375 -2.875 C 5.78125 -4.0625 5.78125 -4.734375 5.859375 -5.90625 C 5.078125 -4.8125 4.4375 -4.546875 3.53125 -4.546875 L 2.796875 -4.546875 C 2.71875 -4.546875 2.65625 -4.609375 2.65625 -4.703125 C 2.6875 -6.234375 2.8125 -7.421875 3.03125 -8.484375 C 4.84375 -8.484375 6.484375 -7.625 7.046875 -5.765625 C 7.125 -6.953125 7.234375 -7.765625 7.453125 -8.78125 L 0.296875 -8.78125 C 0.890625 -6.09375 0.890625 -2.6875 0.296875 0 Z M 0.296875 0 "/></g></g></g></svg>