<svg xmlns="http://www.w3.org/2000/svg" xmlns:xlink="http://www.w3.org/1999/xlink" width="350" zoomAndPan="magnify" viewBox="0 0 262.5 37.5" height="50" preserveAspectRatio="xMidYMid meet" version="1.0"><defs><g/></defs><g fill="#483d43" fill-opacity="1"><g transform="translate(1.728542, 27.424508)"><g><path d="M 7.25 -9.1875 C 8.234375 -8.703125 9.703125 -8.03125 10.9375 -7.1875 C 14.859375 -4.5 12.625 -0.265625 9.140625 -0.265625 C 6.796875 -0.265625 3.15625 -2.125 1.515625 -7.46875 C 1.296875 -4.109375 0.875 -1.734375 0.484375 0 C 1.203125 -0.3125 1.90625 -0.390625 2.59375 -0.34375 C 4.28125 -0.21875 6.890625 0.484375 9.1875 0.484375 C 11.234375 0.484375 13.265625 0.078125 14.859375 -0.734375 C 17.09375 -1.859375 18.78125 -3.9375 18.78125 -6.515625 C 18.765625 -10.765625 13.625 -12.359375 9.65625 -14.125 C 3.46875 -16.828125 6.984375 -21.453125 9.546875 -21.453125 C 11.890625 -21.453125 14.609375 -19.609375 16.25 -14.265625 C 16.4375 -17.640625 16.859375 -20 17.25 -21.734375 C 16.53125 -21.421875 15.859375 -21.34375 15.140625 -21.40625 C 13.484375 -21.515625 11.453125 -22.203125 9.15625 -22.203125 C 5.0625 -22.234375 0.484375 -20.25 0.484375 -16.375 C 0.484375 -12.734375 3.953125 -10.765625 7.25 -9.1875 Z M 7.25 -9.1875 "/></g></g></g><g fill="#483d43" fill-opacity="1"><g transform="translate(22.496461, 27.424508)"><g><path d="M 0.734375 0 L 7.640625 0 C 6.9375 -3.21875 6.578125 -6.859375 6.546875 -10.53125 L 14.921875 -10.53125 C 14.90625 -6.859375 14.53125 -3.21875 13.796875 0 L 20.71875 0 C 19.25 -6.671875 19.25 -15.078125 20.71875 -21.734375 L 13.796875 -21.734375 C 14.515625 -18.515625 14.90625 -14.90625 14.921875 -11.265625 L 6.546875 -11.265625 C 6.578125 -14.90625 6.9375 -18.515625 7.640625 -21.734375 L 0.734375 -21.734375 C 2.21875 -15.078125 2.21875 -6.671875 0.734375 0 Z M 0.734375 0 "/></g></g></g><g fill="#483d43" fill-opacity="1"><g transform="translate(45.927822, 27.424508)"><g><path d="M 11.359375 0.484375 C 17.640625 0.484375 21.984375 -4.59375 21.984375 -10.875 C 21.984375 -17.15625 17.640625 -22.234375 11.359375 -22.234375 C 5.078125 -22.234375 0.734375 -17.15625 0.734375 -10.875 C 0.734375 -4.59375 5.078125 0.484375 11.359375 0.484375 Z M 6.75 -11.234375 C 8.03125 -18.171875 10.65625 -21.296875 12.78125 -21.296875 C 15.1875 -21.296875 17.03125 -17.34375 15.734375 -10.328125 C 14.828125 -5.296875 12.34375 -0.4375 8.921875 -0.4375 C 6.15625 -0.4375 5.734375 -5.90625 6.75 -11.234375 Z M 6.75 -11.234375 "/></g></g></g><g fill="#483d43" fill-opacity="1"><g transform="translate(70.629813, 27.424508)"><g><path d="M 0.734375 0 L 7.640625 0 C 7.140625 -2.375 6.796875 -4.9375 6.640625 -7.578125 L 9.453125 -7.578125 C 22.296875 -7.59375 22.984375 -21.71875 9.453125 -21.734375 L 0.75 -21.734375 C 2.21875 -15.078125 2.21875 -6.671875 0.734375 0 Z M 6.578125 -12.171875 C 6.578125 -14.78125 6.6875 -20.9375 10.21875 -20.9375 C 12.09375 -20.9375 13.171875 -19.546875 13.734375 -17.859375 C 15.421875 -12.921875 12.1875 -8.453125 8.96875 -8.453125 L 6.59375 -8.453125 C 6.546875 -10.109375 6.578125 -10.71875 6.578125 -12.171875 Z M 6.578125 -12.171875 "/></g></g></g><g fill="#483d43" fill-opacity="1"><g transform="translate(91.984179, 27.424508)"><g/></g></g><g fill="#878d5d" fill-opacity="1"><g transform="translate(100.314685, 27.424508)"><g><path d="M 0.734375 0 L 10.484375 0 C 16.953125 0 19.984375 -3.25 19.984375 -6.40625 C 19.953125 -9.765625 15.703125 -12.21875 12.625 -12.1875 C 15.703125 -13.09375 17.9375 -15.09375 17.9375 -17.046875 C 17.953125 -20.859375 13.296875 -21.734375 10.5 -21.734375 L 0.734375 -21.734375 C 2.21875 -15.078125 2.21875 -6.671875 0.734375 0 Z M 6.546875 -11.453125 C 11.578125 -11.875 16.21875 -9.1875 14.015625 -4.453125 C 13.125 -2.546875 11.65625 -0.8125 9.765625 -0.8125 C 8.546875 -0.8125 6.578125 -1.125 6.546875 -4.59375 Z M 10.453125 -20.984375 C 12.5625 -20.953125 13.453125 -18.328125 13.390625 -16.6875 C 13.234375 -13.796875 10.65625 -12.390625 6.546875 -12.1875 L 6.546875 -13.09375 C 6.5 -19.328125 9.484375 -20.984375 10.453125 -20.984375 Z M 10.453125 -20.984375 "/></g></g></g><g fill="#878d5d" fill-opacity="1"><g transform="translate(122.13332, 27.424508)"><g><path d="M -1.21875 -21.734375 C 0.8125 -20.640625 6.75 -9.875 7.546875 -6.84375 C 7.421875 -4.21875 7.0625 -2.484375 6.515625 0 L 13.4375 0 C 12.796875 -2.90625 12.4375 -5.125 12.34375 -8.203125 C 14 -12.609375 17.09375 -19 20.375 -21.734375 L 13.1875 -21.734375 C 15.1875 -19 14.015625 -14.078125 11.890625 -9.1875 C 10.015625 -12.453125 7.15625 -17.484375 7.46875 -21.734375 Z M -1.21875 -21.734375 "/></g></g></g><g fill="#878d5d" fill-opacity="1"><g transform="translate(143.267769, 27.424508)"><g/></g></g><g fill="#483d43" fill-opacity="1"><g transform="translate(151.608533, 27.424508)"><g><path d="M 11.609375 0.484375 C 13.578125 0.484375 14.4375 0.21875 15.34375 -0.078125 L 16.53125 -0.4375 C 17 -0.5625 17.515625 -0.640625 18.046875 -0.640625 C 18.734375 -0.640625 19.453125 -0.515625 20.03125 -0.296875 L 20.796875 0 C 19.296875 -2.5625 19.296875 -7.015625 20.796875 -9.546875 L 13.875 -9.546875 C 15.265625 -7.15625 15.34375 -3.109375 14.125 -0.484375 C 13.75 -0.390625 13.359375 -0.34375 12.953125 -0.34375 C 10.1875 -0.34375 7.015625 -2.78125 7.015625 -9.796875 C 7.015625 -16.515625 10.65625 -21.203125 13.96875 -21.203125 C 16.203125 -21.203125 18.296875 -19.078125 19 -14 C 19.171875 -16.734375 19.515625 -19.328125 20.03125 -21.734375 L 19.78125 -21.671875 C 19.25 -21.546875 18.640625 -21.46875 18 -21.46875 C 17.21875 -21.46875 16.421875 -21.578125 15.703125 -21.765625 C 14.25 -22.15625 13.65625 -22.234375 12.0625 -22.234375 C 5.328125 -22.203125 0.734375 -16.8125 0.734375 -10.53125 C 0.734375 -4.953125 5.15625 0.484375 11.609375 0.484375 Z M 11.609375 0.484375 "/></g></g></g><g fill="#483d43" fill-opacity="1"><g transform="translate(174.942152, 27.424508)"><g><path d="M 0.734375 0 L 18.4375 0 C 17.875 -2.546875 17.609375 -4.546875 17.4375 -7.46875 C 16.046875 -2.875 11.953125 -0.734375 7.5 -0.734375 C 6.859375 -3.90625 6.546875 -7.375 6.546875 -10.140625 C 6.546875 -10.359375 6.6875 -10.5 6.9375 -10.5 L 8.75 -10.5 C 10.9375 -10.5 12.625 -9.796875 14.515625 -7.109375 C 14.296875 -10.0625 14.296875 -11.703125 14.515625 -14.640625 C 12.578125 -11.890625 10.96875 -11.234375 8.75 -11.234375 L 6.9375 -11.234375 C 6.71875 -11.234375 6.578125 -11.40625 6.578125 -11.625 C 6.640625 -15.4375 6.96875 -18.34375 7.5 -21.015625 C 11.96875 -21.015625 16.046875 -18.890625 17.4375 -14.265625 C 17.609375 -17.203125 17.875 -19.203125 18.4375 -21.734375 L 0.734375 -21.734375 C 2.21875 -15.078125 2.21875 -6.671875 0.734375 0 Z M 0.734375 0 "/></g></g></g><g fill="#483d43" fill-opacity="1"><g transform="translate(195.856683, 27.424508)"><g><path d="M 5.734375 0 C 4.109375 -2.8125 2.609375 -6.8125 2.59375 -10.453125 C 2.5625 -12.796875 2.6875 -15.140625 2.953125 -17.390625 C 8.28125 -11.09375 15.390625 -2.546875 16.09375 0 L 20.71875 0 C 19.21875 -6.671875 19.21875 -15.078125 20.71875 -21.734375 L 15.703125 -21.734375 C 17.375 -19.078125 18.8125 -15.140625 18.859375 -11.65625 C 18.890625 -10.4375 18.859375 -9.1875 18.78125 -7.984375 C 16.859375 -9.4375 8.765625 -17.46875 7.640625 -21.734375 L 0.734375 -21.734375 C 2.21875 -15.078125 2.21875 -6.671875 0.734375 0 Z M 5.734375 0 "/></g></g></g><g fill="#483d43" fill-opacity="1"><g transform="translate(219.288042, 27.424508)"><g><path d="M 7.640625 0 C 7.140625 -2.375 6.59375 -6.125 6.578125 -9.546875 L 8.96875 -9.546875 C 11.015625 -6.015625 11.796875 -2.25 11.609375 0 L 20.203125 0 C 18.21875 -1.90625 15.421875 -6.453125 13.5625 -10.046875 C 22.53125 -12.265625 21.421875 -21.71875 9.453125 -21.734375 L 0.75 -21.734375 C 2.21875 -15.078125 2.21875 -6.671875 0.734375 0 Z M 6.546875 -10.4375 C 6.546875 -15.5625 7.28125 -20.90625 10.328125 -20.90625 C 12.53125 -20.90625 13.625 -18.6875 14.015625 -16.828125 C 14.75 -13.21875 12.84375 -10.4375 8.890625 -10.4375 Z M 6.546875 -10.4375 "/></g></g></g><g fill="#483d43" fill-opacity="1"><g transform="translate(241.326595, 27.424508)"><g><path d="M 0.734375 0 L 18.4375 0 C 17.875 -2.546875 17.609375 -4.546875 17.4375 -7.46875 C 16.046875 -2.875 11.953125 -0.734375 7.5 -0.734375 C 6.859375 -3.90625 6.546875 -7.375 6.546875 -10.140625 C 6.546875 -10.359375 6.6875 -10.5 6.9375 -10.5 L 8.75 -10.5 C 10.9375 -10.5 12.625 -9.796875 14.515625 -7.109375 C 14.296875 -10.0625 14.296875 -11.703125 14.515625 -14.640625 C 12.578125 -11.890625 10.96875 -11.234375 8.75 -11.234375 L 6.9375 -11.234375 C 6.71875 -11.234375 6.578125 -11.40625 6.578125 -11.625 C 6.640625 -15.4375 6.96875 -18.34375 7.5 -21.015625 C 11.96875 -21.015625 16.046875 -18.890625 17.4375 -14.265625 C 17.609375 -17.203125 17.875 -19.203125 18.4375 -21.734375 L 0.734375 -21.734375 C 2.21875 -15.078125 2.21875 -6.671875 0.734375 0 Z M 0.734375 0 "/></g></g></g></svg>