<svg xmlns="http://www.w3.org/2000/svg" xmlns:xlink="http://www.w3.org/1999/xlink" width="700" zoomAndPan="magnify" viewBox="0 0 525 525.000007" height="700" preserveAspectRatio="xMidYMid meet" version="1.0"><defs><g/><clipPath id="bc39088ece"><path d="M 52.898438 24.949219 L 472.101562 24.949219 L 472.101562 444.152344 L 52.898438 444.152344 Z M 52.898438 24.949219 " clip-rule="nonzero"/></clipPath></defs><g clip-path="url(#bc39088ece)"><path fill="#878d5d" d="M 472.101562 234.550781 C 472.101562 237.980469 472.015625 241.410156 471.847656 244.835938 C 471.679688 248.261719 471.425781 251.679688 471.089844 255.09375 C 470.753906 258.507812 470.335938 261.914062 469.832031 265.304688 C 469.328125 268.699219 468.742188 272.078125 468.074219 275.441406 C 467.402344 278.804688 466.652344 282.152344 465.820312 285.480469 C 464.984375 288.808594 464.070312 292.113281 463.074219 295.394531 C 462.078125 298.675781 461.003906 301.933594 459.847656 305.164062 C 458.691406 308.394531 457.457031 311.59375 456.144531 314.761719 C 454.832031 317.929688 453.445312 321.066406 451.976562 324.167969 C 450.511719 327.269531 448.96875 330.332031 447.351562 333.355469 C 445.734375 336.382812 444.042969 339.363281 442.28125 342.308594 C 440.515625 345.25 438.683594 348.148438 436.777344 351 C 434.871094 353.851562 432.894531 356.65625 430.851562 359.410156 C 428.808594 362.164062 426.699219 364.867188 424.523438 367.519531 C 422.347656 370.171875 420.109375 372.769531 417.804688 375.308594 C 415.5 377.851562 413.136719 380.335938 410.710938 382.761719 C 408.285156 385.1875 405.800781 387.550781 403.257812 389.855469 C 400.71875 392.160156 398.121094 394.398438 395.46875 396.574219 C 392.816406 398.75 390.113281 400.859375 387.359375 402.902344 C 384.605469 404.945312 381.800781 406.921875 378.949219 408.828125 C 376.097656 410.734375 373.199219 412.566406 370.257812 414.332031 C 367.3125 416.09375 364.332031 417.785156 361.304688 419.402344 C 358.28125 421.019531 355.214844 422.5625 352.117188 424.027344 C 349.015625 425.496094 345.878906 426.882812 342.710938 428.195312 C 339.542969 429.507812 336.34375 430.742188 333.113281 431.898438 C 329.882812 433.054688 326.625 434.128906 323.34375 435.125 C 320.0625 436.121094 316.757812 437.035156 313.429688 437.871094 C 310.101562 438.703125 306.753906 439.453125 303.390625 440.125 C 300.027344 440.792969 296.648438 441.378906 293.253906 441.882812 C 289.863281 442.386719 286.457031 442.804688 283.042969 443.140625 C 279.628906 443.480469 276.210938 443.730469 272.785156 443.898438 C 269.359375 444.066406 265.929688 444.152344 262.5 444.152344 C 259.070312 444.152344 255.640625 444.066406 252.214844 443.898438 C 248.789062 443.730469 245.371094 443.480469 241.957031 443.140625 C 238.542969 442.804688 235.136719 442.386719 231.746094 441.882812 C 228.351562 441.378906 224.972656 440.792969 221.609375 440.125 C 218.246094 439.453125 214.898438 438.703125 211.570312 437.871094 C 208.242188 437.035156 204.9375 436.121094 201.65625 435.125 C 198.375 434.128906 195.117188 433.054688 191.886719 431.898438 C 188.65625 430.742188 185.457031 429.507812 182.289062 428.195312 C 179.121094 426.882812 175.984375 425.496094 172.882812 424.027344 C 169.78125 422.5625 166.71875 421.019531 163.695312 419.402344 C 160.667969 417.785156 157.6875 416.09375 154.742188 414.332031 C 151.800781 412.566406 148.902344 410.734375 146.050781 408.828125 C 143.199219 406.921875 140.394531 404.945312 137.640625 402.902344 C 134.886719 400.859375 132.183594 398.75 129.53125 396.574219 C 126.878906 394.398438 124.28125 392.160156 121.742188 389.855469 C 119.199219 387.550781 116.714844 385.1875 114.289062 382.761719 C 111.863281 380.335938 109.5 377.851562 107.195312 375.308594 C 104.890625 372.769531 102.652344 370.171875 100.476562 367.519531 C 98.300781 364.867188 96.191406 362.164062 94.148438 359.410156 C 92.105469 356.65625 90.128906 353.851562 88.222656 351 C 86.316406 348.148438 84.484375 345.25 82.71875 342.308594 C 80.957031 339.363281 79.265625 336.382812 77.648438 333.355469 C 76.03125 330.332031 74.488281 327.269531 73.023438 324.167969 C 71.554688 321.066406 70.167969 317.929688 68.855469 314.761719 C 67.542969 311.59375 66.308594 308.394531 65.152344 305.164062 C 63.996094 301.933594 62.921875 298.675781 61.925781 295.394531 C 60.929688 292.113281 60.015625 288.808594 59.179688 285.480469 C 58.347656 282.152344 57.597656 278.804688 56.925781 275.441406 C 56.257812 272.078125 55.671875 268.699219 55.167969 265.304688 C 54.664062 261.914062 54.246094 258.507812 53.910156 255.09375 C 53.574219 251.679688 53.320312 248.261719 53.152344 244.835938 C 52.984375 241.410156 52.898438 237.980469 52.898438 234.550781 C 52.898438 231.121094 52.984375 227.691406 53.152344 224.265625 C 53.320312 220.839844 53.574219 217.421875 53.910156 214.007812 C 54.246094 210.59375 54.664062 207.1875 55.167969 203.796875 C 55.671875 200.402344 56.257812 197.023438 56.925781 193.660156 C 57.597656 190.296875 58.347656 186.949219 59.179688 183.621094 C 60.015625 180.292969 60.929688 176.988281 61.925781 173.707031 C 62.921875 170.425781 63.996094 167.167969 65.152344 163.9375 C 66.308594 160.707031 67.542969 157.507812 68.855469 154.339844 C 70.167969 151.171875 71.554688 148.035156 73.023438 144.933594 C 74.488281 141.835938 76.03125 138.769531 77.648438 135.746094 C 79.265625 132.71875 80.957031 129.738281 82.71875 126.792969 C 84.484375 123.851562 86.316406 120.957031 88.222656 118.101562 C 90.128906 115.25 92.105469 112.445312 94.148438 109.691406 C 96.191406 106.9375 98.300781 104.234375 100.476562 101.582031 C 102.652344 98.929688 104.890625 96.332031 107.195312 93.792969 C 109.5 91.25 111.863281 88.765625 114.289062 86.339844 C 116.714844 83.914062 119.199219 81.550781 121.742188 79.246094 C 124.28125 76.945312 126.878906 74.703125 129.53125 72.527344 C 132.183594 70.351562 134.886719 68.242188 137.640625 66.199219 C 140.394531 64.15625 143.199219 62.179688 146.050781 60.273438 C 148.902344 58.367188 151.800781 56.535156 154.742188 54.769531 C 157.6875 53.007812 160.667969 51.316406 163.695312 49.699219 C 166.71875 48.082031 169.78125 46.539062 172.882812 45.074219 C 175.984375 43.609375 179.121094 42.21875 182.289062 40.90625 C 185.457031 39.59375 188.65625 38.359375 191.886719 37.203125 C 195.117188 36.046875 198.375 34.972656 201.65625 33.976562 C 204.9375 32.980469 208.242188 32.066406 211.570312 31.230469 C 214.898438 30.398438 218.246094 29.648438 221.609375 28.976562 C 224.972656 28.308594 228.351562 27.722656 231.746094 27.21875 C 235.136719 26.714844 238.542969 26.296875 241.957031 25.960938 C 245.371094 25.625 248.789062 25.371094 252.214844 25.203125 C 255.640625 25.035156 259.070312 24.949219 262.5 24.949219 C 265.929688 24.949219 269.359375 25.035156 272.785156 25.203125 C 276.210938 25.371094 279.628906 25.625 283.042969 25.960938 C 286.457031 26.296875 289.863281 26.714844 293.253906 27.21875 C 296.648438 27.722656 300.027344 28.308594 303.390625 28.976562 C 306.753906 29.648438 310.101562 30.398438 313.429688 31.230469 C 316.757812 32.066406 320.0625 32.980469 323.34375 33.976562 C 326.625 34.972656 329.882812 36.046875 333.113281 37.203125 C 336.34375 38.359375 339.542969 39.59375 342.710938 40.90625 C 345.878906 42.21875 349.015625 43.609375 352.117188 45.074219 C 355.214844 46.539062 358.28125 48.082031 361.304688 49.699219 C 364.332031 51.316406 367.3125 53.007812 370.257812 54.769531 C 373.199219 56.535156 376.097656 58.367188 378.949219 60.273438 C 381.800781 62.179688 384.605469 64.15625 387.359375 66.199219 C 390.113281 68.242188 392.816406 70.351562 395.46875 72.527344 C 398.121094 74.703125 400.71875 76.945312 403.257812 79.246094 C 405.800781 81.550781 408.285156 83.914062 410.710938 86.339844 C 413.136719 88.765625 415.5 91.25 417.804688 93.792969 C 420.109375 96.332031 422.347656 98.929688 424.523438 101.582031 C 426.699219 104.234375 428.808594 106.9375 430.851562 109.691406 C 432.894531 112.445312 434.871094 115.25 436.777344 118.101562 C 438.683594 120.957031 440.515625 123.851562 442.28125 126.792969 C 444.042969 129.738281 445.734375 132.71875 447.351562 135.746094 C 448.96875 138.769531 450.511719 141.835938 451.976562 144.933594 C 453.445312 148.035156 454.832031 151.171875 456.144531 154.339844 C 457.457031 157.507812 458.691406 160.707031 459.847656 163.9375 C 461.003906 167.167969 462.078125 170.425781 463.074219 173.707031 C 464.070312 176.988281 464.984375 180.292969 465.820312 183.621094 C 466.652344 186.949219 467.402344 190.296875 468.074219 193.660156 C 468.742188 197.023438 469.328125 200.402344 469.832031 203.796875 C 470.335938 207.1875 470.753906 210.59375 471.089844 214.007812 C 471.425781 217.421875 471.679688 220.839844 471.847656 224.265625 C 472.015625 227.691406 472.101562 231.121094 472.101562 234.550781 Z M 472.101562 234.550781 " fill-opacity="1" fill-rule="nonzero"/></g><path fill="#ffffff" d="M 362.738281 368.578125 L 400.085938 368.578125 C 401.945312 368.578125 403.464844 367.058594 403.464844 365.199219 L 403.464844 258.761719 C 403.464844 248.734375 395.261719 240.53125 385.234375 240.53125 L 377.589844 240.53125 C 367.5625 240.53125 359.359375 248.734375 359.359375 258.761719 L 359.359375 365.199219 C 359.359375 367.058594 360.882812 368.578125 362.738281 368.578125 Z M 362.738281 368.578125 " fill-opacity="1" fill-rule="evenodd"/><path fill="#ffffff" d="M 296.886719 368.578125 L 334.234375 368.578125 C 336.089844 368.578125 337.613281 367.058594 337.613281 365.199219 L 337.613281 222.175781 C 337.613281 212.148438 329.410156 203.945312 319.382812 203.945312 L 311.738281 203.945312 C 301.710938 203.945312 293.503906 212.148438 293.503906 222.175781 L 293.503906 365.199219 C 293.507812 367.058594 295.027344 368.578125 296.886719 368.578125 Z M 296.886719 368.578125 " fill-opacity="1" fill-rule="evenodd"/><path fill="#ffffff" d="M 151.59375 95.289062 L 150.425781 110.457031 L 151.007812 102.871094 L 150.421875 110.457031 C 150.777344 110.484375 186.648438 113.601562 233.546875 126.835938 C 276.574219 138.980469 337.988281 162.375 386.242188 204.875 L 395.691406 193.261719 C 373.390625 173.621094 346.65625 156.25 316.226562 141.625 C 291.988281 129.976562 265.355469 120.03125 237.0625 112.066406 C 188.921875 98.507812 153.09375 95.414062 151.59375 95.289062 Z M 151.59375 95.289062 " fill-opacity="1" fill-rule="nonzero"/><path fill="#ffffff" d="M 386.0625 163.839844 L 387.984375 200.277344 L 352.707031 202.246094 L 368.492188 216.871094 L 403.757812 214.894531 L 401.847656 178.46875 Z M 386.0625 163.839844 " fill-opacity="1" fill-rule="nonzero"/><path fill="#ffffff" d="M 170.757812 206.4375 C 178.792969 206.4375 186.964844 207.511719 194.515625 209.597656 L 194.515625 141.855469 C 194.515625 135.761719 189.542969 130.917969 183.449219 130.917969 L 161.503906 130.917969 C 155.410156 130.917969 149.792969 135.761719 149.792969 141.855469 L 149.792969 208.882812 C 156.761719 207.269531 163.707031 206.4375 170.757812 206.4375 Z M 170.757812 206.4375 " fill-opacity="1" fill-rule="evenodd"/><path fill="#ffffff" d="M 261.371094 167.507812 L 239.421875 167.507812 C 233.328125 167.507812 227.621094 172.34375 227.621094 178.441406 L 227.621094 227.773438 C 229.363281 229.144531 231.09375 230.570312 232.585938 232.0625 C 249.109375 248.585938 258.390625 270.558594 258.390625 293.929688 C 258.390625 317.296875 249.019531 339.269531 232.496094 355.796875 C 231.003906 357.285156 229.363281 358.714844 227.621094 360.082031 L 227.621094 366.523438 C 227.621094 367.652344 229.269531 368.464844 230.398438 368.464844 L 270.394531 368.464844 C 271.523438 368.464844 271.761719 367.652344 271.761719 366.523438 L 271.761719 178.441406 C 271.761719 172.34375 267.460938 167.507812 261.371094 167.507812 Z M 261.371094 167.507812 " fill-opacity="1" fill-rule="evenodd"/><path fill="#ffffff" d="M 171.082031 214.042969 C 127.03125 214.042969 91.195312 249.878906 91.195312 293.929688 C 91.195312 337.976562 127.03125 373.8125 171.082031 373.8125 C 215.128906 373.8125 250.964844 337.976562 250.964844 293.929688 C 250.964844 249.882812 215.128906 214.042969 171.082031 214.042969 Z M 179.992188 342.257812 L 179.992188 358.007812 L 163.730469 358.007812 L 163.730469 342.800781 C 150.371094 341.847656 137.625 337.914062 129.757812 332.488281 L 138.75 312.679688 C 147.160156 318.242188 159.1875 322.042969 170.175781 322.042969 C 181.300781 322.042969 185.6875 318.921875 185.6875 314.308594 C 185.6875 299.25 131.363281 310.238281 131.363281 274.96875 C 131.363281 260.042969 142.242188 247.425781 163.730469 244.714844 L 163.730469 230.234375 L 179.992188 230.234375 L 179.992188 244.441406 C 190.449219 245.257812 200.292969 247.96875 207.890625 252.445312 L 199.796875 272.390625 C 190.707031 267.503906 181.839844 265.0625 173.566406 265.0625 C 162.304688 265.0625 158.28125 268.863281 158.28125 273.609375 C 158.28125 288.125 211.804688 277.273438 211.804688 312.273438 C 211.804688 326.65625 200.902344 339.136719 179.992188 342.257812 Z M 179.992188 342.257812 " fill-opacity="1" fill-rule="nonzero"/><g fill="#483d43" fill-opacity="1"><g transform="translate(83.384624, 514.279449)"><g><path d="M 1.3125 -38.953125 C 3.984375 -27 3.984375 -11.953125 1.3125 0 L 30.375 0 C 29.359375 -5.515625 28.96875 -7.390625 28.53125 -13.390625 C 26.46875 -6.609375 18.859375 -1.3125 14.4375 -1.3125 L 13.4375 -1.3125 C 11.03125 -13.265625 11.109375 -27.265625 13.703125 -38.953125 Z M 1.3125 -38.953125 "/></g></g></g><g fill="#483d43" fill-opacity="1"><g transform="translate(117.0319, 514.279449)"><g><path d="M 20.34375 0.875 C 31.59375 0.875 39.390625 -8.234375 39.390625 -19.46875 C 39.390625 -30.71875 31.59375 -39.828125 20.34375 -39.828125 C 9.109375 -39.828125 1.3125 -30.71875 1.3125 -19.46875 C 1.3125 -8.234375 9.109375 0.875 20.34375 0.875 Z M 12.078125 -20.125 C 14.390625 -32.5625 19.078125 -38.15625 22.890625 -38.15625 C 27.21875 -38.15625 30.5 -31.078125 28.1875 -18.515625 C 26.5625 -9.5 22.09375 -0.78125 15.96875 -0.78125 C 11.03125 -0.78125 10.28125 -10.59375 12.078125 -20.125 Z M 12.078125 -20.125 "/></g></g></g><g fill="#483d43" fill-opacity="1"><g transform="translate(161.268846, 514.279449)"><g><path d="M 11.6875 0.875 L 20.125 0 L 26.390625 -22.796875 C 26.515625 -23.328125 26.65625 -23.8125 26.828125 -24.328125 C 30.109375 -15.703125 33.78125 -3.9375 33.78125 0.875 L 42.09375 0 L 46.46875 -15.96875 C 50.15625 -29.359375 52.390625 -34.046875 56.0625 -38.953125 L 43.015625 -38.953125 C 48.65625 -34.484375 48.703125 -28.703125 45.15625 -15.703125 L 42.359375 -5.46875 C 40.703125 -8.890625 33.046875 -28.671875 36.109375 -38.953125 L 20.046875 -38.953125 C 22.234375 -36.0625 23.375 -33.265625 24.421875 -30.5 C 25.34375 -28.015625 25.59375 -24.90625 24.984375 -22.71875 C 24.9375 -22.578125 24.9375 -22.5 24.90625 -22.359375 L 20.265625 -5.46875 C 20.265625 -9.234375 11.515625 -30.546875 14 -38.953125 L -1.578125 -38.953125 C 3.15625 -30.984375 11.6875 -12.859375 11.6875 0.875 Z M 11.6875 0.875 "/></g></g></g><g fill="#483d43" fill-opacity="1"><g transform="translate(219.246099, 514.279449)"><g/></g></g><g fill="#483d43" fill-opacity="1"><g transform="translate(234.164536, 514.279449)"><g><path d="M 1.3125 0 L 13.703125 0 C 12.78125 -4.25 12.171875 -8.84375 11.90625 -13.5625 L 16.9375 -13.5625 C 39.953125 -13.609375 41.1875 -38.90625 16.9375 -38.953125 L 1.359375 -38.953125 C 3.984375 -27 3.984375 -11.953125 1.3125 0 Z M 11.765625 -21.796875 C 11.765625 -26.46875 11.984375 -37.5 18.296875 -37.5 C 21.65625 -37.5 23.59375 -35.015625 24.59375 -31.984375 C 27.609375 -23.15625 21.84375 -15.140625 16.0625 -15.140625 L 11.8125 -15.140625 C 11.734375 -18.125 11.765625 -19.21875 11.765625 -21.796875 Z M 11.765625 -21.796875 "/></g></g></g><g fill="#483d43" fill-opacity="1"><g transform="translate(272.406501, 514.279449)"><g><path d="M 13.703125 0 C 12.78125 -4.25 11.8125 -10.984375 11.765625 -17.109375 L 16.0625 -17.109375 C 19.734375 -10.765625 21.140625 -4.03125 20.78125 0 L 36.1875 0 C 32.640625 -3.40625 27.609375 -11.546875 24.28125 -17.984375 C 40.34375 -21.96875 38.375 -38.90625 16.9375 -38.953125 L 1.359375 -38.953125 C 3.984375 -27 3.984375 -11.953125 1.3125 0 Z M 11.734375 -18.6875 C 11.734375 -27.875 13.046875 -37.453125 18.515625 -37.453125 C 22.453125 -37.453125 24.421875 -33.484375 25.125 -30.15625 C 26.4375 -23.671875 23.015625 -18.6875 15.921875 -18.6875 Z M 11.734375 -18.6875 "/></g></g></g><g fill="#483d43" fill-opacity="1"><g transform="translate(311.873717, 514.279449)"><g><path d="M 13.703125 0 C 11.078125 -11.953125 11.078125 -27 13.703125 -38.953125 L 1.3125 -38.953125 C 3.984375 -27 3.984375 -11.953125 1.3125 0 Z M 13.703125 0 "/></g></g></g><g fill="#483d43" fill-opacity="1"><g transform="translate(330.424159, 514.279449)"><g><path d="M 15.671875 0.171875 C 17.765625 0.703125 19.34375 0.921875 20.75 0.921875 C 23.234375 0.921875 25.203125 0.265625 28.703125 -0.390625 C 29.5 -0.53125 30.421875 -0.609375 31.328125 -0.609375 C 32.6875 -0.609375 34.140625 -0.4375 35.453125 -0.125 L 35.890625 0 C 35.1875 -3.40625 34.75 -6.296875 34.4375 -9.890625 C 32.734375 -4.9375 27.265625 -0.609375 22.234375 -0.609375 C 17.203125 -0.609375 12.5625 -4.984375 12.5625 -17.546875 C 12.5625 -29.578125 19.078125 -37.984375 25.03125 -37.984375 C 29.015625 -37.984375 32.78125 -34.171875 34.046875 -25.078125 C 34.359375 -29.984375 34.96875 -34.609375 35.890625 -38.953125 L 35.453125 -38.8125 C 34.4375 -38.59375 33.34375 -38.46875 32.203125 -38.46875 C 30.59375 -38.46875 28.96875 -38.6875 27.609375 -39.125 C 26.296875 -39.5625 24.546875 -39.828125 21.625 -39.828125 C 9.546875 -39.78125 1.3125 -30.109375 1.3125 -18.859375 C 1.3125 -10.453125 6.921875 -1.96875 15.671875 0.171875 Z M 15.671875 0.171875 "/></g></g></g><g fill="#483d43" fill-opacity="1"><g transform="translate(370.504011, 514.279449)"><g><path d="M 1.3125 0 L 33.046875 0 C 32.03125 -4.546875 31.546875 -8.140625 31.25 -13.390625 C 28.75 -5.15625 21.40625 -1.3125 13.4375 -1.3125 C 12.296875 -7 11.734375 -13.21875 11.734375 -18.15625 C 11.734375 -18.5625 11.984375 -18.8125 12.421875 -18.8125 L 15.671875 -18.8125 C 19.609375 -18.8125 22.625 -17.546875 26 -12.734375 C 25.59375 -18.03125 25.59375 -20.96875 26 -26.21875 C 22.53125 -21.3125 19.65625 -20.125 15.671875 -20.125 L 12.421875 -20.125 C 12.03125 -20.125 11.765625 -20.4375 11.765625 -20.828125 C 11.90625 -27.65625 12.46875 -32.859375 13.4375 -37.640625 C 21.4375 -37.640625 28.75 -33.828125 31.25 -25.5625 C 31.546875 -30.8125 32.03125 -34.390625 33.046875 -38.953125 L 1.3125 -38.953125 C 3.984375 -27 3.984375 -11.953125 1.3125 0 Z M 1.3125 0 "/></g></g></g><g fill="#483d43" fill-opacity="1"><g transform="translate(407.958326, 514.279449)"><g><path d="M 13 -16.453125 C 14.75 -15.578125 17.375 -14.390625 19.609375 -12.859375 C 26.609375 -8.046875 22.625 -0.484375 16.359375 -0.484375 C 12.171875 -0.484375 5.640625 -3.8125 2.71875 -13.390625 C 2.3125 -7.359375 1.578125 -3.109375 0.875 0 C 2.140625 -0.5625 3.40625 -0.703125 4.640625 -0.609375 C 7.65625 -0.390625 12.34375 0.875 16.453125 0.875 C 20.125 0.875 23.765625 0.125 26.609375 -1.3125 C 30.640625 -3.328125 33.65625 -7.046875 33.65625 -11.6875 C 33.609375 -19.296875 24.421875 -22.140625 17.28125 -25.296875 C 6.21875 -30.15625 12.515625 -38.421875 17.109375 -38.421875 C 21.3125 -38.421875 26.171875 -35.140625 29.109375 -25.5625 C 29.453125 -31.59375 30.203125 -35.84375 30.890625 -38.953125 C 29.625 -38.375 28.40625 -38.25 27.125 -38.328125 C 24.15625 -38.546875 20.53125 -39.78125 16.40625 -39.78125 C 9.0625 -39.828125 0.875 -36.28125 0.875 -29.328125 C 0.875 -22.796875 7.09375 -19.296875 13 -16.453125 Z M 13 -16.453125 "/></g></g></g></svg>