<svg xmlns="http://www.w3.org/2000/svg" xmlns:xlink="http://www.w3.org/1999/xlink" width="500" zoomAndPan="magnify" viewBox="0 0 375 374.999991" height="500" preserveAspectRatio="xMidYMid meet" version="1.0"><defs><g/><clipPath id="bcf51d9f09"><path d="M 37.5 17.855469 L 337.5 17.855469 L 337.5 317.855469 L 37.5 317.855469 Z M 37.5 17.855469 " clip-rule="nonzero"/></clipPath></defs><g clip-path="url(#bcf51d9f09)"><path fill="#878d5d" d="M 337.5 167.855469 C 337.5 170.308594 337.441406 172.765625 337.320312 175.214844 C 337.199219 177.667969 337.019531 180.113281 336.777344 182.558594 C 336.535156 185 336.238281 187.4375 335.875 189.863281 C 335.515625 192.292969 335.097656 194.710938 334.617188 197.117188 C 334.140625 199.527344 333.601562 201.921875 333.003906 204.300781 C 332.40625 206.683594 331.753906 209.050781 331.039062 211.398438 C 330.328125 213.746094 329.558594 216.078125 328.730469 218.390625 C 327.90625 220.699219 327.019531 222.988281 326.082031 225.257812 C 325.140625 227.527344 324.148438 229.769531 323.097656 231.988281 C 322.046875 234.207031 320.945312 236.398438 319.789062 238.566406 C 318.632812 240.730469 317.421875 242.867188 316.160156 244.972656 C 314.898438 247.078125 313.585938 249.148438 312.21875 251.191406 C 310.855469 253.230469 309.445312 255.238281 307.980469 257.210938 C 306.519531 259.183594 305.007812 261.117188 303.453125 263.015625 C 301.894531 264.910156 300.292969 266.769531 298.644531 268.589844 C 296.992188 270.410156 295.300781 272.1875 293.566406 273.921875 C 291.832031 275.65625 290.054688 277.347656 288.234375 279 C 286.414062 280.648438 284.554688 282.25 282.660156 283.808594 C 280.761719 285.363281 278.828125 286.875 276.855469 288.335938 C 274.882812 289.800781 272.875 291.210938 270.835938 292.574219 C 268.792969 293.941406 266.722656 295.253906 264.617188 296.515625 C 262.511719 297.777344 260.375 298.988281 258.210938 300.144531 C 256.042969 301.300781 253.851562 302.402344 251.632812 303.453125 C 249.414062 304.503906 247.171875 305.496094 244.902344 306.4375 C 242.632812 307.375 240.34375 308.261719 238.035156 309.085938 C 235.722656 309.914062 233.390625 310.683594 231.042969 311.394531 C 228.695312 312.109375 226.328125 312.761719 223.945312 313.359375 C 221.566406 313.957031 219.171875 314.496094 216.761719 314.972656 C 214.355469 315.453125 211.9375 315.871094 209.507812 316.230469 C 207.082031 316.59375 204.644531 316.890625 202.203125 317.132812 C 199.757812 317.375 197.3125 317.554688 194.859375 317.675781 C 192.410156 317.796875 189.953125 317.855469 187.5 317.855469 C 185.046875 317.855469 182.589844 317.796875 180.140625 317.675781 C 177.6875 317.554688 175.242188 317.375 172.796875 317.132812 C 170.355469 316.890625 167.917969 316.59375 165.492188 316.230469 C 163.0625 315.871094 160.644531 315.453125 158.238281 314.972656 C 155.828125 314.496094 153.433594 313.957031 151.054688 313.359375 C 148.671875 312.761719 146.304688 312.109375 143.957031 311.394531 C 141.609375 310.683594 139.277344 309.914062 136.964844 309.085938 C 134.65625 308.261719 132.367188 307.375 130.097656 306.4375 C 127.828125 305.496094 125.585938 304.503906 123.367188 303.453125 C 121.148438 302.402344 118.957031 301.300781 116.789062 300.144531 C 114.625 298.988281 112.488281 297.777344 110.382812 296.515625 C 108.277344 295.253906 106.207031 293.941406 104.164062 292.574219 C 102.125 291.210938 100.117188 289.800781 98.144531 288.335938 C 96.171875 286.875 94.238281 285.363281 92.339844 283.808594 C 90.445312 282.25 88.585938 280.648438 86.765625 279 C 84.945312 277.347656 83.167969 275.65625 81.433594 273.921875 C 79.699219 272.1875 78.007812 270.410156 76.355469 268.589844 C 74.707031 266.769531 73.105469 264.910156 71.546875 263.015625 C 69.992188 261.117188 68.480469 259.183594 67.019531 257.210938 C 65.554688 255.238281 64.144531 253.230469 62.78125 251.191406 C 61.414062 249.148438 60.101562 247.078125 58.839844 244.972656 C 57.578125 242.867188 56.367188 240.730469 55.210938 238.566406 C 54.054688 236.398438 52.953125 234.207031 51.902344 231.988281 C 50.851562 229.769531 49.859375 227.527344 48.917969 225.257812 C 47.980469 222.988281 47.09375 220.699219 46.269531 218.390625 C 45.441406 216.078125 44.671875 213.746094 43.957031 211.398438 C 43.246094 209.050781 42.589844 206.683594 41.996094 204.300781 C 41.398438 201.921875 40.859375 199.527344 40.382812 197.117188 C 39.902344 194.710938 39.484375 192.292969 39.125 189.863281 C 38.761719 187.4375 38.464844 185 38.222656 182.558594 C 37.980469 180.113281 37.800781 177.667969 37.679688 175.214844 C 37.558594 172.765625 37.5 170.308594 37.5 167.855469 C 37.5 165.402344 37.558594 162.945312 37.679688 160.496094 C 37.800781 158.042969 37.980469 155.597656 38.222656 153.152344 C 38.464844 150.710938 38.761719 148.273438 39.125 145.847656 C 39.484375 143.417969 39.902344 141 40.382812 138.59375 C 40.859375 136.183594 41.398438 133.789062 41.996094 131.410156 C 42.589844 129.027344 43.246094 126.660156 43.957031 124.3125 C 44.671875 121.964844 45.441406 119.632812 46.269531 117.320312 C 47.09375 115.011719 47.980469 112.722656 48.917969 110.453125 C 49.859375 108.183594 50.851562 105.941406 51.902344 103.722656 C 52.953125 101.503906 54.054688 99.3125 55.210938 97.144531 C 56.367188 94.980469 57.578125 92.84375 58.839844 90.738281 C 60.101562 88.632812 61.414062 86.5625 62.78125 84.519531 C 64.144531 82.480469 65.554688 80.472656 67.019531 78.5 C 68.480469 76.527344 69.992188 74.59375 71.546875 72.695312 C 73.105469 70.800781 74.707031 68.941406 76.355469 67.121094 C 78.007812 65.300781 79.699219 63.523438 81.433594 61.789062 C 83.167969 60.054688 84.945312 58.363281 86.765625 56.710938 C 88.585938 55.0625 90.445312 53.460938 92.339844 51.902344 C 94.238281 50.347656 96.171875 48.835938 98.144531 47.375 C 100.117188 45.910156 102.125 44.5 104.164062 43.136719 C 106.207031 41.769531 108.277344 40.457031 110.382812 39.195312 C 112.488281 37.933594 114.625 36.722656 116.789062 35.566406 C 118.957031 34.410156 121.148438 33.308594 123.367188 32.257812 C 125.585938 31.207031 127.828125 30.214844 130.097656 29.273438 C 132.367188 28.335938 134.65625 27.449219 136.964844 26.625 C 139.277344 25.796875 141.609375 25.027344 143.957031 24.3125 C 146.304688 23.601562 148.671875 22.945312 151.054688 22.351562 C 153.433594 21.753906 155.828125 21.214844 158.238281 20.738281 C 160.644531 20.257812 163.0625 19.839844 165.492188 19.480469 C 167.917969 19.117188 170.355469 18.820312 172.796875 18.578125 C 175.242188 18.335938 177.6875 18.15625 180.140625 18.035156 C 182.589844 17.914062 185.046875 17.855469 187.5 17.855469 C 189.953125 17.855469 192.410156 17.914062 194.859375 18.035156 C 197.3125 18.15625 199.757812 18.335938 202.203125 18.578125 C 204.644531 18.820312 207.082031 19.117188 209.507812 19.480469 C 211.9375 19.839844 214.355469 20.257812 216.761719 20.738281 C 219.171875 21.214844 221.566406 21.753906 223.945312 22.351562 C 226.328125 22.945312 228.695312 23.601562 231.042969 24.3125 C 233.390625 25.027344 235.722656 25.796875 238.035156 26.625 C 240.34375 27.449219 242.632812 28.335938 244.902344 29.273438 C 247.171875 30.214844 249.414062 31.207031 251.632812 32.257812 C 253.851562 33.308594 256.042969 34.410156 258.210938 35.566406 C 260.375 36.722656 262.511719 37.933594 264.617188 39.195312 C 266.722656 40.457031 268.792969 41.769531 270.835938 43.136719 C 272.875 44.5 274.882812 45.910156 276.855469 47.375 C 278.828125 48.835938 280.761719 50.347656 282.660156 51.902344 C 284.554688 53.460938 286.414062 55.0625 288.234375 56.710938 C 290.054688 58.363281 291.832031 60.054688 293.566406 61.789062 C 295.300781 63.523438 296.992188 65.300781 298.644531 67.121094 C 300.292969 68.941406 301.894531 70.800781 303.453125 72.695312 C 305.007812 74.59375 306.519531 76.527344 307.980469 78.5 C 309.445312 80.472656 310.855469 82.480469 312.21875 84.519531 C 313.585938 86.5625 314.898438 88.632812 316.160156 90.738281 C 317.421875 92.84375 318.632812 94.980469 319.789062 97.144531 C 320.945312 99.3125 322.046875 101.503906 323.097656 103.722656 C 324.148438 105.941406 325.140625 108.183594 326.082031 110.453125 C 327.019531 112.722656 327.90625 115.011719 328.730469 117.320312 C 329.558594 119.632812 330.328125 121.964844 331.039062 124.3125 C 331.753906 126.660156 332.40625 129.027344 333.003906 131.410156 C 333.601562 133.789062 334.140625 136.183594 334.617188 138.59375 C 335.097656 141 335.515625 143.417969 335.875 145.847656 C 336.238281 148.273438 336.535156 150.710938 336.777344 153.152344 C 337.019531 155.597656 337.199219 158.042969 337.320312 160.496094 C 337.441406 162.945312 337.5 165.402344 337.5 167.855469 Z M 337.5 167.855469 " fill-opacity="1" fill-rule="nonzero"/></g><path fill="#ffffff" d="M 259.238281 263.773438 L 285.960938 263.773438 C 287.292969 263.773438 288.382812 262.683594 288.382812 261.351562 L 288.382812 185.179688 C 288.382812 178.003906 282.511719 172.132812 275.332031 172.132812 L 269.863281 172.132812 C 262.6875 172.132812 256.816406 178.003906 256.816406 185.179688 L 256.816406 261.351562 C 256.816406 262.683594 257.90625 263.773438 259.238281 263.773438 Z M 259.238281 263.773438 " fill-opacity="1" fill-rule="evenodd"/><path fill="#ffffff" d="M 212.109375 263.773438 L 238.835938 263.773438 C 240.164062 263.773438 241.253906 262.683594 241.253906 261.351562 L 241.253906 159 C 241.253906 151.824219 235.382812 145.953125 228.207031 145.953125 L 222.738281 145.953125 C 215.5625 145.953125 209.6875 151.824219 209.6875 159 L 209.6875 261.351562 C 209.691406 262.683594 210.777344 263.773438 212.109375 263.773438 Z M 212.109375 263.773438 " fill-opacity="1" fill-rule="evenodd"/><path fill="#ffffff" d="M 108.128906 68.191406 L 107.292969 79.046875 L 107.710938 73.621094 L 107.292969 79.046875 C 107.546875 79.066406 133.214844 81.296875 166.78125 90.769531 C 197.570312 99.460938 241.523438 116.203125 276.054688 146.617188 L 282.816406 138.308594 C 266.859375 124.253906 247.726562 111.820312 225.949219 101.351562 C 208.605469 93.015625 189.542969 85.898438 169.296875 80.199219 C 134.84375 70.496094 109.203125 68.28125 108.128906 68.191406 Z M 108.128906 68.191406 " fill-opacity="1" fill-rule="nonzero"/><path fill="#ffffff" d="M 275.925781 117.253906 L 277.304688 143.328125 L 252.054688 144.734375 L 263.351562 155.203125 L 288.589844 153.789062 L 287.222656 127.71875 Z M 275.925781 117.253906 " fill-opacity="1" fill-rule="nonzero"/><path fill="#ffffff" d="M 121.84375 147.734375 C 127.597656 147.734375 133.441406 148.503906 138.847656 149.996094 L 138.847656 101.519531 C 138.847656 97.15625 135.289062 93.691406 130.929688 93.691406 L 115.222656 93.691406 C 110.859375 93.691406 106.839844 97.15625 106.839844 101.519531 L 106.839844 149.484375 C 111.828125 148.332031 116.796875 147.734375 121.84375 147.734375 Z M 121.84375 147.734375 " fill-opacity="1" fill-rule="evenodd"/><path fill="#ffffff" d="M 186.691406 119.875 L 170.984375 119.875 C 166.625 119.875 162.539062 123.339844 162.539062 127.699219 L 162.539062 163.003906 C 163.785156 163.984375 165.023438 165.007812 166.089844 166.074219 C 177.917969 177.902344 184.558594 193.625 184.558594 210.347656 C 184.558594 227.074219 177.851562 242.796875 166.027344 254.625 C 164.960938 255.691406 163.785156 256.710938 162.539062 257.691406 L 162.539062 262.300781 C 162.539062 263.109375 163.71875 263.6875 164.527344 263.6875 L 193.148438 263.6875 C 193.957031 263.6875 194.128906 263.109375 194.128906 262.300781 L 194.128906 127.699219 C 194.128906 123.339844 191.050781 119.875 186.691406 119.875 Z M 186.691406 119.875 " fill-opacity="1" fill-rule="evenodd"/><path fill="#ffffff" d="M 122.074219 153.179688 C 90.550781 153.179688 64.90625 178.824219 64.90625 210.347656 C 64.90625 241.871094 90.550781 267.519531 122.074219 267.519531 C 153.597656 267.519531 179.246094 241.871094 179.246094 210.347656 C 179.246094 178.828125 153.597656 153.179688 122.074219 153.179688 Z M 128.453125 244.933594 L 128.453125 256.207031 L 116.816406 256.207031 L 116.816406 245.324219 C 107.257812 244.644531 98.132812 241.828125 92.503906 237.945312 L 98.9375 223.769531 C 104.957031 227.75 113.566406 230.46875 121.429688 230.46875 C 129.390625 230.46875 132.527344 228.234375 132.527344 224.933594 C 132.527344 214.15625 93.652344 222.023438 93.652344 196.777344 C 93.652344 186.101562 101.4375 177.070312 116.816406 175.128906 L 116.816406 164.765625 L 128.453125 164.765625 L 128.453125 174.933594 C 135.9375 175.515625 142.984375 177.460938 148.417969 180.664062 L 142.625 194.933594 C 136.121094 191.4375 129.777344 189.691406 123.855469 189.691406 C 115.796875 189.691406 112.914062 192.410156 112.914062 195.808594 C 112.914062 206.195312 151.21875 198.429688 151.21875 223.476562 C 151.21875 233.769531 143.417969 242.703125 128.453125 244.933594 Z M 128.453125 244.933594 " fill-opacity="1" fill-rule="nonzero"/><g fill="#483d43" fill-opacity="1"><g transform="translate(50.201969, 361.892143)"><g><path d="M 0.765625 -22.671875 C 2.3125 -15.71875 2.3125 -6.953125 0.765625 0 L 17.671875 0 C 17.09375 -3.203125 16.859375 -4.296875 16.609375 -7.796875 C 15.40625 -3.84375 10.96875 -0.765625 8.40625 -0.765625 L 7.8125 -0.765625 C 6.421875 -7.71875 6.46875 -15.859375 7.96875 -22.671875 Z M 0.765625 -22.671875 "/></g></g></g><g fill="#483d43" fill-opacity="1"><g transform="translate(69.780772, 361.892143)"><g><path d="M 11.84375 0.515625 C 18.390625 0.515625 22.921875 -4.78125 22.921875 -11.328125 C 22.921875 -17.875 18.390625 -23.171875 11.84375 -23.171875 C 5.296875 -23.171875 0.765625 -17.875 0.765625 -11.328125 C 0.765625 -4.78125 5.296875 0.515625 11.84375 0.515625 Z M 7.03125 -11.71875 C 8.375 -18.953125 11.109375 -22.203125 13.3125 -22.203125 C 15.84375 -22.203125 17.75 -18.078125 16.40625 -10.765625 C 15.453125 -5.53125 12.859375 -0.453125 9.296875 -0.453125 C 6.421875 -0.453125 5.984375 -6.15625 7.03125 -11.71875 Z M 7.03125 -11.71875 "/></g></g></g><g fill="#483d43" fill-opacity="1"><g transform="translate(95.521645, 361.892143)"><g><path d="M 6.796875 0.515625 L 11.71875 0 L 15.359375 -13.265625 C 15.4375 -13.578125 15.515625 -13.859375 15.609375 -14.15625 C 17.515625 -9.140625 19.65625 -2.296875 19.65625 0.515625 L 24.5 0 L 27.046875 -9.296875 C 29.1875 -17.09375 30.484375 -19.8125 32.625 -22.671875 L 25.03125 -22.671875 C 28.3125 -20.0625 28.34375 -16.703125 26.28125 -9.140625 L 24.65625 -3.1875 C 23.6875 -5.171875 19.234375 -16.6875 21.015625 -22.671875 L 11.65625 -22.671875 C 12.9375 -20.984375 13.59375 -19.359375 14.203125 -17.75 C 14.75 -16.296875 14.890625 -14.484375 14.546875 -13.21875 C 14.515625 -13.140625 14.515625 -13.09375 14.484375 -13.015625 L 11.796875 -3.1875 C 11.796875 -5.375 6.703125 -17.78125 8.15625 -22.671875 L -0.921875 -22.671875 C 1.828125 -18.03125 6.796875 -7.484375 6.796875 0.515625 Z M 6.796875 0.515625 "/></g></g></g><g fill="#483d43" fill-opacity="1"><g transform="translate(129.257933, 361.892143)"><g><path d="M 0.765625 0 L 19.234375 0 C 18.640625 -2.65625 18.359375 -4.734375 18.1875 -7.796875 C 16.734375 -3 12.453125 -0.765625 7.8125 -0.765625 C 7.15625 -4.078125 6.828125 -7.6875 6.828125 -10.5625 C 6.828125 -10.796875 6.984375 -10.953125 7.234375 -10.953125 L 9.109375 -10.953125 C 11.40625 -10.953125 13.171875 -10.21875 15.125 -7.40625 C 14.890625 -10.5 14.890625 -12.203125 15.125 -15.25 C 13.109375 -12.40625 11.4375 -11.71875 9.109375 -11.71875 L 7.234375 -11.71875 C 7 -11.71875 6.84375 -11.890625 6.84375 -12.125 C 6.921875 -16.09375 7.265625 -19.125 7.8125 -21.90625 C 12.484375 -21.90625 16.734375 -19.6875 18.1875 -14.875 C 18.359375 -17.921875 18.640625 -20.015625 19.234375 -22.671875 L 0.765625 -22.671875 C 2.3125 -15.71875 2.3125 -6.953125 0.765625 0 Z M 0.765625 0 "/></g></g></g><g fill="#483d43" fill-opacity="1"><g transform="translate(151.052026, 361.892143)"><g><path d="M 7.5625 -9.578125 C 8.578125 -9.0625 10.109375 -8.375 11.40625 -7.484375 C 15.484375 -4.6875 13.171875 -0.28125 9.53125 -0.28125 C 7.078125 -0.28125 3.28125 -2.21875 1.578125 -7.796875 C 1.34375 -4.28125 0.921875 -1.8125 0.515625 0 C 1.25 -0.328125 1.984375 -0.40625 2.703125 -0.359375 C 4.453125 -0.234375 7.1875 0.515625 9.578125 0.515625 C 11.71875 0.515625 13.828125 0.078125 15.484375 -0.765625 C 17.828125 -1.9375 19.578125 -4.09375 19.578125 -6.796875 C 19.5625 -11.234375 14.203125 -12.890625 10.0625 -14.71875 C 3.609375 -17.546875 7.28125 -22.359375 9.953125 -22.359375 C 12.40625 -22.359375 15.234375 -20.453125 16.9375 -14.875 C 17.140625 -18.390625 17.578125 -20.859375 17.984375 -22.671875 C 17.234375 -22.328125 16.53125 -22.265625 15.796875 -22.3125 C 14.0625 -22.4375 11.9375 -23.15625 9.546875 -23.15625 C 5.265625 -23.171875 0.515625 -21.109375 0.515625 -17.0625 C 0.515625 -13.265625 4.125 -11.234375 7.5625 -9.578125 Z M 7.5625 -9.578125 "/></g></g></g><g fill="#483d43" fill-opacity="1"><g transform="translate(172.693339, 361.892143)"><g><path d="M 0 -22.671875 C 0.65625 -19.71875 0.921875 -17.46875 1.09375 -13.796875 C 1.9375 -17.5 3.203125 -21.90625 6.921875 -21.90625 C 7.484375 -19.125 7.8125 -16.09375 7.921875 -12.125 C 7.96875 -7.921875 7.53125 -3.71875 6.703125 0 L 13.90625 0 C 13.0625 -3.796875 12.6875 -7.96875 12.734375 -12.125 C 12.8125 -16.09375 13.140625 -19.125 13.703125 -21.90625 C 17.515625 -21.90625 18.6875 -17.46875 19.53125 -13.75 C 19.71875 -17.4375 19.984375 -19.71875 20.65625 -22.671875 Z M 0 -22.671875 "/></g></g></g><g fill="#483d43" fill-opacity="1"><g transform="translate(195.404104, 361.892143)"><g/></g></g><g fill="#483d43" fill-opacity="1"><g transform="translate(204.084698, 361.892143)"><g><path d="M 0.765625 0 L 7.96875 0 C 7.4375 -2.46875 7.078125 -5.140625 6.921875 -7.890625 L 9.859375 -7.890625 C 23.25 -7.921875 23.96875 -22.640625 9.859375 -22.671875 L 0.796875 -22.671875 C 2.3125 -15.71875 2.3125 -6.953125 0.765625 0 Z M 6.84375 -12.6875 C 6.84375 -15.40625 6.984375 -21.828125 10.640625 -21.828125 C 12.609375 -21.828125 13.734375 -20.375 14.3125 -18.609375 C 16.0625 -13.46875 12.703125 -8.8125 9.34375 -8.8125 L 6.875 -8.8125 C 6.828125 -10.546875 6.84375 -11.1875 6.84375 -12.6875 Z M 6.84375 -12.6875 "/></g></g></g><g fill="#483d43" fill-opacity="1"><g transform="translate(226.337127, 361.892143)"><g><path d="M 7.96875 0 C 7.4375 -2.46875 6.875 -6.390625 6.84375 -9.953125 L 9.34375 -9.953125 C 11.484375 -6.265625 12.296875 -2.34375 12.09375 0 L 21.0625 0 C 19 -1.984375 16.0625 -6.71875 14.140625 -10.46875 C 23.484375 -12.78125 22.328125 -22.640625 9.859375 -22.671875 L 0.796875 -22.671875 C 2.3125 -15.71875 2.3125 -6.953125 0.765625 0 Z M 6.828125 -10.875 C 6.828125 -16.21875 7.59375 -21.796875 10.765625 -21.796875 C 13.0625 -21.796875 14.203125 -19.484375 14.625 -17.546875 C 15.375 -13.78125 13.390625 -10.875 9.265625 -10.875 Z M 6.828125 -10.875 "/></g></g></g><g fill="#483d43" fill-opacity="1"><g transform="translate(249.302511, 361.892143)"><g><path d="M 7.96875 0 C 6.4375 -6.953125 6.4375 -15.71875 7.96875 -22.671875 L 0.765625 -22.671875 C 2.3125 -15.71875 2.3125 -6.953125 0.765625 0 Z M 7.96875 0 "/></g></g></g><g fill="#483d43" fill-opacity="1"><g transform="translate(260.096532, 361.892143)"><g><path d="M 9.109375 0.109375 C 10.34375 0.40625 11.25 0.53125 12.078125 0.53125 C 13.515625 0.53125 14.671875 0.15625 16.703125 -0.234375 C 17.171875 -0.3125 17.703125 -0.359375 18.234375 -0.359375 C 19.03125 -0.359375 19.859375 -0.25 20.625 -0.078125 L 20.890625 0 C 20.46875 -1.984375 20.21875 -3.671875 20.046875 -5.75 C 19.046875 -2.875 15.859375 -0.359375 12.9375 -0.359375 C 10.015625 -0.359375 7.3125 -2.90625 7.3125 -10.21875 C 7.3125 -17.21875 11.109375 -22.109375 14.5625 -22.109375 C 16.890625 -22.109375 19.078125 -19.890625 19.8125 -14.59375 C 19.984375 -17.4375 20.34375 -20.140625 20.890625 -22.671875 L 20.625 -22.59375 C 20.046875 -22.46875 19.40625 -22.390625 18.75 -22.390625 C 17.796875 -22.390625 16.859375 -22.515625 16.0625 -22.765625 C 15.3125 -23.015625 14.28125 -23.171875 12.578125 -23.171875 C 5.546875 -23.15625 0.765625 -17.515625 0.765625 -10.96875 C 0.765625 -6.09375 4.03125 -1.140625 9.109375 0.109375 Z M 9.109375 0.109375 "/></g></g></g><g fill="#483d43" fill-opacity="1"><g transform="translate(283.418399, 361.892143)"><g><path d="M 0.765625 0 L 19.234375 0 C 18.640625 -2.65625 18.359375 -4.734375 18.1875 -7.796875 C 16.734375 -3 12.453125 -0.765625 7.8125 -0.765625 C 7.15625 -4.078125 6.828125 -7.6875 6.828125 -10.5625 C 6.828125 -10.796875 6.984375 -10.953125 7.234375 -10.953125 L 9.109375 -10.953125 C 11.40625 -10.953125 13.171875 -10.21875 15.125 -7.40625 C 14.890625 -10.5 14.890625 -12.203125 15.125 -15.25 C 13.109375 -12.40625 11.4375 -11.71875 9.109375 -11.71875 L 7.234375 -11.71875 C 7 -11.71875 6.84375 -11.890625 6.84375 -12.125 C 6.921875 -16.09375 7.265625 -19.125 7.8125 -21.90625 C 12.484375 -21.90625 16.734375 -19.6875 18.1875 -14.875 C 18.359375 -17.921875 18.640625 -20.015625 19.234375 -22.671875 L 0.765625 -22.671875 C 2.3125 -15.71875 2.3125 -6.953125 0.765625 0 Z M 0.765625 0 "/></g></g></g><g fill="#483d43" fill-opacity="1"><g transform="translate(305.212481, 361.892143)"><g><path d="M 7.5625 -9.578125 C 8.578125 -9.0625 10.109375 -8.375 11.40625 -7.484375 C 15.484375 -4.6875 13.171875 -0.28125 9.53125 -0.28125 C 7.078125 -0.28125 3.28125 -2.21875 1.578125 -7.796875 C 1.34375 -4.28125 0.921875 -1.8125 0.515625 0 C 1.25 -0.328125 1.984375 -0.40625 2.703125 -0.359375 C 4.453125 -0.234375 7.1875 0.515625 9.578125 0.515625 C 11.71875 0.515625 13.828125 0.078125 15.484375 -0.765625 C 17.828125 -1.9375 19.578125 -4.09375 19.578125 -6.796875 C 19.5625 -11.234375 14.203125 -12.890625 10.0625 -14.71875 C 3.609375 -17.546875 7.28125 -22.359375 9.953125 -22.359375 C 12.40625 -22.359375 15.234375 -20.453125 16.9375 -14.875 C 17.140625 -18.390625 17.578125 -20.859375 17.984375 -22.671875 C 17.234375 -22.328125 16.53125 -22.265625 15.796875 -22.3125 C 14.0625 -22.4375 11.9375 -23.15625 9.546875 -23.15625 C 5.265625 -23.171875 0.515625 -21.109375 0.515625 -17.0625 C 0.515625 -13.265625 4.125 -11.234375 7.5625 -9.578125 Z M 7.5625 -9.578125 "/></g></g></g></svg>