<svg xmlns="http://www.w3.org/2000/svg" xmlns:xlink="http://www.w3.org/1999/xlink" width="700" zoomAndPan="magnify" viewBox="0 0 525 525.000007" height="700" preserveAspectRatio="xMidYMid meet" version="1.0"><defs><g/><clipPath id="362e9ebe11"><path d="M 52.898438 24.679688 L 472.101562 24.679688 L 472.101562 443.882812 L 52.898438 443.882812 Z M 52.898438 24.679688 " clip-rule="nonzero"/></clipPath></defs><g clip-path="url(#362e9ebe11)"><path fill="#878d5d" d="M 472.101562 234.28125 C 472.101562 237.710938 472.015625 241.140625 471.847656 244.566406 C 471.679688 247.992188 471.425781 251.410156 471.089844 254.824219 C 470.753906 258.238281 470.335938 261.644531 469.832031 265.035156 C 469.328125 268.429688 468.742188 271.808594 468.074219 275.171875 C 467.402344 278.535156 466.652344 281.882812 465.820312 285.210938 C 464.984375 288.539062 464.070312 291.84375 463.074219 295.125 C 462.078125 298.40625 461.003906 301.664062 459.847656 304.894531 C 458.691406 308.125 457.457031 311.324219 456.144531 314.492188 C 454.832031 317.660156 453.445312 320.796875 451.976562 323.898438 C 450.511719 327 448.96875 330.0625 447.351562 333.085938 C 445.734375 336.113281 444.042969 339.09375 442.28125 342.039062 C 440.515625 344.980469 438.683594 347.878906 436.777344 350.730469 C 434.871094 353.582031 432.894531 356.386719 430.851562 359.140625 C 428.808594 361.894531 426.699219 364.597656 424.523438 367.25 C 422.347656 369.902344 420.109375 372.5 417.804688 375.039062 C 415.5 377.582031 413.136719 380.066406 410.710938 382.492188 C 408.285156 384.917969 405.800781 387.28125 403.257812 389.585938 C 400.71875 391.890625 398.121094 394.128906 395.46875 396.304688 C 392.816406 398.480469 390.113281 400.589844 387.359375 402.632812 C 384.605469 404.675781 381.800781 406.652344 378.949219 408.558594 C 376.097656 410.464844 373.199219 412.296875 370.257812 414.0625 C 367.3125 415.824219 364.332031 417.515625 361.304688 419.132812 C 358.28125 420.75 355.214844 422.292969 352.117188 423.757812 C 349.015625 425.226562 345.878906 426.613281 342.710938 427.925781 C 339.542969 429.238281 336.34375 430.472656 333.113281 431.628906 C 329.882812 432.785156 326.625 433.859375 323.34375 434.855469 C 320.0625 435.851562 316.757812 436.765625 313.429688 437.601562 C 310.101562 438.433594 306.753906 439.183594 303.390625 439.855469 C 300.027344 440.523438 296.648438 441.109375 293.253906 441.613281 C 289.863281 442.117188 286.457031 442.535156 283.042969 442.871094 C 279.628906 443.210938 276.210938 443.460938 272.785156 443.628906 C 269.359375 443.796875 265.929688 443.882812 262.5 443.882812 C 259.070312 443.882812 255.640625 443.796875 252.214844 443.628906 C 248.789062 443.460938 245.371094 443.210938 241.957031 442.871094 C 238.542969 442.535156 235.136719 442.117188 231.746094 441.613281 C 228.351562 441.109375 224.972656 440.523438 221.609375 439.855469 C 218.246094 439.183594 214.898438 438.433594 211.570312 437.601562 C 208.242188 436.765625 204.9375 435.851562 201.65625 434.855469 C 198.375 433.859375 195.117188 432.785156 191.886719 431.628906 C 188.65625 430.472656 185.457031 429.238281 182.289062 427.925781 C 179.121094 426.613281 175.984375 425.226562 172.882812 423.757812 C 169.78125 422.292969 166.71875 420.75 163.695312 419.132812 C 160.667969 417.515625 157.6875 415.824219 154.742188 414.0625 C 151.800781 412.296875 148.902344 410.464844 146.050781 408.558594 C 143.199219 406.652344 140.394531 404.675781 137.640625 402.632812 C 134.886719 400.589844 132.183594 398.480469 129.53125 396.304688 C 126.878906 394.128906 124.28125 391.890625 121.742188 389.585938 C 119.199219 387.28125 116.714844 384.917969 114.289062 382.492188 C 111.863281 380.066406 109.5 377.582031 107.195312 375.039062 C 104.890625 372.5 102.652344 369.902344 100.476562 367.25 C 98.300781 364.597656 96.191406 361.894531 94.148438 359.140625 C 92.105469 356.386719 90.128906 353.582031 88.222656 350.730469 C 86.316406 347.878906 84.484375 344.980469 82.71875 342.039062 C 80.957031 339.09375 79.265625 336.113281 77.648438 333.085938 C 76.03125 330.0625 74.488281 327 73.023438 323.898438 C 71.554688 320.796875 70.167969 317.660156 68.855469 314.492188 C 67.542969 311.324219 66.308594 308.125 65.152344 304.894531 C 63.996094 301.664062 62.921875 298.40625 61.925781 295.125 C 60.929688 291.84375 60.015625 288.539062 59.179688 285.210938 C 58.347656 281.882812 57.597656 278.535156 56.925781 275.171875 C 56.257812 271.808594 55.671875 268.429688 55.167969 265.035156 C 54.664062 261.644531 54.246094 258.238281 53.910156 254.824219 C 53.574219 251.410156 53.320312 247.992188 53.152344 244.566406 C 52.984375 241.140625 52.898438 237.710938 52.898438 234.28125 C 52.898438 230.851562 52.984375 227.421875 53.152344 223.996094 C 53.320312 220.570312 53.574219 217.152344 53.910156 213.738281 C 54.246094 210.324219 54.664062 206.917969 55.167969 203.527344 C 55.671875 200.132812 56.257812 196.753906 56.925781 193.390625 C 57.597656 190.027344 58.347656 186.679688 59.179688 183.351562 C 60.015625 180.023438 60.929688 176.71875 61.925781 173.4375 C 62.921875 170.15625 63.996094 166.898438 65.152344 163.667969 C 66.308594 160.4375 67.542969 157.238281 68.855469 154.070312 C 70.167969 150.902344 71.554688 147.765625 73.023438 144.664062 C 74.488281 141.566406 76.03125 138.5 77.648438 135.476562 C 79.265625 132.449219 80.957031 129.46875 82.71875 126.523438 C 84.484375 123.582031 86.316406 120.683594 88.222656 117.832031 C 90.128906 114.980469 92.105469 112.175781 94.148438 109.421875 C 96.191406 106.667969 98.300781 103.964844 100.476562 101.3125 C 102.652344 98.660156 104.890625 96.0625 107.195312 93.523438 C 109.5 90.980469 111.863281 88.496094 114.289062 86.070312 C 116.714844 83.644531 119.199219 81.28125 121.742188 78.976562 C 124.28125 76.671875 126.878906 74.433594 129.53125 72.257812 C 132.183594 70.082031 134.886719 67.972656 137.640625 65.929688 C 140.394531 63.886719 143.199219 61.910156 146.050781 60.003906 C 148.902344 58.097656 151.800781 56.265625 154.742188 54.5 C 157.6875 52.738281 160.667969 51.046875 163.695312 49.429688 C 166.71875 47.8125 169.78125 46.269531 172.882812 44.804688 C 175.984375 43.335938 179.121094 41.949219 182.289062 40.636719 C 185.457031 39.324219 188.65625 38.089844 191.886719 36.933594 C 195.117188 35.777344 198.375 34.703125 201.65625 33.707031 C 204.9375 32.710938 208.242188 31.796875 211.570312 30.960938 C 214.898438 30.128906 218.246094 29.378906 221.609375 28.707031 C 224.972656 28.039062 228.351562 27.453125 231.746094 26.949219 C 235.136719 26.445312 238.542969 26.027344 241.957031 25.691406 C 245.371094 25.355469 248.789062 25.101562 252.214844 24.933594 C 255.640625 24.765625 259.070312 24.679688 262.5 24.679688 C 265.929688 24.679688 269.359375 24.765625 272.785156 24.933594 C 276.210938 25.101562 279.628906 25.355469 283.042969 25.691406 C 286.457031 26.027344 289.863281 26.445312 293.253906 26.949219 C 296.648438 27.453125 300.027344 28.039062 303.390625 28.707031 C 306.753906 29.378906 310.101562 30.128906 313.429688 30.960938 C 316.757812 31.796875 320.0625 32.710938 323.34375 33.707031 C 326.625 34.703125 329.882812 35.777344 333.113281 36.933594 C 336.34375 38.089844 339.542969 39.324219 342.710938 40.636719 C 345.878906 41.949219 349.015625 43.335938 352.117188 44.804688 C 355.214844 46.269531 358.28125 47.8125 361.304688 49.429688 C 364.332031 51.046875 367.3125 52.738281 370.257812 54.5 C 373.199219 56.265625 376.097656 58.097656 378.949219 60.003906 C 381.800781 61.910156 384.605469 63.886719 387.359375 65.929688 C 390.113281 67.972656 392.816406 70.082031 395.46875 72.257812 C 398.121094 74.433594 400.71875 76.671875 403.257812 78.976562 C 405.800781 81.28125 408.285156 83.644531 410.710938 86.070312 C 413.136719 88.496094 415.5 90.980469 417.804688 93.523438 C 420.109375 96.0625 422.347656 98.660156 424.523438 101.3125 C 426.699219 103.964844 428.808594 106.667969 430.851562 109.421875 C 432.894531 112.175781 434.871094 114.980469 436.777344 117.832031 C 438.683594 120.683594 440.515625 123.582031 442.28125 126.523438 C 444.042969 129.46875 445.734375 132.449219 447.351562 135.476562 C 448.96875 138.5 450.511719 141.566406 451.976562 144.664062 C 453.445312 147.765625 454.832031 150.902344 456.144531 154.070312 C 457.457031 157.238281 458.691406 160.4375 459.847656 163.667969 C 461.003906 166.898438 462.078125 170.15625 463.074219 173.4375 C 464.070312 176.71875 464.984375 180.023438 465.820312 183.351562 C 466.652344 186.679688 467.402344 190.027344 468.074219 193.390625 C 468.742188 196.753906 469.328125 200.132812 469.832031 203.527344 C 470.335938 206.917969 470.753906 210.324219 471.089844 213.738281 C 471.425781 217.152344 471.679688 220.570312 471.847656 223.996094 C 472.015625 227.421875 472.101562 230.851562 472.101562 234.28125 Z M 472.101562 234.28125 " fill-opacity="1" fill-rule="nonzero"/></g><path fill="#fefefe" d="M 314.988281 285.019531 L 311.230469 285.019531 C 309.226562 285.019531 307.652344 286.679688 307.652344 288.597656 L 307.652344 320.472656 C 307.652344 322.480469 309.3125 324.054688 311.230469 324.054688 L 352.449219 324.054688 C 354.457031 324.054688 356.027344 322.390625 356.027344 320.472656 L 356.027344 288.597656 C 356.027344 286.59375 354.367188 285.019531 352.449219 285.019531 Z M 328.609375 309.125 L 328.609375 300.035156 C 328.609375 298.207031 330.09375 296.800781 331.847656 296.800781 C 333.675781 296.800781 335.082031 298.285156 335.082031 300.035156 L 335.082031 309.125 C 335.082031 310.953125 333.597656 312.359375 331.847656 312.359375 C 330.09375 312.359375 328.609375 310.875 328.609375 309.125 Z M 328.609375 309.125 " fill-opacity="1" fill-rule="evenodd"/><path fill="#fefefe" d="M 318.300781 254.109375 L 318.300781 278.46875 L 345.554688 278.46875 L 345.554688 254.109375 C 345.554688 252.015625 343.894531 250.351562 341.796875 250.351562 L 321.972656 250.351562 C 319.964844 250.351562 318.300781 252.089844 318.300781 254.109375 Z M 318.300781 254.109375 " fill-opacity="1" fill-rule="evenodd"/><path fill="#fefefe" d="M 307.296875 232.53125 C 297.601562 242.394531 284.855469 251.304688 266.511719 256.8125 C 265.546875 261.535156 263.453125 275.765625 268.261719 293.574219 C 275.945312 322.222656 297.953125 347.726562 331.921875 367.289062 C 374.980469 342.484375 390.351562 313.402344 395.671875 293.230469 C 400.394531 275.410156 398.289062 261.535156 397.335938 256.8125 C 364.851562 247.117188 349.910156 225.902344 340.835938 213.144531 C 337.519531 208.425781 333.761719 203.105469 331.921875 203.105469 C 330.082031 203.105469 326.335938 208.4375 323.011719 213.144531 C 318.035156 220.039062 313.757812 225.890625 307.296875 232.53125 Z M 311.753906 278.46875 L 311.753906 254.109375 C 311.753906 248.433594 316.386719 243.800781 322.058594 243.800781 L 341.886719 243.800781 C 347.5625 243.800781 352.195312 248.433594 352.195312 254.109375 L 352.195312 278.46875 L 352.625 278.46875 C 358.210938 278.46875 362.757812 283.011719 362.757812 288.597656 L 362.757812 320.472656 C 362.757812 326.058594 358.210938 330.601562 352.625 330.601562 L 311.410156 330.601562 C 305.824219 330.601562 301.277344 326.058594 301.277344 320.472656 L 301.277344 288.597656 C 301.277344 283.011719 305.824219 278.46875 311.410156 278.46875 Z M 311.753906 278.46875 " fill-opacity="1" fill-rule="evenodd"/><path fill="#fefefe" d="M 224.941406 250.527344 L 224.941406 288.699219 C 224.941406 289.75 224.417969 290.703125 223.632812 291.3125 C 236.121094 291.046875 248.082031 288.34375 259.441406 283.367188 C 257.167969 267.121094 259.875 255.683594 260.492188 253.585938 C 261.105469 251.316406 262.5 251.136719 264.339844 250.617188 C 268.972656 249.308594 273.503906 247.558594 277.871094 245.464844 L 263.109375 240.578125 L 245.289062 258.917969 C 243.195312 261.011719 240.046875 261.28125 237.683594 259.617188 Z M 224.941406 250.527344 " fill-opacity="1" fill-rule="evenodd"/><path fill="#fefefe" d="M 202.410156 260.738281 C 200.835938 260.738281 199.347656 260.125 198.21875 258.90625 L 180.398438 240.566406 L 164.683594 245.71875 C 159.007812 247.8125 154.375 252.003906 151.671875 257.511719 C 151.316406 258.210938 150.792969 258.730469 150.183594 258.996094 C 167.296875 278.378906 192.101562 290.78125 219.875 291.226562 C 219.089844 290.617188 218.566406 289.652344 218.566406 288.609375 L 218.566406 250.441406 L 205.898438 259.527344 C 204.769531 260.394531 203.550781 260.738281 202.410156 260.738281 Z M 202.410156 260.738281 " fill-opacity="1" fill-rule="evenodd"/><path fill="#fefefe" d="M 201.542969 233.671875 L 187.300781 238.382812 L 202.496094 254.019531 L 216.128906 244.144531 Z M 201.542969 233.671875 " fill-opacity="1" fill-rule="evenodd"/><path fill="#fefefe" d="M 126.257812 196.289062 C 126.257812 218.035156 133.59375 238.117188 145.996094 254.1875 C 149.488281 247.457031 155.25 242.304688 162.410156 239.691406 L 162.5 239.691406 L 180.054688 233.925781 C 180.230469 233.839844 180.320312 233.839844 180.484375 233.75 L 198.828125 227.71875 L 198.828125 225.804688 L 185.117188 225.804688 C 177.171875 225.804688 170.710938 219.683594 170.710938 212.09375 L 170.710938 156.023438 C 170.710938 146.160156 174.378906 136.640625 181.105469 129.304688 C 185.5625 124.417969 191.238281 120.214844 197.355469 117.257812 C 209.324219 111.40625 232.808594 104.941406 255.519531 127.296875 C 259.007812 128.171875 269.140625 131.753906 272.019531 144.5 C 272.453125 146.328125 272.628906 148.253906 272.628906 150.4375 L 272.628906 212.09375 C 272.628906 219.695312 266.167969 225.804688 258.3125 225.804688 L 244.601562 225.804688 L 244.601562 227.632812 L 281.019531 239.601562 C 282.503906 240.121094 283.902344 240.820312 285.210938 241.519531 C 298.742188 233.484375 307.742188 223 314.898438 213.136719 C 315.863281 207.550781 316.386719 201.863281 316.386719 196.277344 C 316.386719 143.878906 273.769531 101.265625 221.371094 101.265625 C 168.960938 101.273438 126.257812 143.890625 126.257812 196.289062 Z M 126.257812 196.289062 " fill-opacity="1" fill-rule="evenodd"/><path fill="#fefefe" d="M 177.261719 212.09375 C 177.261719 216.027344 180.753906 219.253906 185.117188 219.253906 L 198.828125 219.253906 L 198.828125 216.546875 C 190.183594 209.566406 184.332031 198.816406 183.8125 186.855469 L 183.8125 186.769531 L 183.289062 162.230469 C 183.203125 160.046875 185.386719 158.386719 187.480469 158.996094 C 187.746094 159.082031 214.023438 166.332031 236.910156 148.863281 C 238.570312 147.644531 240.921875 148.167969 241.796875 149.996094 C 241.972656 150.425781 246.949219 160.035156 256.648438 158.816406 C 258.566406 158.550781 260.316406 160.125 260.316406 162.054688 L 260.316406 186.589844 C 260.316406 186.679688 260.316406 186.679688 260.316406 186.769531 C 259.707031 198.992188 253.679688 209.910156 244.765625 216.902344 L 244.765625 219.175781 L 258.300781 219.175781 C 262.578125 219.175781 266.15625 215.9375 266.15625 212.015625 L 266.15625 150.359375 C 266.15625 148.699219 265.980469 147.214844 265.726562 145.816406 C 263.277344 134.988281 253.589844 133.414062 253.5 133.328125 C 252.800781 133.238281 252.191406 132.894531 251.671875 132.363281 C 232.632812 113.066406 213.246094 116.558594 200.324219 122.929688 C 194.90625 125.636719 189.929688 129.304688 186.003906 133.582031 C 180.417969 139.699219 177.273438 147.644531 177.273438 155.847656 L 177.273438 212.09375 Z M 177.261719 212.09375 " fill-opacity="1" fill-rule="evenodd"/><path fill="#fefefe" d="M 190.273438 186.679688 C 191.148438 203.878906 205.644531 218.464844 221.96875 218.464844 C 238.292969 218.464844 252.800781 203.96875 253.667969 186.679688 L 253.667969 165.632812 C 245.71875 165.203125 240.476562 159.871094 237.863281 156.289062 C 218.644531 169.390625 198.472656 167.816406 189.828125 166.332031 Z M 190.273438 186.679688 " fill-opacity="1" fill-rule="evenodd"/><path fill="#fefefe" d="M 221.980469 224.9375 C 216.039062 224.9375 210.367188 223.453125 205.300781 220.835938 L 205.300781 228.351562 L 221.714844 240.144531 L 238.050781 228.351562 L 238.050781 221.105469 C 233.152344 223.628906 227.742188 224.9375 221.980469 224.9375 Z M 221.980469 224.9375 " fill-opacity="1" fill-rule="evenodd"/><path fill="#fefefe" d="M 241.886719 233.671875 L 227.300781 244.144531 L 241.011719 254.019531 L 256.214844 238.382812 Z M 241.886719 233.671875 " fill-opacity="1" fill-rule="evenodd"/><g fill="#483d43" fill-opacity="1"><g transform="translate(73.432644, 509.538496)"><g><path d="M 2.328125 -13.53125 C 2.328125 -4.3125 9.171875 0.78125 15.796875 0.78125 C 25.125 0.78125 28.125 -6.0625 28.125 -13.65625 C 28.125 -28.703125 29.5625 -31.890625 31.5 -34.609375 L 21.390625 -34.609375 C 24.890625 -31.8125 27 -26.875 27 -13.65625 C 27 -8.484375 25.046875 -1.125 18.671875 -1.125 C 14.390625 -1.125 9.84375 -5.0625 9.84375 -13.65625 C 9.84375 -24.546875 10.421875 -29.28125 11.59375 -34.609375 L 0.578125 -34.609375 C 1.828125 -28.96875 2.328125 -23.953125 2.328125 -13.53125 Z M 2.328125 -13.53125 "/></g></g></g><g fill="#483d43" fill-opacity="1"><g transform="translate(108.471815, 509.538496)"><g><path d="M 11.546875 -14.625 C 13.109375 -13.84375 15.4375 -12.796875 17.421875 -11.4375 C 23.640625 -7.15625 20.109375 -0.421875 14.546875 -0.421875 C 10.8125 -0.421875 5.015625 -3.390625 2.40625 -11.90625 C 2.0625 -6.53125 1.40625 -2.765625 0.78125 0 C 1.90625 -0.5 3.03125 -0.625 4.125 -0.546875 C 6.8125 -0.34375 10.96875 0.78125 14.625 0.78125 C 17.890625 0.78125 21.125 0.109375 23.640625 -1.171875 C 27.21875 -2.953125 29.90625 -6.265625 29.90625 -10.390625 C 29.875 -17.15625 21.703125 -19.6875 15.359375 -22.484375 C 5.515625 -26.796875 11.125 -34.15625 15.203125 -34.15625 C 18.9375 -34.15625 23.265625 -31.234375 25.859375 -22.71875 C 26.171875 -28.078125 26.84375 -31.859375 27.453125 -34.609375 C 26.328125 -34.109375 25.25 -34 24.109375 -34.078125 C 21.46875 -34.265625 18.234375 -35.359375 14.578125 -35.359375 C 8.046875 -35.390625 0.78125 -32.25 0.78125 -26.0625 C 0.78125 -20.265625 6.296875 -17.15625 11.546875 -14.625 Z M 11.546875 -14.625 "/></g></g></g><g fill="#483d43" fill-opacity="1"><g transform="translate(141.52744, 509.538496)"><g><path d="M 1.171875 0 L 29.359375 0 C 28.46875 -4.046875 28.046875 -7.234375 27.765625 -11.90625 C 25.546875 -4.59375 19.015625 -1.171875 11.9375 -1.171875 C 10.921875 -6.21875 10.421875 -11.75 10.421875 -16.140625 C 10.421875 -16.484375 10.65625 -16.71875 11.046875 -16.71875 L 13.921875 -16.71875 C 17.421875 -16.71875 20.109375 -15.59375 23.109375 -11.3125 C 22.75 -16.03125 22.75 -18.625 23.109375 -23.296875 C 20.03125 -18.9375 17.46875 -17.890625 13.921875 -17.890625 L 11.046875 -17.890625 C 10.703125 -17.890625 10.46875 -18.15625 10.46875 -18.515625 C 10.578125 -24.578125 11.078125 -29.203125 11.9375 -33.453125 C 19.0625 -33.453125 25.546875 -30.0625 27.765625 -22.71875 C 28.046875 -27.375 28.46875 -30.578125 29.359375 -34.609375 L 1.171875 -34.609375 C 3.546875 -24 3.546875 -10.625 1.171875 0 Z M 1.171875 0 "/></g></g></g><g fill="#483d43" fill-opacity="1"><g transform="translate(174.816419, 509.538496)"><g><path d="M 12.171875 0 C 11.359375 -3.765625 10.5 -9.765625 10.46875 -15.203125 L 14.28125 -15.203125 C 17.546875 -9.5625 18.78125 -3.578125 18.46875 0 L 32.171875 0 C 29.015625 -3.03125 24.546875 -10.265625 21.59375 -15.984375 C 35.859375 -19.53125 34.109375 -34.578125 15.046875 -34.609375 L 1.203125 -34.609375 C 3.546875 -24 3.546875 -10.625 1.171875 0 Z M 10.421875 -16.609375 C 10.421875 -24.78125 11.59375 -33.296875 16.453125 -33.296875 C 19.953125 -33.296875 21.703125 -29.75 22.328125 -26.796875 C 23.5 -21.046875 20.453125 -16.609375 14.15625 -16.609375 Z M 10.421875 -16.609375 "/></g></g></g><g fill="#483d43" fill-opacity="1"><g transform="translate(209.894477, 509.538496)"><g/></g></g><g fill="#483d43" fill-opacity="1"><g transform="translate(223.153546, 509.538496)"><g><path d="M 1.171875 0 L 12.171875 0 C 11.359375 -3.765625 10.8125 -7.859375 10.578125 -12.0625 L 15.046875 -12.0625 C 35.515625 -12.09375 36.59375 -34.578125 15.046875 -34.609375 L 1.203125 -34.609375 C 3.546875 -24 3.546875 -10.625 1.171875 0 Z M 10.46875 -19.375 C 10.46875 -23.53125 10.65625 -33.328125 16.265625 -33.328125 C 19.25 -33.328125 20.96875 -31.109375 21.859375 -28.4375 C 24.546875 -20.578125 19.40625 -13.453125 14.28125 -13.453125 L 10.5 -13.453125 C 10.421875 -16.109375 10.46875 -17.078125 10.46875 -19.375 Z M 10.46875 -19.375 "/></g></g></g><g fill="#483d43" fill-opacity="1"><g transform="translate(257.142599, 509.538496)"><g><path d="M 12.171875 0 C 11.359375 -3.765625 10.5 -9.765625 10.46875 -15.203125 L 14.28125 -15.203125 C 17.546875 -9.5625 18.78125 -3.578125 18.46875 0 L 32.171875 0 C 29.015625 -3.03125 24.546875 -10.265625 21.59375 -15.984375 C 35.859375 -19.53125 34.109375 -34.578125 15.046875 -34.609375 L 1.203125 -34.609375 C 3.546875 -24 3.546875 -10.625 1.171875 0 Z M 10.421875 -16.609375 C 10.421875 -24.78125 11.59375 -33.296875 16.453125 -33.296875 C 19.953125 -33.296875 21.703125 -29.75 22.328125 -26.796875 C 23.5 -21.046875 20.453125 -16.609375 14.15625 -16.609375 Z M 10.421875 -16.609375 "/></g></g></g><g fill="#483d43" fill-opacity="1"><g transform="translate(292.220657, 509.538496)"><g><path d="M 12.171875 0 C 9.84375 -10.625 9.84375 -24 12.171875 -34.609375 L 1.171875 -34.609375 C 3.546875 -24 3.546875 -10.625 1.171875 0 Z M 12.171875 0 "/></g></g></g><g fill="#483d43" fill-opacity="1"><g transform="translate(308.707838, 509.538496)"><g><path d="M 13.296875 0.78125 L 20.140625 0 L 26.015625 -14.625 C 30.578125 -25.859375 32.59375 -30.5 35.703125 -34.609375 L 24.234375 -34.609375 C 29.25 -30.65625 29.171875 -25.28125 24.734375 -14.234375 L 20.921875 -4.859375 C 20.921875 -6.53125 10.703125 -25.46875 13.421875 -34.609375 L -0.421875 -34.609375 C 7.3125 -21.8125 13.296875 -1.5625 13.296875 0.78125 Z M 13.296875 0.78125 "/></g></g></g><g fill="#483d43" fill-opacity="1"><g transform="translate(347.208484, 509.538496)"><g><path d="M 0 0 L 11.46875 0 C 8.015625 -2.765625 7 -6.140625 8.125 -11.59375 L 21.515625 -11.59375 C 22.640625 -7.078125 23.109375 -2.765625 22.28125 0 L 36.171875 0 C 28.4375 -12.796875 22.40625 -33.0625 22.40625 -35.390625 L 15.59375 -34.609375 L 9.6875 -19.984375 C 5.171875 -8.75 3.15625 -4.125 0 0 Z M 8.40625 -12.796875 C 8.953125 -14.96875 9.84375 -17.46875 11 -20.375 L 14.234375 -28.4375 C 16.6875 -25.328125 19.484375 -18.984375 21.203125 -12.796875 Z M 8.40625 -12.796875 "/></g></g></g><g fill="#483d43" fill-opacity="1"><g transform="translate(385.436891, 509.538496)"><g><path d="M 13.921875 0.15625 C 15.796875 0.625 17.1875 0.8125 18.4375 0.8125 C 20.65625 0.8125 22.40625 0.234375 25.515625 -0.34375 C 26.21875 -0.46875 27.03125 -0.546875 27.84375 -0.546875 C 29.046875 -0.546875 30.34375 -0.390625 31.5 -0.109375 L 31.890625 0 C 31.265625 -3.03125 30.875 -5.59375 30.609375 -8.796875 C 29.09375 -4.390625 24.234375 -0.546875 19.765625 -0.546875 C 15.28125 -0.546875 11.15625 -4.4375 11.15625 -15.59375 C 11.15625 -26.296875 16.953125 -33.765625 22.25 -33.765625 C 25.78125 -33.765625 29.125 -30.375 30.265625 -22.28125 C 30.53125 -26.640625 31.078125 -30.765625 31.890625 -34.609375 L 31.5 -34.5 C 30.609375 -34.3125 29.640625 -34.1875 28.625 -34.1875 C 27.1875 -34.1875 25.75 -34.390625 24.546875 -34.765625 C 23.375 -35.15625 21.8125 -35.390625 19.21875 -35.390625 C 8.484375 -35.359375 1.171875 -26.765625 1.171875 -16.765625 C 1.171875 -9.296875 6.140625 -1.75 13.921875 0.15625 Z M 13.921875 0.15625 "/></g></g></g><g fill="#483d43" fill-opacity="1"><g transform="translate(421.059451, 509.538496)"><g><path d="M -1.9375 -34.609375 C 1.28125 -32.859375 10.734375 -15.71875 12.015625 -10.890625 C 11.828125 -6.734375 11.234375 -3.96875 10.390625 0 L 21.390625 0 C 20.375 -4.625 19.796875 -8.171875 19.640625 -13.0625 C 22.28125 -20.0625 27.21875 -30.265625 32.4375 -34.609375 L 21 -34.609375 C 24.1875 -30.265625 22.328125 -22.40625 18.9375 -14.625 C 15.953125 -19.84375 11.390625 -27.84375 11.90625 -34.609375 Z M -1.9375 -34.609375 "/></g></g></g></svg>