<svg xmlns="http://www.w3.org/2000/svg" xmlns:xlink="http://www.w3.org/1999/xlink" width="320" zoomAndPan="magnify" viewBox="0 0 240 37.5" height="50" preserveAspectRatio="xMidYMid meet" version="1.0"><defs><g/></defs><g fill="#878d5d" fill-opacity="1"><g transform="translate(2.833266, 28.720375)"><g><path d="M 10.921875 0.46875 C 16.96875 0.46875 21.15625 -4.421875 21.15625 -10.453125 C 21.15625 -16.5 16.96875 -21.390625 10.921875 -21.390625 C 4.890625 -21.390625 0.703125 -16.5 0.703125 -10.453125 C 0.703125 -4.421875 4.890625 0.46875 10.921875 0.46875 Z M 6.484375 -10.8125 C 7.734375 -17.484375 10.25 -20.484375 12.296875 -20.484375 C 14.609375 -20.484375 16.375 -16.6875 15.140625 -9.9375 C 14.265625 -5.09375 11.859375 -0.421875 8.578125 -0.421875 C 5.921875 -0.421875 5.515625 -5.6875 6.484375 -10.8125 Z M 6.484375 -10.8125 "/></g></g></g><g fill="#878d5d" fill-opacity="1"><g transform="translate(26.591471, 28.720375)"><g><path d="M 1.40625 -8.171875 C 1.40625 -2.609375 5.546875 0.46875 9.546875 0.46875 C 15.1875 0.46875 16.984375 -3.671875 16.984375 -8.25 C 16.984375 -17.34375 17.859375 -19.265625 19.03125 -20.90625 L 12.921875 -20.90625 C 15.046875 -19.21875 16.3125 -16.234375 16.3125 -8.25 C 16.3125 -5.125 15.140625 -0.6875 11.28125 -0.6875 C 8.6875 -0.6875 5.9375 -3.0625 5.9375 -8.25 C 5.9375 -14.828125 6.296875 -17.6875 7 -20.90625 L 0.359375 -20.90625 C 1.109375 -17.5 1.40625 -14.46875 1.40625 -8.171875 Z M 1.40625 -8.171875 "/></g></g></g><g fill="#878d5d" fill-opacity="1"><g transform="translate(47.764478, 28.720375)"><g><path d="M 7.359375 0 C 6.859375 -2.28125 6.34375 -5.890625 6.328125 -9.1875 L 8.625 -9.1875 C 10.59375 -5.78125 11.34375 -2.15625 11.15625 0 L 19.4375 0 C 17.53125 -1.828125 14.828125 -6.203125 13.046875 -9.65625 C 21.671875 -11.796875 20.609375 -20.890625 9.09375 -20.90625 L 0.734375 -20.90625 C 2.140625 -14.5 2.140625 -6.421875 0.703125 0 Z M 6.296875 -10.03125 C 6.296875 -14.96875 7 -20.109375 9.9375 -20.109375 C 12.0625 -20.109375 13.109375 -17.96875 13.484375 -16.1875 C 14.1875 -12.71875 12.359375 -10.03125 8.546875 -10.03125 Z M 6.296875 -10.03125 "/></g></g></g><g fill="#483d43" fill-opacity="1"><g transform="translate(68.970959, 28.720375)"><g/></g></g><g fill="#483d43" fill-opacity="1"><g transform="translate(76.98296, 28.720375)"><g><path d="M 0.703125 0 L 7.359375 0 C 6.859375 -2.28125 6.53125 -4.75 6.390625 -7.28125 L 9.09375 -7.28125 C 21.453125 -7.3125 22.109375 -20.890625 9.09375 -20.90625 L 0.734375 -20.90625 C 2.140625 -14.5 2.140625 -6.421875 0.703125 0 Z M 6.328125 -11.703125 C 6.328125 -14.21875 6.4375 -20.140625 9.828125 -20.140625 C 11.625 -20.140625 12.671875 -18.796875 13.203125 -17.171875 C 14.828125 -12.4375 11.71875 -8.125 8.625 -8.125 L 6.34375 -8.125 C 6.296875 -9.734375 6.328125 -10.3125 6.328125 -11.703125 Z M 6.328125 -11.703125 "/></g></g></g><g fill="#483d43" fill-opacity="1"><g transform="translate(97.521418, 28.720375)"><g><path d="M 7.359375 0 C 6.859375 -2.28125 6.34375 -5.890625 6.328125 -9.1875 L 8.625 -9.1875 C 10.59375 -5.78125 11.34375 -2.15625 11.15625 0 L 19.4375 0 C 17.53125 -1.828125 14.828125 -6.203125 13.046875 -9.65625 C 21.671875 -11.796875 20.609375 -20.890625 9.09375 -20.90625 L 0.734375 -20.90625 C 2.140625 -14.5 2.140625 -6.421875 0.703125 0 Z M 6.296875 -10.03125 C 6.296875 -14.96875 7 -20.109375 9.9375 -20.109375 C 12.0625 -20.109375 13.109375 -17.96875 13.484375 -16.1875 C 14.1875 -12.71875 12.359375 -10.03125 8.546875 -10.03125 Z M 6.296875 -10.03125 "/></g></g></g><g fill="#483d43" fill-opacity="1"><g transform="translate(118.717927, 28.720375)"><g><path d="M 10.921875 0.46875 C 16.96875 0.46875 21.15625 -4.421875 21.15625 -10.453125 C 21.15625 -16.5 16.96875 -21.390625 10.921875 -21.390625 C 4.890625 -21.390625 0.703125 -16.5 0.703125 -10.453125 C 0.703125 -4.421875 4.890625 0.46875 10.921875 0.46875 Z M 6.484375 -10.8125 C 7.734375 -17.484375 10.25 -20.484375 12.296875 -20.484375 C 14.609375 -20.484375 16.375 -16.6875 15.140625 -9.9375 C 14.265625 -5.09375 11.859375 -0.421875 8.578125 -0.421875 C 5.921875 -0.421875 5.515625 -5.6875 6.484375 -10.8125 Z M 6.484375 -10.8125 "/></g></g></g><g fill="#483d43" fill-opacity="1"><g transform="translate(142.476132, 28.720375)"><g><path d="M 0.703125 0 L 5.515625 0 C 3.25 -3.875 2.375 -7.609375 2.515625 -12.03125 C 2.5625 -13.5625 2.65625 -15.09375 2.8125 -16.5625 C 7.46875 -10.015625 10.4375 -2.4375 11.109375 0 L 18.015625 -16.59375 C 18.65625 -11.109375 18.421875 -5.03125 17.296875 0 L 23.9375 0 C 22.53125 -6.421875 22.53125 -14.5 23.9375 -20.90625 L 19.078125 -20.90625 L 13.890625 -8.265625 C 11.0625 -11.984375 8.4375 -16.796875 7.359375 -20.90625 L 0.703125 -20.90625 C 2.140625 -14.5 2.140625 -6.421875 0.703125 0 Z M 0.703125 0 "/></g></g></g><g fill="#483d43" fill-opacity="1"><g transform="translate(169.031051, 28.720375)"><g><path d="M 7.359375 0 C 5.9375 -6.421875 5.9375 -14.5 7.359375 -20.90625 L 0.703125 -20.90625 C 2.140625 -14.5 2.140625 -6.421875 0.703125 0 Z M 7.359375 0 "/></g></g></g><g fill="#483d43" fill-opacity="1"><g transform="translate(178.993701, 28.720375)"><g><path d="M 6.984375 -8.828125 C 7.921875 -8.359375 9.328125 -7.734375 10.53125 -6.90625 C 14.28125 -4.328125 12.15625 -0.265625 8.78125 -0.265625 C 6.53125 -0.265625 3.03125 -2.046875 1.453125 -7.1875 C 1.25 -3.953125 0.84375 -1.671875 0.46875 0 C 1.15625 -0.3125 1.828125 -0.375 2.484375 -0.328125 C 4.109375 -0.21875 6.625 0.46875 8.828125 0.46875 C 10.8125 0.46875 12.765625 0.078125 14.28125 -0.703125 C 16.453125 -1.78125 18.078125 -3.78125 18.078125 -6.28125 C 18.046875 -10.359375 13.109375 -11.890625 9.28125 -13.578125 C 3.34375 -16.1875 6.71875 -20.625 9.1875 -20.625 C 11.4375 -20.625 14.046875 -18.875 15.625 -13.71875 C 15.8125 -16.96875 16.21875 -19.25 16.59375 -20.90625 C 15.90625 -20.609375 15.25 -20.53125 14.5625 -20.578125 C 12.96875 -20.703125 11.015625 -21.359375 8.8125 -21.359375 C 4.859375 -21.390625 0.46875 -19.484375 0.46875 -15.75 C 0.46875 -12.25 3.8125 -10.359375 6.984375 -8.828125 Z M 6.984375 -8.828125 "/></g></g></g><g fill="#483d43" fill-opacity="1"><g transform="translate(198.968116, 28.720375)"><g><path d="M 0.703125 0 L 17.734375 0 C 17.203125 -2.4375 16.9375 -4.375 16.78125 -7.1875 C 15.4375 -2.765625 11.484375 -0.703125 7.21875 -0.703125 C 6.609375 -3.765625 6.296875 -7.09375 6.296875 -9.75 C 6.296875 -9.96875 6.4375 -10.109375 6.671875 -10.109375 L 8.40625 -10.109375 C 10.53125 -10.109375 12.15625 -9.421875 13.953125 -6.84375 C 13.75 -9.6875 13.75 -11.25 13.953125 -14.078125 C 12.109375 -11.4375 10.546875 -10.8125 8.40625 -10.8125 L 6.671875 -10.8125 C 6.46875 -10.8125 6.328125 -10.96875 6.328125 -11.1875 C 6.390625 -14.84375 6.703125 -17.640625 7.21875 -20.203125 C 11.515625 -20.203125 15.4375 -18.171875 16.78125 -13.71875 C 16.9375 -16.546875 17.203125 -18.46875 17.734375 -20.90625 L 0.703125 -20.90625 C 2.140625 -14.5 2.140625 -6.421875 0.703125 0 Z M 0.703125 0 "/></g></g></g><g fill="#483d43" fill-opacity="1"><g transform="translate(219.083543, 28.720375)"><g><path d="M 6.984375 -8.828125 C 7.921875 -8.359375 9.328125 -7.734375 10.53125 -6.90625 C 14.28125 -4.328125 12.15625 -0.265625 8.78125 -0.265625 C 6.53125 -0.265625 3.03125 -2.046875 1.453125 -7.1875 C 1.25 -3.953125 0.84375 -1.671875 0.46875 0 C 1.15625 -0.3125 1.828125 -0.375 2.484375 -0.328125 C 4.109375 -0.21875 6.625 0.46875 8.828125 0.46875 C 10.8125 0.46875 12.765625 0.078125 14.28125 -0.703125 C 16.453125 -1.78125 18.078125 -3.78125 18.078125 -6.28125 C 18.046875 -10.359375 13.109375 -11.890625 9.28125 -13.578125 C 3.34375 -16.1875 6.71875 -20.625 9.1875 -20.625 C 11.4375 -20.625 14.046875 -18.875 15.625 -13.71875 C 15.8125 -16.96875 16.21875 -19.25 16.59375 -20.90625 C 15.90625 -20.609375 15.25 -20.53125 14.5625 -20.578125 C 12.96875 -20.703125 11.015625 -21.359375 8.8125 -21.359375 C 4.859375 -21.390625 0.46875 -19.484375 0.46875 -15.75 C 0.46875 -12.25 3.8125 -10.359375 6.984375 -8.828125 Z M 6.984375 -8.828125 "/></g></g></g></svg>