<svg xmlns="http://www.w3.org/2000/svg" xmlns:xlink="http://www.w3.org/1999/xlink" width="700" zoomAndPan="magnify" viewBox="0 0 525 525.000007" height="700" preserveAspectRatio="xMidYMid meet" version="1.0"><defs><g/><clipPath id="f81d1b8bdc"><path d="M 52.898438 25.128906 L 472.101562 25.128906 L 472.101562 444.328125 L 52.898438 444.328125 Z M 52.898438 25.128906 " clip-rule="nonzero"/></clipPath></defs><g clip-path="url(#f81d1b8bdc)"><path fill="#878d5d" d="M 262.5 25.128906 C 146.742188 25.128906 52.898438 118.96875 52.898438 234.730469 C 52.898438 350.488281 146.742188 444.328125 262.5 444.328125 C 378.257812 444.328125 472.101562 350.488281 472.101562 234.730469 C 472.101562 118.96875 378.257812 25.128906 262.5 25.128906 Z M 168.433594 157.324219 C 168.433594 150.109375 174.28125 144.261719 181.496094 144.261719 L 182.523438 144.261719 C 188.449219 105.394531 222.003906 75.492188 262.5 75.492188 C 302.996094 75.492188 336.550781 105.394531 342.476562 144.261719 L 344.117188 144.261719 C 351.332031 144.261719 357.179688 150.109375 357.179688 157.324219 L 357.179688 167.816406 C 357.179688 175.03125 351.332031 180.878906 344.117188 180.878906 L 339.804688 180.878906 L 339.804688 185.664062 C 339.804688 199.597656 331.003906 218.628906 322.074219 227.84375 C 322.144531 228.417969 322.214844 228.988281 322.214844 229.558594 C 322.214844 235.417969 317.429688 240.277344 311.496094 240.277344 C 309.640625 240.277344 307.925781 239.777344 306.425781 238.921875 C 303.066406 237.207031 300.78125 233.632812 300.78125 229.632812 L 300.78125 229.5625 C 300.78125 223.632812 305.566406 218.84375 311.496094 218.84375 C 312.785156 218.84375 314 219.058594 315.140625 219.558594 C 321.785156 212.34375 329.085938 196.238281 329.085938 185.664062 L 329.214844 156.496094 C 329.214844 118.199219 296.773438 87.332031 257.929688 89.933594 C 222.511719 92.308594 195.785156 123.355469 195.785156 158.855469 L 195.785156 171.667969 C 195.785156 176.753906 191.664062 180.878906 186.578125 180.878906 L 181.496094 180.878906 C 174.285156 180.878906 168.433594 175.03125 168.433594 167.816406 Z M 262.5 237.042969 C 232.402344 236.515625 210.246094 199.226562 210.273438 171.84375 C 210.273438 166.871094 210.273438 161.898438 210.273438 156.921875 C 210.117188 129.316406 233.640625 105.441406 262.5 104.695312 C 291.359375 105.441406 314.882812 129.316406 314.726562 156.921875 C 314.726562 161.898438 314.726562 166.871094 314.726562 171.84375 C 314.75 199.226562 292.597656 236.515625 262.5 237.042969 Z M 370.683594 347.988281 C 370.683594 357.945312 362.609375 366.019531 352.652344 366.019531 L 172.347656 366.019531 C 162.390625 366.019531 154.316406 357.945312 154.316406 347.988281 L 154.316406 333.6875 C 154.316406 291.175781 187.679688 256.546875 229.640625 254.320312 L 262.5 297.628906 L 295.359375 254.320312 C 337.320312 256.546875 370.683594 291.175781 370.683594 333.6875 Z M 370.683594 347.988281 " fill-opacity="1" fill-rule="nonzero"/></g><g fill="#483d43" fill-opacity="1"><g transform="translate(69.210219, 509.538496)"><g><path d="M 2.296875 0 L 29.25 0 C 28.625 -2.84375 28.234375 -6.8125 27.96875 -9.5625 C 24.234375 -5.640625 18.234375 -5.4375 4.546875 -5.4375 C 5.484375 -11.859375 29.4375 -12.609375 29.4375 -25.015625 C 29.4375 -32.28125 22.875 -35.390625 16.328125 -35.390625 C 9.796875 -35.390625 3.3125 -32.328125 3.234375 -27.1875 C 3.1875 -23.5625 5.953125 -21.59375 8.71875 -21.59375 C 11.203125 -21.59375 13.734375 -23.1875 14.359375 -26.5625 C 12.484375 -27.21875 10.890625 -28.703125 10.890625 -30.921875 C 10.890625 -33.171875 13.53125 -34.390625 16.21875 -34.3125 C 19.015625 -34.1875 21.890625 -32.625 21.9375 -29.359375 C 21.96875 -16.53125 2.296875 -17.078125 2.296875 0 Z M 2.296875 0 "/></g></g></g><g fill="#483d43" fill-opacity="1"><g transform="translate(104.093818, 509.538496)"><g><path d="M 1.203125 -10.46875 L 17.625 -10.46875 C 17.625 -4.4375 16.609375 -2.484375 14.65625 0 L 29.046875 0 C 27.109375 -2.484375 26.09375 -4.4375 26.09375 -10.46875 L 30.65625 -10.46875 L 30.65625 -12.25 L 26.09375 -12.25 L 26.09375 -34.609375 L 19.375 -34.609375 L 0.34375 -11.859375 Z M 17.625 -30.375 L 17.625 -12.25 L 2.453125 -12.25 Z M 17.625 -30.375 "/></g></g></g><g fill="#483d43" fill-opacity="1"><g transform="translate(138.588486, 509.538496)"><g><path d="M 1.015625 0 L 2.25 0 L 14.734375 -35.828125 L 13.5 -35.828125 Z M 1.015625 0 "/></g></g></g><g fill="#483d43" fill-opacity="1"><g transform="translate(156.553608, 509.538496)"><g><path d="M 2.09375 -24.578125 C 2.40625 -27.609375 3.578125 -28.46875 5.40625 -28.46875 C 7.703125 -28.46875 11 -27.1875 15.09375 -27.1875 C 17.390625 -27.1875 19.921875 -27.578125 22.59375 -28.828125 C 19.140625 -26.25 12.671875 -21.96875 8.671875 -15.59375 C 6.03125 -11.359375 4.4375 -6.1875 5.5625 0 L 15.09375 0.03125 C 12.09375 -17.078125 22.09375 -23.875 30.109375 -34.609375 C 25.78125 -34.453125 20.140625 -35.359375 15.09375 -35.359375 C 7.9375 -35.359375 1.859375 -33.609375 2.09375 -24.578125 Z M 2.09375 -24.578125 "/></g></g></g><g fill="#483d43" fill-opacity="1"><g transform="translate(187.239308, 509.538496)"><g/></g></g><g fill="#483d43" fill-opacity="1"><g transform="translate(200.498371, 509.538496)"><g/></g></g><g fill="#483d43" fill-opacity="1"><g transform="translate(213.766903, 509.538496)"><g><path d="M 11.546875 -14.625 C 13.109375 -13.84375 15.4375 -12.796875 17.421875 -11.4375 C 23.640625 -7.15625 20.109375 -0.421875 14.546875 -0.421875 C 10.8125 -0.421875 5.015625 -3.390625 2.40625 -11.90625 C 2.0625 -6.53125 1.40625 -2.765625 0.78125 0 C 1.90625 -0.5 3.03125 -0.625 4.125 -0.546875 C 6.8125 -0.34375 10.96875 0.78125 14.625 0.78125 C 17.890625 0.78125 21.125 0.109375 23.640625 -1.171875 C 27.21875 -2.953125 29.90625 -6.265625 29.90625 -10.390625 C 29.875 -17.15625 21.703125 -19.6875 15.359375 -22.484375 C 5.515625 -26.796875 11.125 -34.15625 15.203125 -34.15625 C 18.9375 -34.15625 23.265625 -31.234375 25.859375 -22.71875 C 26.171875 -28.078125 26.84375 -31.859375 27.453125 -34.609375 C 26.328125 -34.109375 25.25 -34 24.109375 -34.078125 C 21.46875 -34.265625 18.234375 -35.359375 14.578125 -35.359375 C 8.046875 -35.390625 0.78125 -32.25 0.78125 -26.0625 C 0.78125 -20.265625 6.296875 -17.15625 11.546875 -14.625 Z M 11.546875 -14.625 "/></g></g></g><g fill="#483d43" fill-opacity="1"><g transform="translate(246.822529, 509.538496)"><g><path d="M 2.328125 -13.53125 C 2.328125 -4.3125 9.171875 0.78125 15.796875 0.78125 C 25.125 0.78125 28.125 -6.0625 28.125 -13.65625 C 28.125 -28.703125 29.5625 -31.890625 31.5 -34.609375 L 21.390625 -34.609375 C 24.890625 -31.8125 27 -26.875 27 -13.65625 C 27 -8.484375 25.046875 -1.125 18.671875 -1.125 C 14.390625 -1.125 9.84375 -5.0625 9.84375 -13.65625 C 9.84375 -24.546875 10.421875 -29.28125 11.59375 -34.609375 L 0.578125 -34.609375 C 1.828125 -28.96875 2.328125 -23.953125 2.328125 -13.53125 Z M 2.328125 -13.53125 "/></g></g></g><g fill="#483d43" fill-opacity="1"><g transform="translate(281.861699, 509.538496)"><g><path d="M 1.171875 0 L 12.171875 0 C 11.359375 -3.765625 10.8125 -7.859375 10.578125 -12.0625 L 15.046875 -12.0625 C 35.515625 -12.09375 36.59375 -34.578125 15.046875 -34.609375 L 1.203125 -34.609375 C 3.546875 -24 3.546875 -10.625 1.171875 0 Z M 10.46875 -19.375 C 10.46875 -23.53125 10.65625 -33.328125 16.265625 -33.328125 C 19.25 -33.328125 20.96875 -31.109375 21.859375 -28.4375 C 24.546875 -20.578125 19.40625 -13.453125 14.28125 -13.453125 L 10.5 -13.453125 C 10.421875 -16.109375 10.46875 -17.078125 10.46875 -19.375 Z M 10.46875 -19.375 "/></g></g></g><g fill="#483d43" fill-opacity="1"><g transform="translate(315.850752, 509.538496)"><g><path d="M 1.171875 0 L 12.171875 0 C 11.359375 -3.765625 10.8125 -7.859375 10.578125 -12.0625 L 15.046875 -12.0625 C 35.515625 -12.09375 36.59375 -34.578125 15.046875 -34.609375 L 1.203125 -34.609375 C 3.546875 -24 3.546875 -10.625 1.171875 0 Z M 10.46875 -19.375 C 10.46875 -23.53125 10.65625 -33.328125 16.265625 -33.328125 C 19.25 -33.328125 20.96875 -31.109375 21.859375 -28.4375 C 24.546875 -20.578125 19.40625 -13.453125 14.28125 -13.453125 L 10.5 -13.453125 C 10.421875 -16.109375 10.46875 -17.078125 10.46875 -19.375 Z M 10.46875 -19.375 "/></g></g></g><g fill="#483d43" fill-opacity="1"><g transform="translate(349.839805, 509.538496)"><g><path d="M 18.09375 0.78125 C 28.078125 0.78125 35 -7.3125 35 -17.3125 C 35 -27.296875 28.078125 -35.390625 18.09375 -35.390625 C 8.09375 -35.390625 1.171875 -27.296875 1.171875 -17.3125 C 1.171875 -7.3125 8.09375 0.78125 18.09375 0.78125 Z M 10.734375 -17.890625 C 12.796875 -28.9375 16.953125 -33.921875 20.34375 -33.921875 C 24.1875 -33.921875 27.109375 -27.609375 25.046875 -16.453125 C 23.609375 -8.4375 19.640625 -0.703125 14.203125 -0.703125 C 9.796875 -0.703125 9.140625 -9.40625 10.734375 -17.890625 Z M 10.734375 -17.890625 "/></g></g></g><g fill="#483d43" fill-opacity="1"><g transform="translate(389.157217, 509.538496)"><g><path d="M 12.171875 0 C 11.359375 -3.765625 10.5 -9.765625 10.46875 -15.203125 L 14.28125 -15.203125 C 17.546875 -9.5625 18.78125 -3.578125 18.46875 0 L 32.171875 0 C 29.015625 -3.03125 24.546875 -10.265625 21.59375 -15.984375 C 35.859375 -19.53125 34.109375 -34.578125 15.046875 -34.609375 L 1.203125 -34.609375 C 3.546875 -24 3.546875 -10.625 1.171875 0 Z M 10.421875 -16.609375 C 10.421875 -24.78125 11.59375 -33.296875 16.453125 -33.296875 C 19.953125 -33.296875 21.703125 -29.75 22.328125 -26.796875 C 23.5 -21.046875 20.453125 -16.609375 14.15625 -16.609375 Z M 10.421875 -16.609375 "/></g></g></g><g fill="#483d43" fill-opacity="1"><g transform="translate(424.235276, 509.538496)"><g><path d="M 0 -34.609375 C 1.015625 -30.109375 1.40625 -26.6875 1.671875 -21.078125 C 2.953125 -26.71875 4.90625 -33.453125 10.578125 -33.453125 C 11.4375 -29.203125 11.9375 -24.578125 12.09375 -18.515625 C 12.171875 -12.09375 11.515625 -5.671875 10.234375 0 L 21.234375 0 C 19.953125 -5.796875 19.375 -12.171875 19.453125 -18.515625 C 19.5625 -24.578125 20.0625 -29.203125 20.921875 -33.453125 C 26.765625 -33.453125 28.546875 -26.6875 29.828125 -21 C 30.109375 -26.640625 30.53125 -30.109375 31.546875 -34.609375 Z M 0 -34.609375 "/></g></g></g></svg>