<?xml version="1.0" encoding="UTF-8"?>
<svg id="_图层_3" xmlns="http://www.w3.org/2000/svg" xmlns:xlink="http://www.w3.org/1999/xlink" viewBox="0 0 1227.04 1006.66">
  <defs>
    <style>
      .cls-1, .cls-2, .cls-3, .cls-4, .cls-5, .cls-6, .cls-7, .cls-8, .cls-9, .cls-10, .cls-11, .cls-12, .cls-13 {
        fill: none;
      }

      .cls-14 {
        isolation: isolate;
        opacity: .3;
      }

      .cls-14, .cls-15 {
        fill: #efba89;
      }

      .cls-16, .cls-17, .cls-18, .cls-19, .cls-20, .cls-21, .cls-22, .cls-23, .cls-24, .cls-12, .cls-25, .cls-26 {
        stroke: #332639;
      }

      .cls-16, .cls-17, .cls-19, .cls-20, .cls-21, .cls-22, .cls-23, .cls-12, .cls-26 {
        stroke-miterlimit: 8.52;
        stroke-width: .85px;
      }

      .cls-16, .cls-27 {
        fill: #90dbe8;
      }

      .cls-28 {
        fill: #ce451b;
      }

      .cls-17, .cls-18, .cls-29 {
        fill: #ff8d00;
      }

      .cls-18, .cls-24, .cls-25 {
        stroke-miterlimit: 8.52;
        stroke-width: .85px;
      }

      .cls-2, .cls-3 {
        stroke: #05616b;
      }

      .cls-2, .cls-3, .cls-4, .cls-5, .cls-6, .cls-7, .cls-8, .cls-9, .cls-10, .cls-11, .cls-13 {
        stroke-linecap: round;
        stroke-linejoin: round;
      }

      .cls-2, .cls-4, .cls-6, .cls-7, .cls-8, .cls-11 {
        stroke-width: 5.36px;
      }

      .cls-3, .cls-5 {
        stroke-width: 5.69px;
      }

      .cls-19, .cls-30 {
        fill: #f85c23;
      }

      .cls-4 {
        stroke: #ce451b;
      }

      .cls-31, .cls-22 {
        fill: #ffd3a6;
      }

      .cls-32, .cls-21 {
        fill: #332639;
      }

      .cls-33 {
        clip-path: url(#clippath-17);
      }

      .cls-34 {
        clip-path: url(#clippath-19);
      }

      .cls-35 {
        clip-path: url(#clippath-11);
      }

      .cls-36 {
        clip-path: url(#clippath-16);
      }

      .cls-37 {
        clip-path: url(#clippath-18);
      }

      .cls-38 {
        clip-path: url(#clippath-10);
      }

      .cls-39 {
        clip-path: url(#clippath-15);
      }

      .cls-40 {
        clip-path: url(#clippath-13);
      }

      .cls-41 {
        clip-path: url(#clippath-14);
      }

      .cls-42 {
        clip-path: url(#clippath-12);
      }

      .cls-43 {
        clip-path: url(#clippath-30);
      }

      .cls-44 {
        clip-path: url(#clippath-27);
      }

      .cls-45 {
        clip-path: url(#clippath-29);
      }

      .cls-46 {
        clip-path: url(#clippath-26);
      }

      .cls-47 {
        clip-path: url(#clippath-28);
      }

      .cls-48 {
        clip-path: url(#clippath-20);
      }

      .cls-49 {
        clip-path: url(#clippath-21);
      }

      .cls-50 {
        clip-path: url(#clippath-22);
      }

      .cls-51 {
        clip-path: url(#clippath-23);
      }

      .cls-52 {
        clip-path: url(#clippath-24);
      }

      .cls-53 {
        clip-path: url(#clippath-25);
      }

      .cls-54 {
        fill: #6bc4c9;
      }

      .cls-5, .cls-6 {
        stroke: #6a6fa0;
      }

      .cls-55 {
        clip-path: url(#clippath-1);
      }

      .cls-56 {
        clip-path: url(#clippath-3);
      }

      .cls-57 {
        clip-path: url(#clippath-4);
      }

      .cls-58 {
        clip-path: url(#clippath-2);
      }

      .cls-59 {
        clip-path: url(#clippath-7);
      }

      .cls-60 {
        clip-path: url(#clippath-6);
      }

      .cls-61 {
        clip-path: url(#clippath-9);
      }

      .cls-62 {
        clip-path: url(#clippath-8);
      }

      .cls-63 {
        clip-path: url(#clippath-5);
      }

      .cls-20, .cls-64 {
        fill: #ffe9d1;
      }

      .cls-65 {
        fill: #6a6fa0;
      }

      .cls-7 {
        stroke: #f7dbbf;
      }

      .cls-8 {
        stroke: #efba89;
      }

      .cls-66 {
        fill: #edccae;
      }

      .cls-9 {
        stroke: #ad2f12;
        stroke-width: 3.41px;
      }

      .cls-10, .cls-11 {
        stroke: #7bd2db;
      }

      .cls-10, .cls-13 {
        stroke-width: 4.57px;
      }

      .cls-67 {
        fill: #086d8c;
      }

      .cls-68 {
        fill: #05616b;
      }

      .cls-69, .cls-23, .cls-24 {
        fill: #8b8ebf;
      }

      .cls-13 {
        stroke: #d87912;
      }

      .cls-70 {
        fill: #b4fbff;
      }

      .cls-71 {
        fill: #2c1b3f;
      }

      .cls-25, .cls-26, .cls-72 {
        fill: #007b91;
      }

      .cls-73 {
        clip-path: url(#clippath);
      }
    </style>
    <clipPath id="clippath">
      <rect class="cls-1" x="0" y="501.56" width="1146" height="500"/>
    </clipPath>
    <clipPath id="clippath-1">
      <rect class="cls-1" y="500.92" width="1146" height="500"/>
    </clipPath>
    <clipPath id="clippath-2">
      <polyline class="cls-1" points="197.25 500.92 1146 500.92 1146 1000.92 0 1000.92 0 500.92 197.25 500.92"/>
    </clipPath>
    <clipPath id="clippath-3">
      <path class="cls-1" d="M688.06,572.6c-9.46,41.61,45.06,111.81,45.06,111.81h19.62s110.14-141.8-9.81-141.8c-35.55,0-50.89,12.46-54.87,29.98h0Z"/>
    </clipPath>
    <clipPath id="clippath-4">
      <path class="cls-1" d="M742.93,542.62c-79.69,0-6.52,141.8-6.52,141.8h13.04s73.17-141.8-6.52-141.8h0Z"/>
    </clipPath>
    <clipPath id="clippath-5">
      <path class="cls-1" d="M733.16,709.38h19.55v17.63c0,3.89-2.84,7.05-6.33,7.05h-6.89c-3.49,0-6.33-3.16-6.33-7.05v-17.63h0Z"/>
    </clipPath>
    <clipPath id="clippath-6">
      <path class="cls-1" d="M1186.63,647.9c-.19-5.73-.9-11.51-2.21-17.29-1.31-5.78-3.14-11.26-5.4-16.4-1.78-4.03-3.83-7.84-6.13-11.44-17.29-27.07-48.28-41.01-78.94-32.42-30.66,8.6-52.04,37.22-55.76,70.18-.49,4.37-.69,8.81-.54,13.3.19,5.73.9,11.51,2.21,17.29,1.31,5.78,3.14,11.26,5.4,16.4,18.19-.65,42.63-4.19,72.33-12.52,29.71-8.33,52.73-18.1,69.03-27.12h0Z"/>
    </clipPath>
    <clipPath id="clippath-7">
      <path class="cls-1" d="M1051.39,698.97c17.29,27.07,48.28,41.01,78.94,32.42,30.67-8.6,52.04-37.22,55.76-70.18-18.36,9.47-41.29,18.25-65.93,25.16-24.64,6.91-48.58,11.27-68.77,12.6h0Z"/>
    </clipPath>
    <clipPath id="clippath-8">
      <path class="cls-1" d="M1226.23,618.88c-2.52-11.15-16.59-16.72-41.81-16.56-3.67.02-7.53.18-11.52.44,2.29,3.59,4.35,7.4,6.13,11.44,22.98-.82,35.99,2.96,37.02,7.53,1.03,4.57-8.82,14.77-29.41,26.16-16.3,9.02-39.33,18.79-69.03,27.12s-54.14,11.87-72.33,12.52c-22.98.82-35.99-2.96-37.02-7.53-1.03-4.57,8.82-14.77,29.41-26.16-.15-4.49.04-8.93.54-13.3-3.63,1.87-7.1,3.77-10.34,5.69-22.29,13.16-32.31,25.49-29.79,36.63s16.59,16.72,41.81,16.56c3.67-.02,7.53-.18,11.52-.44,20.2-1.34,44.13-5.7,68.77-12.6,24.64-6.91,47.57-15.69,65.93-25.16,3.63-1.87,7.09-3.77,10.34-5.69,22.29-13.16,32.31-25.49,29.79-36.63h0Z"/>
    </clipPath>
    <clipPath id="clippath-9">
      <path class="cls-1" d="M841.42,958.85c-160.68-199.35-106.93-304.98,33.46-60.39l-33.46,60.39Z"/>
    </clipPath>
    <clipPath id="clippath-10">
      <path class="cls-1" d="M838.46,972.54c-260.38-149.32-237.26-278.76,16.38-75l-16.38,75Z"/>
    </clipPath>
    <clipPath id="clippath-11">
      <path class="cls-1" d="M850.64,985.58c-201.12-50.62-205.36-142.13-.42-53.59l.42,53.59Z"/>
    </clipPath>
    <clipPath id="clippath-12">
      <path class="cls-1" d="M841.42,973.6c-37.13-225.93,36.76-266.19,44.08-21.46l-44.08,21.46Z"/>
    </clipPath>
    <clipPath id="clippath-13">
      <rect class="cls-1" x="837.62" y="825.48" width="225.96" height="45.79"/>
    </clipPath>
    <clipPath id="clippath-14">
      <rect class="cls-1" x="863.89" y="883.04" width="225.96" height="52.62"/>
    </clipPath>
    <clipPath id="clippath-15">
      <rect class="cls-1" x="837.62" y="947.18" width="225.96" height="52.62"/>
    </clipPath>
    <clipPath id="clippath-16">
      <path class="cls-1" d="M846.51,611.46c-1.17.71.95,12.8.95,12.8-5.4-16.43-10.28-18.1-3.68,1.81-1.7,6.19-2.93-7.63-6.29-4.03,5.33,23.26,11.06,41.6,29.14,75.26,6.87,19.61,72.21-10.88,75.87-8.74-.08.04-16.05-28.63-15.25-26.64-4.43.4-52.78,13.34-48.88,10.56-35.59-29.26-19.38-45.3-28.88-55.65-.79-.87-1.24-6.43-2.99-5.36h0Z"/>
    </clipPath>
    <clipPath id="clippath-17">
      <polygon class="cls-1" points="894.68 665.94 906.76 698.34 942.5 688.55 931.49 658.16 894.68 665.94"/>
    </clipPath>
    <clipPath id="clippath-18">
      <path class="cls-1" d="M818.54,614.72l13.03.89,29.99,2.05c-1.38,1.44-2.32,4.27-2.32,7.51s.94,6.07,2.32,7.51l-29.99,2.05-13.03.89c-1.25-2.81-2-6.46-2-10.46s.75-7.64,2-10.46Z"/>
    </clipPath>
    <clipPath id="clippath-19">
      <path class="cls-1" d="M938.24,641.9c.56,4.2-9.19,20.78-9.19,20.78l22.82-1.86-2.61-28.14c1.9-2.97-11.02,9.21-11.02,9.21Z"/>
    </clipPath>
    <clipPath id="clippath-20">
      <path class="cls-1" d="M931.94,616.24c-5.73,1.52-3.1,11.89-4.96,16.16-1.86,4.27,2.53,18.65,15.19,10.52,15.54-9.99,10.59-24.21,10.59-24.21l-20.82-2.47h0Z"/>
    </clipPath>
    <clipPath id="clippath-21">
      <path class="cls-1" d="M945.76,626.68c1.4,1.79,8.48,2.97,8.48,2.97v-1.18c4.42-13.69-1.05-19.06-8.95-18.49-7.9.57-11.45-4.23-15.78-1.26-4.33,2.97-4.56,8.8,2.06,9.03,6.63.23,16.74-.91,16.74-.91l-2.56,9.83Z"/>
    </clipPath>
    <clipPath id="clippath-22">
      <path class="cls-1" d="M929.31,626.99c.09,4.58,4.8,4.4,5.04.13-.09-4.58-4.8-4.4-5.04-.13Z"/>
    </clipPath>
    <clipPath id="clippath-23">
      <path class="cls-1" d="M956.29,624.61s11.11-30.22-27.14-17.34l27.14,17.34Z"/>
    </clipPath>
    <clipPath id="clippath-24">
      <path class="cls-1" d="M897.64,611.46c-4.06-2.09-5.12,13.33-5.12,13.33-1.35-4.81-5.8-6.53-12.18-5.42,0,0,5.76,2.34,2.2,7.4-3.56,5.06-8.01,5.64-7.61,11.91.4,6.27-14.52,66.81,1.53,68.51,16.06,1.7,62.03-16.29,62.03-16.29-2.13-1.77-24.73-23.35-24.19-22.27-33.62,20.71-25.34,25.78-30.24-12.94-4.68-19.26,17.86-23.58,13.58-44.24h0Z"/>
    </clipPath>
    <clipPath id="clippath-25">
      <path class="cls-1" d="M855.79,876.11c-.69,10.43,9.76,23.34,10.75,28.88-3.82,4.95-24.48,32.61-31.86,26.53,21.31-28.01,5.57-48.97,21.11-55.41Z"/>
    </clipPath>
    <clipPath id="clippath-26">
      <path class="cls-1" d="M842.63,894.63s24.11-9.34,40.93-34.44c2.47-3.69-26.57-35.14-38.31-52.58,36.85,8.27,128.77,43.41,115-39.6-182.81-7.35-184.5-15.9-117.62,126.63h0Z"/>
    </clipPath>
    <clipPath id="clippath-27">
      <path class="cls-1" d="M879.21,769.61c-6.51,18.62-7.8,36.91-6.51,47.07-5.41,3.65-36.13,25.83-41.66,16.1,7.99-7.07,27.12-22.26,27.24-41.37,4.46-11.21,20.39-21.3,20.93-21.81h0Z"/>
    </clipPath>
    <clipPath id="clippath-28">
      <path class="cls-1" d="M852.09,789.82s35.15,31.41,42.59,25.16c7.44-6.25-5.35-39.64-4.55-57.97,20.53,95.37,113.58,83.81,98.3-1.29l-54.36-4.46-.4,9.39c-67.34-129.12-100.97-67.2-81.59,29.18h0Z"/>
    </clipPath>
    <clipPath id="clippath-29">
      <path class="cls-1" d="M899.87,675.02l7.07,30.5,14.85-1.16c-.47-3.33,1.4,45.8,4.59,45.81,7.38,11.5,25.91,41.46,78.09,31.84,26.52-51.77-28.08-177.77-104.61-106.99h0Z"/>
    </clipPath>
    <clipPath id="clippath-30">
      <path class="cls-1" d="M1101.49,647.72l16.11,27.29s-50.54-25.96-112.82-8.11c-62.28,17.84-81.44-5.61-81.44-5.61,0,0-.72-6.12,4.49-6.29,0,0,3.19,11.37,52.07,3.28,48.88-8.09,62.07-21.17,121.59-10.56h0Z"/>
    </clipPath>
  </defs>
  <g id="background">
    <g class="cls-73">
      <g>
        <g class="cls-55">
          <g>
            <rect class="cls-70" x="0" y="501.56" width="1146" height="500"/>
            <path class="cls-67" d="M169.23,455.7c8.13,16.03,17.51,31.17,28.02,45.23l422.6-.98c7.11-9.6,15.8-20.88,24.88-33.14-158.77-.19-316.87-14.94-475.5-11.1ZM200,500.77h1-1Z"/>
            <path class="cls-67" d="M673,411.77c-87,0-174-7-261-11,87,4,174,11,261,11,.76,5.35.21,10.55-.87,15.72,30.28-47.3,50.69-97.96,10.36-121.91-152.51-90.57-280.79-171.79-335.26-227.7-90.27,55.83-213.35,136.96-213.35,227.7,0,54.56,12.85,105.78,35.35,150.12,158.63-3.83,316.73,10.92,475.5,11.1,9.14-12.35,18.68-25.69,27.4-39.31,1.08-5.17,1.63-10.37.87-15.72Z"/>
            <path class="cls-67" d="M408.18.02c-99.69-.81-108.8,28.76-60.95,77.87C424.86,29.87,478.23.59,408.18.02Z"/>
            <path class="cls-67" d="M197.25,500.92c50.32,67.35,125.72,110.22,210.94,110.22s161.35-43.29,211.67-111.2l-422.6.98Z"/>
          </g>
        </g>
        <g class="cls-58">
          <g>
            <g>
              <g>
                <path class="cls-17" d="M748.35,685.13h-15.2l3.58,25.8h12.41l3.58-25.8h-4.37ZM737.28,710.1l-3.35-24.12h3.64l1.8,24.12h-2.1,0ZM740.05,710.1l-1.8-24.12h9.37l-1.8,24.12h-5.77,0ZM748.58,710.1h-2.1l1.8-24.12h3.64l-3.35,24.12h0Z"/>
                <g>
                  <path class="cls-29" d="M688.06,572.6c-9.46,41.61,45.06,111.81,45.06,111.81h19.62s110.14-141.8-9.81-141.8c-35.55,0-50.89,12.46-54.87,29.98"/>
                  <g class="cls-56">
                    <g>
                      <path class="cls-24" d="M705.11,543.24h0c10.03,5.18,14.4,18.45,9.74,29.63l-13.02,31.27c-4.65,11.18-16.56,16.04-26.59,10.85h0c-10.03-5.18-14.4-18.45-9.74-29.63l13.02-31.27c4.65-11.18,16.56-16.04,26.59-10.85Z"/>
                      <path class="cls-25" d="M771.78,597.52h0c12.47,6.44,17.9,22.93,12.11,36.83l-16.18,38.87c-5.78,13.89-20.59,19.93-33.06,13.49h0c-12.47-6.44-17.9-22.93-12.11-36.83l16.18-38.87c5.78-13.89,20.59-19.93,33.06-13.49Z"/>
                      <path class="cls-18" d="M819.98,535.71h0c3.5,1.81,5.02,6.43,3.4,10.33l-6.85,16.46c-1.62,3.9-5.78,5.59-9.28,3.79h0c-3.5-1.81-5.02-6.43-3.4-10.33l6.85-16.46c1.62-3.9,5.78-5.59,9.28-3.79Z"/>
                      <ellipse class="cls-16" cx="766" cy="550.36" rx="5.64" ry="6.29"/>
                      <ellipse class="cls-16" cx="692.87" cy="659.21" rx="2.43" ry="2.71"/>
                    </g>
                  </g>
                  <path class="cls-12" d="M688.06,572.6c-9.46,41.61,45.06,111.81,45.06,111.81h19.62s110.14-141.8-9.81-141.8c-35.55,0-50.89,12.46-54.87,29.98"/>
                </g>
                <g>
                  <path class="cls-64" d="M742.93,542.62c-79.69,0-6.52,141.8-6.52,141.8h13.04s73.17-141.8-6.52-141.8h0Z"/>
                  <g class="cls-57">
                    <g>
                      <path class="cls-24" d="M705.11,543.24h0c10.03,5.18,14.4,18.45,9.74,29.63l-13.02,31.27c-4.65,11.18-16.56,16.04-26.59,10.85h0c-10.03-5.18-14.4-18.45-9.74-29.63l13.02-31.27c4.65-11.18,16.56-16.04,26.59-10.85Z"/>
                      <path class="cls-25" d="M771.78,597.52h0c12.47,6.44,17.9,22.93,12.11,36.83l-16.18,38.87c-5.78,13.89-20.59,19.93-33.06,13.49h0c-12.47-6.44-17.9-22.93-12.11-36.83l16.18-38.87c5.78-13.89,20.59-19.93,33.06-13.49Z"/>
                      <path class="cls-18" d="M819.98,535.71h0c3.5,1.81,5.02,6.43,3.4,10.33l-6.85,16.46c-1.62,3.9-5.78,5.59-9.28,3.79h0c-3.5-1.81-5.02-6.43-3.4-10.33l6.85-16.46c1.62-3.9,5.78-5.59,9.28-3.79Z"/>
                      <ellipse class="cls-16" cx="766" cy="550.36" rx="5.64" ry="6.29"/>
                      <ellipse class="cls-16" cx="692.87" cy="659.21" rx="2.43" ry="2.71"/>
                    </g>
                  </g>
                  <path class="cls-12" d="M742.93,542.62c-79.69,0-6.52,141.8-6.52,141.8h13.04s73.17-141.8-6.52-141.8h0Z"/>
                </g>
                <path class="cls-17" d="M730.39,618.12c3.43,33.85,9.99,66.3,9.99,66.3h5.11s28.67-141.8-2.55-141.8c-16.28,0-16.28,38.59-12.54,75.5"/>
                <g>
                  <g>
                    <path class="cls-27" d="M733.16,709.38h19.55v17.63c0,3.89-2.84,7.05-6.33,7.05h-6.89c-3.49,0-6.33-3.16-6.33-7.05v-17.63h0Z"/>
                    <g class="cls-63">
                      <path class="cls-54" d="M734.27,707.01c2.94-.18.24,6.4,2.4,6.68,10.93,1.42,13.92,16.23,15.97,14.35,2.06-1.88,2.06-24.13,2.06-24.13l-14.4-.4"/>
                    </g>
                    <path class="cls-12" d="M733.16,709.38h19.55v17.63c0,3.89-2.84,7.05-6.33,7.05h-6.89c-3.49,0-6.33-3.16-6.33-7.05v-17.63h0Z"/>
                  </g>
                  <path class="cls-20" d="M732.35,708.05h21.17c.65,0,1.17.58,1.17,1.3v2.33c0,.72-.52,1.3-1.17,1.3h-21.17c-.65,0-1.17-.58-1.17-1.3v-2.33c0-.72.52-1.3,1.17-1.3Z"/>
                </g>
                <polygon class="cls-23" points="755.49 682.04 730.37 682.04 732.92 687.17 752.94 687.17 755.49 682.04"/>
              </g>
              <path class="cls-13" d="M742.32,575.7c.93,3.07,2.97,5.69,5.56,7.15"/>
              <path class="cls-10" d="M744.75,722.84c.84.91,1.94,1.51,3.09,1.69"/>
            </g>
            <g>
              <g>
                <g>
                  <g>
                    <g>
                      <path class="cls-69" d="M1186.63,647.9c-.19-5.73-.9-11.51-2.21-17.29s-3.14-11.26-5.4-16.4c-1.78-4.03-3.83-7.84-6.13-11.44-17.29-27.07-48.28-41.01-78.94-32.42-30.66,8.6-52.04,37.22-55.76,70.18-.49,4.37-.69,8.81-.54,13.3.19,5.73.9,11.51,2.21,17.29,1.31,5.78,3.14,11.26,5.4,16.4,18.19-.65,42.63-4.19,72.33-12.52,29.71-8.33,52.73-18.1,69.03-27.12h0Z"/>
                      <g class="cls-60">
                        <path class="cls-65" d="M1064.16,556.66c158.64,10.46,126.07,107.39,12.95,127.49-113.12,20.1,149.5-13.27,149.5-13.27l-4.29-96.2-120.3-26.03-32.11,18.07"/>
                      </g>
                      <path class="cls-12" d="M1186.63,647.9c-.19-5.73-.9-11.51-2.21-17.29s-3.14-11.26-5.4-16.4c-1.78-4.03-3.83-7.84-6.13-11.44-17.29-27.07-48.28-41.01-78.94-32.42-30.66,8.6-52.04,37.22-55.76,70.18-.49,4.37-.69,8.81-.54,13.3.19,5.73.9,11.51,2.21,17.29,1.31,5.78,3.14,11.26,5.4,16.4,18.19-.65,42.63-4.19,72.33-12.52,29.71-8.33,52.73-18.1,69.03-27.12h0Z"/>
                    </g>
                    <g>
                      <path class="cls-69" d="M1051.39,698.97c17.29,27.07,48.28,41.01,78.94,32.42,30.67-8.6,52.04-37.22,55.76-70.18-18.36,9.47-41.29,18.25-65.93,25.16-24.64,6.91-48.58,11.27-68.77,12.6h0Z"/>
                      <g class="cls-59">
                        <path class="cls-65" d="M1085.32,741.52c-45.46-42.1,43.61-50.72,83.39-75.11,39.78-24.4-154.44,18.18-154.44,18.18l35.11,46.58"/>
                      </g>
                      <path class="cls-12" d="M1051.39,698.97c17.29,27.07,48.28,41.01,78.94,32.42,30.67-8.6,52.04-37.22,55.76-70.18-18.36,9.47-41.29,18.25-65.93,25.16-24.64,6.91-48.58,11.27-68.77,12.6h0Z"/>
                    </g>
                  </g>
                  <g>
                    <path class="cls-72" d="M1226.23,618.88c-2.52-11.15-16.59-16.72-41.81-16.56-3.67.02-7.53.18-11.52.44,2.29,3.59,4.35,7.4,6.13,11.44,22.98-.82,35.99,2.96,37.02,7.53,1.03,4.57-8.82,14.77-29.41,26.16-16.3,9.02-39.33,18.79-69.03,27.12-29.71,8.33-54.14,11.87-72.33,12.52-22.98.82-35.99-2.96-37.02-7.53-1.03-4.57,8.82-14.77,29.41-26.16-.15-4.49.04-8.93.54-13.3-3.63,1.87-7.1,3.77-10.34,5.69-22.29,13.16-32.31,25.49-29.79,36.63,2.52,11.15,16.59,16.72,41.81,16.56,3.67-.02,7.53-.18,11.52-.44,20.2-1.34,44.13-5.7,68.77-12.6,24.64-6.91,47.57-15.69,65.93-25.16,3.63-1.87,7.09-3.77,10.34-5.69,22.29-13.16,32.31-25.49,29.79-36.63h0Z"/>
                    <g class="cls-62">
                      <g>
                        <path class="cls-68" d="M980.77,650.87c69.97-12.28,63.26,22.73,63.26,22.73l17.25-43.48-27.8-6.41"/>
                        <path class="cls-68" d="M1153.78,590.56c34.99,5.32,38.82,33.14,38.82,33.14l-29.71,6.41-9.58-10.22"/>
                      </g>
                    </g>
                    <path class="cls-12" d="M1226.23,618.88c-2.52-11.15-16.59-16.72-41.81-16.56-3.67.02-7.53.18-11.52.44,2.29,3.59,4.35,7.4,6.13,11.44,22.98-.82,35.99,2.96,37.02,7.53,1.03,4.57-8.82,14.77-29.41,26.16-16.3,9.02-39.33,18.79-69.03,27.12-29.71,8.33-54.14,11.87-72.33,12.52-22.98.82-35.99-2.96-37.02-7.53-1.03-4.57,8.82-14.77,29.41-26.16-.15-4.49.04-8.93.54-13.3-3.63,1.87-7.1,3.77-10.34,5.69-22.29,13.16-32.31,25.49-29.79,36.63,2.52,11.15,16.59,16.72,41.81,16.56,3.67-.02,7.53-.18,11.52-.44,20.2-1.34,44.13-5.7,68.77-12.6,24.64-6.91,47.57-15.69,65.93-25.16,3.63-1.87,7.09-3.77,10.34-5.69,22.29-13.16,32.31-25.49,29.79-36.63h0Z"/>
                  </g>
                </g>
                <path class="cls-5" d="M1110.07,606.52c-2.81,5.38-6.81,9.97-11.55,13.27"/>
                <path class="cls-5" d="M1148.88,706.88c-1.14,1.75-2.62,3.22-4.31,4.27"/>
                <path class="cls-3" d="M1025.2,691.89c-1.43,1.43-2.86,2.86-4.29,4.3"/>
              </g>
              <path class="cls-5" d="M1052.25,672.97c.16.18.32.36.48.53"/>
            </g>
            <g>
              <g>
                <g>
                  <path class="cls-72" d="M841.42,958.85c-160.68-199.35-106.93-304.98,33.46-60.39l-33.46,60.39Z"/>
                  <g class="cls-61">
                    <g>
                      <path class="cls-2" d="M760.87,728.87c7,23.78,117.37,202.14,117.37,202.14"/>
                      <path class="cls-2" d="M738.83,739.9c17.01,44.13,129.24,191.94,129.24,191.94"/>
                      <path class="cls-2" d="M735.7,762.45c15.43,27.65,122.8,178.86,122.8,178.86"/>
                      <path class="cls-16" d="M722.86,791.8c28.67,20.62,136.39,171.73,136.39,171.73"/>
                      <path class="cls-68" d="M750.25,846.42c-12.56-51.53,46.01-10.94,70.3,18.11,24.29,29.05-15.28-65.93,11.44-62.26s8.19,103.77,8.19,103.77l-21.79,6.04"/>
                    </g>
                  </g>
                  <path class="cls-12" d="M841.42,958.85c-160.68-199.35-106.93-304.98,33.46-60.39l-33.46,60.39Z"/>
                </g>
                <g>
                  <path class="cls-27" d="M838.46,972.54c-260.38-149.32-237.26-278.76,16.38-75l-16.38,75Z"/>
                  <g class="cls-38">
                    <g>
                      <path class="cls-11" d="M659.63,762.3c16.95,22.22,211.18,167.92,211.18,167.92"/>
                      <path class="cls-11" d="M638.17,781.77c36.11,39.78,221.16,152.99,221.16,152.99"/>
                      <path class="cls-11" d="M642.91,806.38c28.16,23.2,208.85,141.71,208.85,141.71"/>
                      <path class="cls-11" d="M638.91,841.59c40.91,11.08,221.96,129.36,221.96,129.36"/>
                      <path class="cls-54" d="M755.68,915.66c-27.29-39.07,30.88-23.5,62.71-3.59,31.83,19.92-14.88-75.57,20.31-26.41,35.18,49.15.34,60.99.34,60.99l-50.78-9.62"/>
                    </g>
                  </g>
                  <path class="cls-12" d="M838.46,972.54c-260.38-149.32-237.26-278.76,16.38-75l-16.38,75Z"/>
                </g>
                <g>
                  <path class="cls-72" d="M850.64,985.58c-201.12-50.62-205.36-142.13-.42-53.59l.42,53.59Z"/>
                  <g class="cls-35">
                    <g>
                      <path class="cls-2" d="M695.83,878.37c15.03,11.71,170.36,72.55,170.36,72.55"/>
                      <path class="cls-2" d="M684.18,895.57c30.85,19.85,174.88,60.6,174.88,60.6"/>
                      <path class="cls-2" d="M691.23,911.22c22.84,10.22,164.71,55.36,164.71,55.36"/>
                      <path class="cls-2" d="M693.95,935.67c29.68-.38,171.76,44.54,171.76,44.54"/>
                      <path class="cls-68" d="M839.03,946.65c-12.17,21.66-11.75-37.04-11.75-37.04l11.4,2.15"/>
                    </g>
                  </g>
                  <path class="cls-12" d="M850.64,985.58c-201.12-50.62-205.36-142.13-.42-53.59l.42,53.59Z"/>
                </g>
                <g>
                  <path class="cls-27" d="M841.42,973.6c-37.13-225.93,36.76-266.19,44.08-21.46l-44.08,21.46Z"/>
                  <g class="cls-42">
                    <g>
                      <path class="cls-11" d="M869.19,772.92c-3.77,19.99,6.96,203.02,6.96,203.02"/>
                      <path class="cls-11" d="M850.41,767.72c-4.29,39.4,18.6,202.96,18.6,202.96"/>
                      <path class="cls-11" d="M840.26,781.09c.53,27.41,18.93,190.48,18.93,190.48"/>
                      <path class="cls-11" d="M821.14,793.48c11.96,30.26,30.63,193.46,30.63,193.46"/>
                      <path class="cls-54" d="M887.21,887.88c-45.79,85.72-11.82-68.26-11.82-68.26l25.4,41.84"/>
                    </g>
                  </g>
                  <path class="cls-12" d="M841.42,973.6c-37.13-225.93,36.76-266.19,44.08-21.46l-44.08,21.46Z"/>
                </g>
              </g>
              <path class="cls-2" d="M781.36,781.37c1.29,5.29,1.92,10.78,1.85,16.26"/>
              <path class="cls-2" d="M807.92,831.07l.4,2.89"/>
              <path class="cls-2" d="M729.26,910.1c.3,1.05.59,2.1.89,3.16"/>
              <path class="cls-2" d="M796.48,955.04c2.13,1.98,3.77,4.61,4.7,7.53"/>
              <path class="cls-2" d="M790.7,871.3c.19,2.53.39,5.07.58,7.6"/>
              <path class="cls-11" d="M850.02,829.3c-1.05,7.96-2.7,15.82-4.93,23.48"/>
              <path class="cls-11" d="M845.14,923.43c1.66-4.76,3.32-9.51,4.98-14.27"/>
            </g>
            <g>
              <g>
                <path class="cls-26" d="M1134.49,820.26c-32.24-8.14-19.37,26.36-21.76,33.55-5.05-11.8-7.53-23.31-8.74-31.5-56.07,10.59-43.03,27.01-44.64,57.92-4.87-12.23-7.54-24.2-8.99-33.47-19.08,15.59-36.22,40.12-44.68,78.69-8.06,36.76-6.74,57.32-1.2,68.27,77.31-46.13,130.01-173.47,130.01-173.47h0Z"/>
                <path class="cls-26" d="M1134.49,820.26s-52.7,127.34-130.01,173.47c11.91,23.53,43.34,2.73,43.34,2.73,18.97,2.22,41.17-7.94,58.9-29.2-3.24-3.08-6.65-6.88-10.05-11.56.51-1.65,13.08,6.85,19.06-.86,2.26-7.14,15.93-18.47,5.37-22.56,13.09-.55,13.2-29.01,16.42-42.68-5.87.02-13.56-.89-21.88-4.34,36.24-4.27,21.16-35.27,18.86-64.99h0Z"/>
              </g>
              <g>
                <path class="cls-26" d="M779.52,907c18.95-2.94,17.61,3.74,17.16,17.73,8.77-22.74,9.57-15.97,26.66-12.71,20.96.54,14.58,22.62,15.44,26.67,3.84-6.46,5.94-12.79,7.09-17.68,35.39,13.96,49.56,80.8,33.3,76.47-59.96-25.51-99.29-90.23-99.65-90.47h0Z"/>
                <path class="cls-26" d="M779.52,907s41.57,67.29,102.54,91.66c-9.4,12.43-34.18,1.44-34.18,1.44-14.96,1.17-32.47-4.2-46.45-15.43,2.56-1.63,5.24-3.63,7.93-6.11-7.36,2.35-16.98,1.87-23.03-10.79,1.23-.47,2.48-1,3.76-1.59-7.8,1.31-10.79-13.44-12.95-22.55,4.63.01,10.7-.47,17.25-2.29-24.45-1.95-19.24-11.82-14.88-34.34h0Z"/>
              </g>
              <g>
                <path class="cls-16" d="M1072.4,720.87c-26.21-3.42-22.83,4.29-22.71,23.46-12.67-30.15-10.15-21.25-32.45-17.59-32.04,2.61-21.65,27.75-23.26,36.06-5.08-8.55-7.87-16.92-9.39-23.4-31.83,12.84-63.73,71.69-48.8,101.41,76.21-22.35,138.61-123.67,136.6-119.94h0Z"/>
                <path class="cls-16" d="M1072.4,720.87s-55,89.03-135.68,121.28c12.43,16.45,45.23,1.91,45.23,1.91,19.8,1.55,42.97-5.56,61.47-20.42-3.38-2.16-6.94-4.81-10.49-8.08,12.63,3.81,22.56,1.1,30.48-14.27-1.63-.63-3.29-1.32-4.98-2.1,10.71,1.64,14.39-18.47,17.13-29.84-6.13.01-14.15-.62-22.83-3.04,32.55-2.98,25.5-14.89,19.68-45.44Z"/>
              </g>
              <g>
                <rect class="cls-64" x="837.62" y="825.48" width="225.96" height="45.79"/>
                <g class="cls-40">
                  <g>
                    <polygon class="cls-66" points="834.04 840.87 1032.94 841.57 830.43 843.7 834.04 840.87"/>
                    <polygon class="cls-66" points="819.28 859.96 1018.18 860.67 815.68 862.79 819.28 859.96"/>
                  </g>
                </g>
                <rect class="cls-12" x="837.62" y="825.48" width="225.96" height="45.79"/>
              </g>
              <path class="cls-17" d="M1070.41,825.48c3.03-11.67-87.21-2.92-147.2-5.48-52.63,2.33-92.17-5.74-93.74,5.31,1.36,9.28,12.75,4.55,25.97,5.65h195.15c4.31,1.2,13.29-6.24,11.64,18.53,3.1,27.14-15.81,13-42.25,16.31-57.36,0-163.53,0-182.48,0-.57-2.2-15.51,4.42-3.01,10.95,5.02,0,205.27,6.29,229.09,6.29,12.14,4.98,5.35-40.43,6.83-57.56h0Z"/>
              <g>
                <rect class="cls-64" x="863.89" y="883.04" width="225.96" height="52.62"/>
                <g class="cls-41">
                  <g>
                    <polygon class="cls-66" points="860.31 900.71 1059.2 901.53 856.7 903.97 860.31 900.71"/>
                    <polygon class="cls-66" points="845.55 922.65 1044.45 923.47 841.95 925.91 845.55 922.65"/>
                  </g>
                </g>
                <rect class="cls-12" x="863.89" y="883.04" width="225.96" height="52.62"/>
              </g>
              <path class="cls-23" d="M1096.68,883.04c4.52-13.41-96.65-3.36-161.05-6.29-44,2.54-88.66-7.85-78.49,10.68,6.99,4.94,7.29.62,22.12,1.91,227.55,3.4,209.38-13.63,209.24,25.5,3.18,24.69-19.42,11.36-52.05,14.54-60.03,0-158.47,0-173.63,0-3.28.83,1.04-2.01-5.49,1.76-5.25,4.86,2.87,12.05,3.43,10.82h229.52c-.31-.98,3.87,3.29,6.4-6.29-.14-.67.1-51.68,0-52.62h0Z"/>
              <g>
                <rect class="cls-64" x="837.62" y="947.18" width="225.96" height="52.62"/>
                <g class="cls-39">
                  <g>
                    <polygon class="cls-66" points="834.04 964.86 1032.94 965.67 830.43 968.11 834.04 964.86"/>
                    <polygon class="cls-66" points="819.28 986.79 1018.18 987.61 815.68 990.05 819.28 986.79"/>
                  </g>
                </g>
                <rect class="cls-12" x="837.62" y="947.18" width="225.96" height="52.62"/>
              </g>
              <path class="cls-16" d="M1070.41,947.18c4.52-13.41-96.65-3.36-161.05-6.29-44,2.54-88.66-7.85-78.49,10.68,6.99,4.94,7.29.62,22.12,1.91,227.55,3.4,209.38-13.63,209.24,25.5,3.18,24.69-19.42,11.36-52.05,14.54-60.03,0-158.47,0-173.63,0-3.28.83,1.04-2.01-5.49,1.76-5.25,4.86,2.87,12.05,3.43,10.82h229.52c-.31-.98,3.87,3.29,6.4-6.29-.14-.67.1-51.68,0-52.62h0Z"/>
              <path class="cls-11" d="M1019.3,796.73c1.3.74,2.76,1.15,4.22,1.17"/>
              <path class="cls-2" d="M1087.29,844.3c.17,3.96.77,7.89,1.79,11.68"/>
              <path class="cls-2" d="M1077.77,958.27c.97,2.34,3.2,3.97,5.52,4.01"/>
              <path class="cls-2" d="M820.17,928.04c.92,4.09,1.6,8.26,2.03,12.45"/>
              <path class="cls-2" d="M826.28,981.29c-2.2.77-4.49,1.24-6.79,1.4"/>
              <path class="cls-11" d="M1003.71,1000.74c3.39.25,6.77.51,10.16.76"/>
              <path class="cls-7" d="M1051.75,910.92c-4.97,2.12-10.23,3.37-15.54,3.7"/>
              <path class="cls-7" d="M944.15,851.64c2.48-.77,4.96-1.54,7.44-2.31"/>
              <g>
                <g>
                  <path class="cls-31" d="M846.51,611.46c-1.17.71.95,12.8.95,12.8-5.4-16.43-10.28-18.1-3.68,1.81-1.7,6.19-2.93-7.63-6.29-4.03,5.33,23.26,11.06,41.6,29.14,75.26,6.87,19.61,72.21-10.88,75.87-8.74-.08.04-16.05-28.63-15.25-26.64-4.43.4-52.78,13.34-48.88,10.56-35.59-29.26-19.38-45.3-28.88-55.65-.79-.87-1.24-6.43-2.99-5.36h0Z"/>
                  <g class="cls-36">
                    <path class="cls-15" d="M896.94,667.53c-2.26,3,1.13,22.74-.56,29.91-1.69,7.17,12.64-6.91,12.64-6.91l-6.43-20.24"/>
                  </g>
                  <path class="cls-12" d="M846.51,611.46c-1.17.71.95,12.8.95,12.8-5.4-16.43-10.28-18.1-3.68,1.81-1.7,6.19-2.93-7.63-6.29-4.03,5.33,23.26,11.06,41.6,29.14,75.26,6.87,19.61,72.21-10.88,75.87-8.74-.08.04-16.05-28.63-15.25-26.64-4.43.4-52.78,13.34-48.88,10.56-35.59-29.26-19.38-45.3-28.88-55.65-.79-.87-1.24-6.43-2.99-5.36h0Z"/>
                </g>
                <g>
                  <polygon class="cls-69" points="894.68 665.94 906.76 698.34 942.5 688.55 931.49 658.16 894.68 665.94"/>
                  <g class="cls-33">
                    <polygon class="cls-17" points="899.87 659.38 918.59 715.12 892.77 711.67 889.62 659.28 899.87 659.38"/>
                  </g>
                  <polygon class="cls-12" points="894.68 665.94 906.76 698.34 942.5 688.55 931.49 658.16 894.68 665.94"/>
                </g>
                <g>
                  <ellipse class="cls-17" cx="818.13" cy="625.18" rx="3.12" ry="10.46"/>
                  <ellipse class="cls-17" cx="861" cy="625.18" rx="1.56" ry="7.96"/>
                  <ellipse class="cls-17" cx="894.38" cy="625.18" rx="1.41" ry="5.38"/>
                  <g>
                    <ellipse class="cls-17" cx="911.68" cy="625.18" rx="1.38" ry="3.05"/>
                    <path class="cls-26" d="M890.03,621.18l6.64.34,15.29.79c-.7.55-1.18,1.63-1.18,2.88s.48,2.33,1.18,2.88l-15.29.79-6.64.34c-.64-1.08-1.02-2.48-1.02-4s.38-2.93,1.02-4Z"/>
                    <ellipse class="cls-17" cx="889.82" cy="625.18" rx="1.59" ry="4"/>
                  </g>
                  <path class="cls-26" d="M856.18,618.11l11.72.6,26.98,1.39c-1.24.98-2.09,2.89-2.09,5.08s.84,4.1,2.09,5.08l-26.98,1.39-11.72.6c-1.12-1.9-1.8-4.37-1.8-7.07s.68-5.17,1.8-7.07h0Z"/>
                  <g>
                    <path class="cls-72" d="M818.54,614.72l13.03.89,29.99,2.05c-1.38,1.44-2.32,4.27-2.32,7.51s.94,6.07,2.32,7.51l-29.99,2.05-13.03.89c-1.25-2.81-2-6.46-2-10.46s.75-7.64,2-10.46Z"/>
                    <g class="cls-37">
                      <path class="cls-68" d="M861,635c-4.37.38-9.68-13.83-9.68-13.83,0,0-16.78,13.59-25.25,14.46-8.47.87,18.63,9.88,18.63,9.88l11.51-2.6"/>
                    </g>
                    <path class="cls-12" d="M818.54,614.72l13.03.89,29.99,2.05c-1.38,1.44-2.32,4.27-2.32,7.51s.94,6.07,2.32,7.51l-29.99,2.05-13.03.89c-1.25-2.81-2-6.46-2-10.46s.75-7.64,2-10.46Z"/>
                  </g>
                </g>
                <g>
                  <path class="cls-27" d="M1095.61,600.21c1.84,3.88,15.52,25.74,15.52,25.74-109.67-22.84-81.86,45-185.8,37.58l1.72-6.8s43.54,9.74,83.77-31.72c29.42-30.32,84.79-24.81,84.79-24.81h0Z"/>
                  <path class="cls-12" d="M1095.61,600.21c1.84,3.88,15.52,25.74,15.52,25.74-109.67-22.84-81.86,45-185.8,37.58l1.72-6.8s43.54,9.74,83.77-31.72c29.42-30.32,84.79-24.81,84.79-24.81h0Z"/>
                </g>
                <g>
                  <path class="cls-31" d="M938.24,641.9c.56,4.2-9.19,20.78-9.19,20.78l22.82-1.86-2.61-28.14c1.9-2.97-11.02,9.21-11.02,9.21h0Z"/>
                  <g class="cls-34">
                    <path class="cls-15" d="M942.63,641.3c.38,12.91-34.52,17.53-17.37,3.06,6.18-6.74,10.36-3.68,17.37-3.06Z"/>
                  </g>
                  <path class="cls-12" d="M938.24,641.9c.56,4.2-9.19,20.78-9.19,20.78l22.82-1.86-2.61-28.14c1.9-2.97-11.02,9.21-11.02,9.21h0Z"/>
                </g>
                <g>
                  <ellipse class="cls-21" cx="950.28" cy="636.38" rx="5.53" ry="5.44"/>
                  <g>
                    <g>
                      <path class="cls-31" d="M931.94,616.24c-5.73,1.52-3.1,11.89-4.96,16.16-1.86,4.27,2.53,18.65,15.19,10.52,15.54-9.99,10.59-24.21,10.59-24.21l-20.82-2.47h0Z"/>
                      <g class="cls-48">
                        <path class="cls-15" d="M927.21,617.18c.9,5.13,10.65.89,10.65.89,0,0,2.74.51.91,5.17-1.83,4.66,3.58,4.52,3.58,4.52l1.6-10.2-7.38-2.51-6.54.57"/>
                      </g>
                      <path class="cls-12" d="M931.94,616.24c-5.73,1.52-3.1,11.89-4.96,16.16-1.86,4.27,2.53,18.65,15.19,10.52,15.54-9.99,10.59-24.21,10.59-24.21l-20.82-2.47h0Z"/>
                    </g>
                    <path class="cls-21" d="M929.53,616.76c6.23-2.77,12.76,1.58,10.09,7.52-2.67,5.94,11.37,4,11.37,4l1.77-11.32-14.09-3.31s-9.56.4-9.14,3.11h0Z"/>
                    <g>
                      <path class="cls-32" d="M945.76,626.68c1.4,1.79,8.48,2.97,8.48,2.97v-1.18c4.42-13.69-1.05-19.06-8.95-18.49-7.9.57-11.45-4.23-15.78-1.26-4.33,2.97-4.56,8.8,2.06,9.03,6.63.23,16.74-.91,16.74-.91"/>
                      <g class="cls-49">
                        <g>
                          <path class="cls-71" d="M926.78,609.47c1.7,6.01,14.34,3.07,14.33,3.24,0,.17-9.28-8.02-9.28-8.02l-2.32.28"/>
                          <path class="cls-71" d="M955.82,625.79c-2.44,2.62-10.91.64-9.64,2.67,1.27,2.03,8.57,2.94,8.57,2.94l2.69-4.63"/>
                        </g>
                      </g>
                      <path class="cls-12" d="M945.76,626.68c1.4,1.79,8.48,2.97,8.48,2.97v-1.18c4.42-13.69-1.05-19.06-8.95-18.49-7.9.57-11.45-4.23-15.78-1.26-4.33,2.97-4.56,8.8,2.06,9.03,6.63.23,16.74-.91,16.74-.91"/>
                    </g>
                    <path class="cls-22" d="M946.97,630.49c11.31-10.44,12.79,12.58,0,6.63"/>
                    <g>
                      <g>
                        <g>
                          <path class="cls-64" d="M929.31,626.99c.09,4.58,4.8,4.4,5.04.13-.09-4.58-4.8-4.4-5.04-.13Z"/>
                          <g class="cls-50">
                            <path class="cls-71" d="M928.82,627.25c.15,2.2,2.56,2.3,2.59-.12-.15-2.2-2.56-2.3-2.59.12Z"/>
                          </g>
                        </g>
                        <g>
                          <path class="cls-31" d="M928.32,626.77c-1.92,2.48-3.59,3.06-3.56,4.01.03.95,1.76,2.29,4.05,2.04"/>
                          <path class="cls-12" d="M928.32,626.77c-1.92,2.48-3.59,3.06-3.56,4.01.03.95,1.76,2.29,4.05,2.04"/>
                        </g>
                      </g>
                      <path class="cls-14" d="M936.65,634.56c1.06,1.09,3.12,1.02,4.65-.18,1.58-1.24,2.01-3.23.9-4.41-1.12-1.19-3.32-1.04-4.85.3-1.48,1.29-1.77,3.19-.7,4.29h0Z"/>
                      <path class="cls-71" d="M930.18,620.75c3.8-.23,4.68,1.31,2.31,1.6-2.37.3-4.79-1.45-2.31-1.6Z"/>
                      <path class="cls-9" d="M933.6,634.48c-1.05,2.24-3.1,1.88-3.1,1.88"/>
                    </g>
                    <path class="cls-9" d="M951.3,630.83c.75-.06,1.22,1.62-.31,2.35"/>
                  </g>
                  <g>
                    <g>
                      <path class="cls-27" d="M956.29,624.61s11.11-30.22-27.14-17.34l27.14,17.34Z"/>
                      <g class="cls-51">
                        <g>
                          <path class="cls-54" d="M946.09,600.97c15.29,2.75,1.32,21.07,1.32,21.07l-16.4-6.79s3.4-6.37,21.97-10.66"/>
                          <path class="cls-54" d="M935.76,604.08c-5.49,3.4.95,4.39-3,5.5-3.96,1.12-4.82-5.98-4.82-5.98l5.66-1.63"/>
                        </g>
                      </g>
                      <path class="cls-12" d="M956.29,624.61s11.11-30.22-27.14-17.34l27.14,17.34Z"/>
                    </g>
                    <path class="cls-16" d="M934.41,608.88s-13.53-13.09-19.33-11.04c-5.79,2.05,19.66,13,19.66,13l-.33-1.96h0Z"/>
                  </g>
                  <path class="cls-28" d="M929.51,632.71c-.41,0-.79-.21-1.09-.6-.82-1.06-1.1-3.57-.71-6.39.46-3.31,1.87-6.84,3.58-6.86h0c.41,0,.79.21,1.09.6.82,1.06,1.1,3.57.71,6.39-.46,3.31-1.87,6.84-3.58,6.86h0ZM931.29,619.91h0c-.76,0-2.14,2.28-2.65,5.97-.4,2.86-.02,4.88.49,5.55.18.24.33.26.38.24.76,0,2.14-2.28,2.65-5.97h0c.4-2.86.02-4.88-.49-5.55-.18-.23-.32-.24-.38-.24Z"/>
                  <path class="cls-28" d="M949.63,629.11s-.04,0-.06,0l-17.09-2.28c-.26-.03-.44-.29-.41-.58.03-.29.27-.49.52-.46l17.09,2.28c.26.03.44.29.41.58-.03.27-.23.46-.46.46Z"/>
                </g>
                <g>
                  <path class="cls-31" d="M897.64,611.46c-4.06-2.09-5.12,13.33-5.12,13.33-1.35-4.81-5.8-6.53-12.18-5.42,0,0,5.76,2.34,2.2,7.4s-8.01,5.64-7.61,11.91c.4,6.27-14.52,66.81,1.53,68.51,16.06,1.7,62.03-16.29,62.03-16.29-2.13-1.77-24.73-23.35-24.19-22.27-33.62,20.71-25.34,25.78-30.24-12.94-4.68-19.26,17.86-23.58,13.58-44.24h0Z"/>
                  <g class="cls-52">
                    <path class="cls-15" d="M901.45,676.18c-1.81,5.52,5.16,28.22-.57,29.94,21.21-4.05,10.72-13.72,11.41-23.78"/>
                  </g>
                  <path class="cls-12" d="M897.64,611.46c-4.06-2.09-5.12,13.33-5.12,13.33-1.35-4.81-5.8-6.53-12.18-5.42,0,0,5.76,2.34,2.2,7.4s-8.01,5.64-7.61,11.91c.4,6.27-14.52,66.81,1.53,68.51,16.06,1.7,62.03-16.29,62.03-16.29-2.13-1.77-24.73-23.35-24.19-22.27-33.62,20.71-25.34,25.78-30.24-12.94-4.68-19.26,17.86-23.58,13.58-44.24h0Z"/>
                </g>
                <path class="cls-22" d="M853.76,642.38c2.3-16.01-5.03-50.25-6.57-4.68"/>
                <g>
                  <path class="cls-31" d="M855.79,876.11c-.69,10.43,9.76,23.34,10.75,28.88-3.82,4.95-24.48,32.61-31.86,26.53,21.31-28.01,5.57-48.97,21.11-55.41Z"/>
                  <g class="cls-53">
                    <path class="cls-15" d="M841.62,896.23c33.48,1.24,18.58-23.54,3.95-7.54"/>
                  </g>
                  <path class="cls-12" d="M855.79,876.11c-.69,10.43,9.76,23.34,10.75,28.88-3.82,4.95-24.48,32.61-31.86,26.53,21.31-28.01,5.57-48.97,21.11-55.41Z"/>
                </g>
                <g>
                  <path class="cls-30" d="M842.63,894.63s24.11-9.34,40.93-34.44c2.47-3.69-26.57-35.14-38.31-52.58,36.85,8.27,128.77,43.41,115-39.6-182.81-7.35-184.5-15.9-117.62,126.63h0Z"/>
                  <g class="cls-46">
                    <g>
                      <path class="cls-4" d="M855.09,908.06c12.71-16.7-32.77-113.68-22.39-110.16,10.38,3.52,71.22,12.71,88.38,4.55"/>
                      <path class="cls-19" d="M810.91,778.44c-.95,22.46-29.45,21.45-30.25,0,.95-22.46,29.45-21.45,30.25,0Z"/>
                    </g>
                  </g>
                  <path class="cls-12" d="M842.63,894.63s24.11-9.34,40.93-34.44c2.47-3.69-26.57-35.14-38.31-52.58,36.85,8.27,128.77,43.41,115-39.6-182.81-7.35-184.5-15.9-117.62,126.63h0Z"/>
                </g>
                <g>
                  <path class="cls-31" d="M879.21,769.61c-6.51,18.62-7.8,36.91-6.51,47.07-5.41,3.65-36.13,25.83-41.66,16.1,7.99-7.07,27.12-22.26,27.24-41.37,4.46-11.21,20.39-21.3,20.93-21.81h0Z"/>
                  <g class="cls-44">
                    <path class="cls-15" d="M856.64,791.61c-3.19.13,13.63,8.3,14.77,12.2,1.14,3.9,4.19-10.81,4.19-10.81"/>
                  </g>
                  <path class="cls-12" d="M879.21,769.61c-6.51,18.62-7.8,36.91-6.51,47.07-5.41,3.65-36.13,25.83-41.66,16.1,7.99-7.07,27.12-22.26,27.24-41.37,4.46-11.21,20.39-21.3,20.93-21.81h0Z"/>
                </g>
                <g>
                  <path class="cls-30" d="M852.09,789.82s35.15,31.41,42.59,25.16c7.44-6.25-5.35-39.64-4.55-57.97,20.53,95.37,113.58,83.81,98.3-1.29l-54.36-4.46-.4,9.39c-67.34-129.12-100.97-67.2-81.59,29.18h0Z"/>
                  <g class="cls-47">
                    <g>
                      <path class="cls-28" d="M933.67,760.65c51.59,27.02,48.67,95.84,10.48,70.31-38.19-25.53-16.73,11.85-16.73,11.85l77.54-40.36-20.77-39.37"/>
                      <path class="cls-4" d="M869,788.2c12.97-23.46,6.73-69.98,19.02-53.57,12.29,16.4,41.25,100.74,73.7,62.17"/>
                      <path class="cls-4" d="M955.51,784.85c-15.8,6.29-9.98,19.36-9.98,19.36"/>
                      <path class="cls-19" d="M891.97,688.29c.39,11.15-26.82,13.77-30.85,2.02-5.27-13.89,30.52-16.28,30.85-2.02Z"/>
                    </g>
                  </g>
                  <path class="cls-12" d="M852.09,789.82s35.15,31.41,42.59,25.16c7.44-6.25-5.35-39.64-4.55-57.97,20.53,95.37,113.58,83.81,98.3-1.29l-54.36-4.46-.4,9.39c-67.34-129.12-100.97-67.2-81.59,29.18h0Z"/>
                </g>
                <path class="cls-17" d="M934,658.04c-.49-5.3,12.33-8.83,16.4-11.34.88,2.33,4.53,8.32,3.7,9.63-2.79,4.39-16.89-.23-20.1,1.71h0Z"/>
                <g>
                  <path class="cls-69" d="M899.87,675.02l7.07,30.5,14.85-1.16c-.47-3.33,1.4,45.8,4.59,45.81,7.38,11.5,25.91,41.46,78.09,31.84,26.52-51.77-28.08-177.77-104.61-106.99h0Z"/>
                  <g class="cls-45">
                    <g>
                      <path class="cls-65" d="M903.75,717.82c7.72-7.43,24.09-17.03,34.74-16.28,0,0-17.41,48.96,23.21,79.05,31.18,23.1-52.94,0-52.94,0l-5.01-62.77h0Z"/>
                      <polyline class="cls-17" points="906.13 669.24 918.02 708.47 904.34 710.68 894.18 670.74"/>
                    </g>
                  </g>
                  <path class="cls-12" d="M899.87,675.02l7.07,30.5,14.85-1.16c-.47-3.33,1.4,45.8,4.59,45.81,7.38,11.5,25.91,41.46,78.09,31.84,26.52-51.77-28.08-177.77-104.61-106.99h0Z"/>
                </g>
                <g>
                  <path class="cls-27" d="M1101.49,647.72l16.11,27.29s-50.54-25.96-112.82-8.11c-62.28,17.84-81.44-5.61-81.44-5.61,0,0-.72-6.12,4.49-6.29,0,0,3.19,11.37,52.07,3.28,48.88-8.09,62.07-21.17,121.59-10.56h0Z"/>
                  <g class="cls-43">
                    <path class="cls-16" d="M949.91,694.07l6.24-.9c-4.31-2.81-36.37-43.46-41.7-36.05l35.46,36.96h0Z"/>
                  </g>
                  <path class="cls-12" d="M1101.49,647.72l16.11,27.29s-50.54-25.96-112.82-8.11c-62.28,17.84-81.44-5.61-81.44-5.61,0,0-.72-6.12,4.49-6.29,0,0,3.19,11.37,52.07,3.28,48.88-8.09,62.07-21.17,121.59-10.56h0Z"/>
                </g>
              </g>
              <line class="cls-12" x1="938.49" y1="701.54" x2="915.16" y2="705.52"/>
              <path class="cls-17" d="M938.55,730.41l2.78-1.51s5.62,16.35,14.65,15.59c-2.8,7.79-12.07,2.24-17.43-14.08h0Z"/>
              <path class="cls-6" d="M963.53,762.58c2.67.64,5.39.99,8.12,1.04"/>
              <path class="cls-11" d="M1046.15,650.94c3.48-.11,6.97.23,10.38,1.01"/>
              <path class="cls-4" d="M886.98,752.42c-.33-1.64-.66-3.27-.99-4.91"/>
              <path class="cls-4" d="M820.62,793.15c-.12,1.05.13,2.15.68,3.01"/>
              <path class="cls-4" d="M929.57,775.45c.23,1.26.47,2.51.7,3.77"/>
              <path class="cls-8" d="M852.9,903.93l.45.5"/>
              <path class="cls-8" d="M883.56,642.41c-.34-.01-.67-.24-.83-.58"/>
              <path class="cls-8" d="M845.62,645.37c.17-.06.34-.13.51-.19"/>
              <path class="cls-6" d="M934.47,702.78c4.74-1.99,9.91-2.7,14.95-2.03"/>
            </g>
          </g>
        </g>
      </g>
    </g>
  </g>
</svg>